<?xml version="1.0" standalone="no"?>
<!DOCTYPE svg PUBLIC "-//W3C//DTD SVG 20010904//EN"
 "http://www.w3.org/TR/2001/REC-SVG-20010904/DTD/svg10.dtd">
<svg version="1.0" xmlns="http://www.w3.org/2000/svg"
 width="300.000000pt" height="182.000000pt" viewBox="0 0 300.000000 182.000000"
 preserveAspectRatio="xMidYMid meet">
<metadata>
Created by potrace 1.10, written by Peter Selinger 2001-2011
</metadata>
<g transform="translate(0.000000,182.000000) scale(0.100000,-0.100000)"
fill="#000000" stroke="none">
<path d="M462 1723 l-2 -102 -127 -4 -128 -3 127 -2 127 -2 4 -57 3 -58 2 57
2 57 58 4 57 3 -57 2 -57 2 -4 103 -3 102 -2 -102z"/>
<path d="M732 1723 l-2 -102 -72 -4 -73 -3 72 -2 72 -2 4 -127 3 -128 2 128 2
127 130 0 129 0 4 -72 3 -73 2 72 2 72 58 4 57 3 -57 2 -57 2 -4 103 -3 102
-2 -102 -2 -103 -130 0 -129 0 -4 103 -3 102 -2 -102z"/>
<path d="M2352 1723 l-2 -103 -130 0 -129 0 -4 58 -3 57 -2 -57 -2 -57 -72 -4
-73 -3 72 -2 72 -2 4 -72 3 -73 2 73 2 72 130 0 130 0 2 -207 c1 -115 4 -176
5 -136 l4 72 57 4 57 3 -57 2 -58 2 0 130 0 129 58 4 57 3 -57 2 -57 2 -4 103
-3 102 -2 -102z"/>
<path d="M2622 1723 l-2 -102 -72 -4 -73 -3 73 -2 72 -2 0 -130 0 -129 -72 -4
-73 -3 73 -2 72 -2 0 -129 c0 -126 -1 -130 -22 -134 -23 -4 -23 -4 -1 -6 18
-1 23 -8 26 -38 l4 -38 1 37 2 37 58 4 57 3 -57 2 -58 2 0 130 0 129 58 4 57
3 -57 2 -58 2 0 130 0 129 58 4 57 3 -57 2 -57 2 -4 103 -3 102 -2 -102z"/>
<path d="M2892 1723 l-2 -102 -72 -4 -73 -3 73 -2 72 -2 0 -130 0 -129 -72 -4
-73 -3 73 -2 72 -2 0 -130 0 -129 -72 -4 -73 -3 72 -2 73 -2 0 -470 0 -469
-58 -4 -57 -3 57 -2 57 -2 4 -62 c2 -35 4 179 5 474 l2 537 53 4 52 3 -52 2
-53 2 0 129 0 130 53 4 52 3 -52 2 -53 2 0 129 0 130 53 4 52 3 -52 2 -52 2
-4 103 -3 102 -2 -102z"/>
<path d="M1582 1772 c-7 -5 -12 -17 -11 -28 4 -40 -2 -52 -28 -57 -36 -7 -37
-5 -14 22 23 26 18 51 -10 51 -24 0 -35 -25 -20 -44 8 -10 9 -16 1 -21 -5 -3
-10 -2 -10 4 0 6 -14 18 -30 26 -30 15 -32 15 -60 -14 -21 -21 -30 -39 -30
-63 1 -46 31 -109 69 -141 l32 -26 -17 -53 c-9 -29 -17 -57 -19 -63 -2 -5 -4
-2 -4 8 -2 31 -32 80 -87 141 -30 33 -64 80 -76 105 -23 46 -23 46 -26 16 -5
-40 16 -130 41 -180 11 -22 47 -69 80 -104 l59 -64 -6 -51 c-3 -28 -6 -69 -6
-92 l0 -41 -45 -1 c-42 0 -57 9 -35 23 20 12 49 175 31 175 -12 0 -61 -92 -61
-115 0 -32 -16 -12 -55 69 l-41 84 20 62 c18 56 18 65 5 89 -18 31 -49 36
-103 15 -52 -20 -93 -63 -101 -107 -6 -30 -3 -38 17 -51 12 -8 52 -17 87 -19
62 -5 63 -5 88 -46 14 -24 22 -45 19 -48 -3 -4 -1 -12 5 -19 16 -19 -7 -27
-45 -14 -18 6 -55 26 -80 44 -67 47 -35 57 53 16 48 -22 60 -25 43 -11 -25 22
-108 55 -162 65 l-35 7 58 -56 c33 -31 51 -55 42 -55 -18 0 -20 -36 -2 -47 6
-4 23 -20 36 -36 l24 -27 -51 0 -52 0 16 26 c16 23 16 27 2 41 -21 20 -38 9
-38 -24 0 -21 -3 -23 -14 -14 -11 9 -14 8 -12 -6 0 -12 -7 -19 -21 -21 -13 -2
-23 2 -23 8 0 7 8 9 21 5 15 -5 19 -4 15 4 -10 15 -31 14 -45 -3 -8 -10 -24
-12 -51 -9 -26 4 -40 2 -40 -6 0 -8 159 -11 596 -11 395 0 593 3 589 10 -4 6
-23 7 -44 4 -24 -4 -41 -2 -45 5 -4 7 1 11 13 11 26 0 36 17 21 36 -11 12 -9
14 11 12 19 -2 25 2 27 21 3 21 1 23 -27 19 -20 -3 -30 -1 -28 6 2 7 23 10 50
8 42 -3 47 -2 47 17 0 21 -8 25 -44 21 -11 -1 -16 3 -11 10 5 7 21 9 46 5 31
-5 40 -3 45 10 4 10 -1 21 -12 29 -17 13 -17 14 5 21 15 5 21 13 19 28 -5 35
-40 28 -59 -12 l-16 -34 -7 26 c-7 29 -33 36 -42 12 -4 -8 1 -27 11 -41 16
-24 16 -28 1 -42 -15 -15 -16 -14 -16 16 0 25 -4 32 -19 32 -31 0 -34 -17 -12
-54 19 -29 19 -35 6 -46 -20 -16 -45 -6 -45 20 0 22 15 27 23 8 4 -10 6 -10 6
0 1 17 -29 28 -38 14 -4 -6 -17 -9 -29 -6 l-21 6 22 18 c17 14 19 21 10 31
-16 16 -43 4 -43 -20 0 -11 -9 -25 -21 -31 -27 -15 -38 -4 -13 14 14 11 16 17
7 26 -16 17 -33 4 -33 -26 0 -18 -5 -24 -21 -24 -23 0 -21 6 29 68 19 23 40
42 46 42 18 0 35 21 29 36 -8 21 -43 17 -43 -4 0 -11 -9 -27 -21 -38 -12 -10
-43 -52 -69 -92 -45 -68 -49 -72 -60 -53 -9 17 -8 22 5 27 8 3 15 14 15 23 0
14 2 14 10 1 8 -13 10 -13 10 2 0 32 -30 31 -43 -2 -4 -10 -6 -8 -6 7 -1 12
-4 28 -7 37 -3 9 -1 16 4 16 6 0 13 -8 15 -17 3 -13 5 -12 6 5 1 19 -3 23 -21
20 -24 -3 -24 -4 -12 -75 7 -39 -3 -43 -16 -7 -10 27 -33 28 -38 3 -2 -9 11
-20 31 -28 48 -19 60 -42 41 -80 -9 -19 -23 -31 -35 -31 -23 0 -24 18 -3 49
18 26 6 48 -20 38 -13 -5 -15 -15 -10 -45 l6 -38 -56 -3 -56 -2 30 43 c36 52
62 150 58 215 l-3 48 -16 -35 c-10 -19 -38 -64 -63 -100 -25 -36 -59 -84 -75
-108 l-29 -43 5 42 c4 26 19 59 39 86 34 44 59 105 51 126 -4 14 -67 -48 -67
-67 0 -6 12 3 26 19 24 29 25 29 18 5 -8 -29 -55 -113 -60 -107 -2 2 1 18 6
36 5 18 7 38 4 45 -5 14 21 116 37 148 7 13 14 14 42 6 23 -7 45 -7 75 2 54
14 122 74 122 106 0 31 -41 58 -72 48 -20 -6 -21 -5 -9 10 7 9 20 16 28 16 9
0 13 8 11 23 -4 29 -41 31 -46 2 -7 -45 -12 -48 -32 -22 -26 33 -25 43 5 69
19 16 22 25 14 39 -11 21 -18 23 -37 11z m-112 -72 c24 -24 36 -68 22 -82 -8
-8 -20 -2 -42 22 -18 19 -36 30 -45 26 -20 -7 -19 13 2 36 21 23 38 23 63 -2z
m81 -52 c-11 -29 -41 -37 -41 -10 0 23 8 32 31 32 15 0 17 -4 10 -22z m44 -8
c8 -24 -1 -40 -21 -40 -8 0 -14 10 -14 23 0 40 24 51 35 17z m-148 -17 c9 -16
18 -29 19 -31 0 -1 14 2 29 8 34 13 72 -8 77 -42 2 -18 10 -22 43 -22 52 -1
59 -17 15 -38 -65 -33 -149 -17 -200 37 -23 24 -51 95 -43 107 10 17 44 6 60
-19z m248 -48 c0 -25 -4 -29 -20 -26 -11 2 -36 4 -55 6 -21 1 -36 8 -38 17 -4
20 35 38 78 35 32 -2 35 -5 35 -32z m-349 -85 c44 -47 79 -108 70 -118 -3 -3
-6 -1 -6 5 0 6 -20 33 -45 61 -25 27 -56 70 -70 93 -14 24 -25 38 -25 31 0
-21 47 -95 81 -127 32 -32 72 -100 67 -116 -6 -19 -119 126 -139 180 -23 63
-18 102 9 61 9 -14 35 -45 58 -70z m-180 5 c-3 -8 0 -26 6 -39 6 -14 7 -33 4
-43 -7 -16 -10 -15 -32 12 -30 37 -31 65 -4 65 11 0 20 5 20 10 0 6 3 10 6 10
3 0 4 -7 0 -15z m52 -28 c4 -35 -6 -64 -17 -51 -5 5 -12 26 -15 47 -6 34 -5
38 11 35 11 -2 19 -14 21 -31z m-100 -40 c32 -32 33 -47 5 -47 -22 0 -64 47
-57 64 9 23 16 20 52 -17z m-34 -44 c40 -19 38 -33 -3 -33 -31 0 -57 23 -46
40 8 13 8 13 49 -7z m126 13 c0 -3 -4 -16 -10 -30 -7 -20 -16 -26 -40 -26 -37
0 -38 12 -4 39 24 19 54 28 54 17z m376 -126 c-19 -75 -61 -148 -93 -163 -36
-16 -39 -1 -7 38 44 54 94 137 94 155 0 8 -14 -10 -31 -40 -16 -30 -40 -66
-53 -80 -13 -14 -31 -38 -41 -53 -10 -15 -20 -26 -22 -23 -8 7 28 69 67 116
20 25 45 60 55 77 13 23 21 29 27 20 5 -8 8 -6 8 7 0 11 3 17 6 14 3 -4 -1
-34 -10 -68z m-237 -60 c0 -10 -3 -8 -8 4 -6 16 -10 10 -20 -28 -6 -27 -14
-46 -17 -43 -4 3 2 29 11 58 12 36 20 47 26 38 5 -8 8 -21 8 -29z m561 28 c0
-6 3 -8 7 -5 10 11 42 -44 35 -62 -5 -14 -3 -14 10 -3 10 8 19 9 22 3 3 -5 0
-12 -6 -14 -7 -3 -3 -6 10 -6 13 -1 20 -5 17 -11 -7 -12 -56 -14 -54 -2 4 17
-25 73 -42 83 -20 10 -26 29 -9 29 6 0 10 -5 10 -12z m170 2 c0 -5 -14 -10
-31 -10 -17 0 -28 4 -24 10 3 6 17 10 31 10 13 0 24 -4 24 -10z m-193 -14 c4
-4 7 -19 8 -34 0 -19 -6 -29 -20 -33 -13 -4 -19 -13 -18 -27 3 -20 -2 -22 -52
-22 -30 0 -55 2 -55 4 0 2 16 11 35 20 33 16 48 44 25 48 -29 4 -35 1 -40 -21
-3 -14 -12 -27 -20 -29 -12 -4 -13 -2 -2 9 20 21 15 42 -9 36 -19 -5 -19 -4
-6 16 7 12 16 27 19 32 7 11 125 12 135 1z m-732 -24 c13 -9 14 -63 1 -59 -11
4 -27 67 -17 67 3 0 11 -4 16 -8z m768 -41 c-1 -41 -21 -65 -39 -50 -19 16
-18 43 1 35 8 -3 15 -1 15 5 0 6 6 7 13 3 10 -6 10 -4 0 7 -7 7 -13 19 -13 27
0 7 6 12 13 9 6 -2 11 -18 10 -36z m-644 -13 c16 -46 15 -48 -38 -48 -57 0
-65 8 -57 53 6 31 8 32 45 29 34 -3 41 -9 50 -34z m465 4 c-6 -4 -13 -15 -17
-24 -7 -21 -27 -24 -27 -5 0 17 12 33 30 39 19 6 28 -1 14 -10z"/>
<path d="M1812 1678 c-2 -56 -2 -57 -34 -61 l-33 -4 32 -1 32 -2 4 -72 3 -73
2 72 2 72 58 4 57 3 -57 2 -57 2 -4 58 -3 57 -2 -57z"/>
<path d="M117 1613 l72 -4 4 -57 3 -57 2 63 2 62 -77 -2 -78 -2 72 -3z"/>
<path d="M193 1425 c0 -38 2 -53 4 -32 2 20 2 52 0 70 -2 17 -4 1 -4 -38z"/>
<path d="M463 1425 c0 -38 2 -53 4 -32 2 20 2 52 0 70 -2 17 -4 1 -4 -38z"/>
<path d="M811 1406 c-16 -19 -8 -32 33 -57 l31 -19 -28 0 c-22 0 -28 -4 -25
-17 2 -10 14 -19 26 -21 18 -3 21 -6 12 -17 -16 -19 -4 -35 27 -35 21 0 24 -2
13 -15 -21 -25 4 -45 42 -34 21 6 36 5 45 -3 11 -8 12 -7 7 6 -4 10 1 25 11
36 20 22 16 54 -8 58 -12 3 -19 -5 -23 -27 -4 -17 -10 -33 -13 -36 -11 -6 -6
39 7 62 16 29 15 50 -2 56 -19 8 -32 -10 -40 -55 -6 -32 -11 -38 -31 -38 -16
0 -25 6 -25 16 0 11 6 14 23 9 22 -6 21 -6 -2 8 -18 11 -20 15 -8 20 8 3 19 1
25 -5 8 -8 8 0 0 26 -9 29 -9 39 2 49 10 10 11 6 6 -18 -6 -28 -5 -29 8 -12
18 23 10 49 -13 45 -9 -2 -17 -15 -19 -33 l-4 -30 -21 44 c-24 50 -38 59 -56
37z m159 -85 c0 -17 -12 -41 -21 -41 -10 0 -12 33 -2 43 9 10 23 9 23 -2z m40
-54 c0 -7 -7 -22 -15 -33 -14 -18 -14 -18 -15 7 0 14 3 29 7 32 11 11 23 8 23
-6z"/>
<path d="M117 1343 l72 -4 4 -57 3 -57 2 63 2 62 -77 -2 -78 -2 72 -3z"/>
<path d="M387 1343 l72 -4 4 -57 3 -57 2 57 2 57 58 4 c31 2 -4 3 -78 3 -74 0
-103 -2 -63 -3z"/>
<path d="M657 1343 l72 -4 4 -57 3 -57 2 57 c2 50 5 57 25 61 12 2 -23 4 -78
4 -78 -1 -84 -2 -28 -4z"/>
<path d="M2237 1343 c18 -2 50 -2 70 0 21 2 7 4 -32 4 -38 0 -55 -2 -38 -4z"/>
<path d="M1117 1260 c53 -32 115 -62 119 -57 5 5 -129 77 -142 77 -5 0 5 -9
23 -20z"/>
<path d="M1022 1227 c-6 -7 -12 -21 -14 -32 -3 -16 -10 -19 -41 -17 -31 3 -37
1 -37 -16 0 -24 15 -31 58 -25 50 8 95 82 58 96 -8 3 -19 0 -24 -6z m28 -15
c0 -5 -7 -17 -15 -28 -14 -18 -14 -18 -15 9 0 17 5 27 15 27 8 0 15 -4 15 -8z"/>
<path d="M449 1166 c-2 -3 -3 -25 -1 -50 4 -45 5 -46 40 -46 19 0 32 3 28 8
-4 4 -17 7 -29 7 -11 0 -22 6 -24 13 -3 7 5 12 21 12 14 0 26 5 26 10 0 6 -11
10 -25 10 -14 0 -25 5 -25 10 0 6 14 10 30 10 17 0 30 5 30 10 0 10 -62 15
-71 6z"/>
<path d="M567 1163 c-16 -15 -6 -43 18 -49 14 -3 25 -10 25 -14 0 -16 -22 -22
-33 -11 -17 17 -31 13 -17 -4 7 -8 23 -15 37 -15 30 0 43 30 19 44 -10 6 -25
17 -34 24 -15 12 -12 13 17 8 29 -5 32 -4 21 9 -13 16 -42 20 -53 8z"/>
<path d="M670 1160 c0 -5 7 -10 15 -10 11 0 15 -11 15 -40 0 -22 5 -40 10 -40
6 0 10 18 10 40 0 29 4 40 15 40 8 0 15 5 15 10 0 6 -18 10 -40 10 -22 0 -40
-4 -40 -10z"/>
<path d="M2141 1156 c-7 -9 -8 -17 -2 -20 5 -3 11 -1 13 6 3 7 12 9 23 5 17
-7 16 -10 -8 -35 -34 -36 -34 -42 3 -42 17 0 30 4 30 10 0 5 -7 7 -15 4 -20
-8 -19 10 0 26 22 18 15 54 -11 58 -11 2 -26 -4 -33 -12z"/>
<path d="M2256 1154 c-19 -18 -20 -38 -6 -65 21 -38 70 -17 70 31 0 46 -34 64
-64 34z m48 -20 c8 -22 -11 -54 -29 -48 -15 6 -21 45 -8 57 11 12 31 7 37 -9z"/>
<path d="M2373 1163 c-7 -2 -13 -12 -13 -21 0 -12 3 -13 12 -4 7 7 18 12 25
12 21 0 15 -27 -12 -48 -33 -26 -32 -32 11 -32 20 0 33 4 29 10 -3 5 -13 6
-22 3 -12 -5 -10 2 7 25 19 26 21 34 10 47 -13 15 -25 17 -47 8z"/>
<path d="M2497 1141 c-34 -40 -34 -51 -2 -51 14 0 25 -6 25 -12 1 -9 4 -8 9 2
5 8 6 33 2 54 l-6 40 -28 -33z"/>
<path d="M1580 1140 c0 -11 7 -20 15 -20 8 0 15 9 15 20 0 11 -7 20 -15 20 -8
0 -15 -9 -15 -20z"/>
<path d="M2 1075 c7 -7 299 -7 306 -1 3 4 -66 6 -153 6 -87 0 -156 -2 -153 -5z"/>
<path d="M200 830 c0 -100 3 -120 15 -120 12 0 15 13 15 55 l0 55 60 0 c49 0
60 3 60 16 0 15 -8 16 -60 11 l-60 -7 0 40 0 40 70 0 c56 0 70 3 70 15 0 12
-16 15 -85 15 l-85 0 0 -120z"/>
<path d="M424 934 c3 -9 6 -63 6 -120 l0 -104 85 0 c69 0 85 3 85 15 0 12 -15
15 -75 15 l-76 0 7 105 c6 104 6 105 -16 105 -16 0 -20 -4 -16 -16z"/>
<path d="M708 934 c-35 -18 -58 -62 -58 -110 0 -52 62 -114 114 -114 82 0 132
57 123 139 -10 85 -100 128 -179 85z m97 -18 c40 -17 55 -42 55 -91 0 -79 -93
-113 -151 -56 -48 49 -37 120 24 146 40 18 32 17 72 1z"/>
<path d="M923 936 c4 -9 21 -64 39 -122 40 -131 52 -133 88 -12 14 48 28 89
31 92 3 3 18 -37 34 -89 36 -124 48 -123 90 10 18 55 36 108 40 118 5 13 2 17
-12 17 -16 0 -24 -17 -44 -90 -13 -49 -26 -90 -29 -90 -3 0 -18 41 -33 90 -21
70 -31 90 -45 90 -14 0 -23 -19 -43 -90 -13 -49 -27 -90 -30 -90 -4 0 -17 39
-31 88 -18 64 -30 88 -43 91 -13 2 -16 -1 -12 -13z"/>
<path d="M1300 830 l0 -120 85 0 c69 0 85 3 85 15 0 12 -14 15 -70 15 l-70 0
0 40 0 40 60 0 c49 0 60 3 60 16 0 15 -8 16 -60 11 l-60 -7 0 40 0 40 70 0
c56 0 70 3 70 15 0 12 -16 15 -85 15 l-85 0 0 -120z"/>
<path d="M1521 830 c1 -97 3 -120 15 -120 10 0 14 14 14 50 l0 50 35 0 c31 0
38 -5 66 -50 17 -27 37 -50 45 -50 20 0 18 10 -11 52 -14 20 -25 40 -25 44 0
3 11 15 25 26 31 24 33 70 5 98 -16 16 -33 20 -94 20 l-75 0 0 -120z m154 50
l0 -35 -62 -3 -63 -3 0 41 0 41 63 -3 62 -3 0 -35z"/>
<path d="M1802 934 c-15 -10 -22 -25 -22 -49 0 -39 12 -48 91 -71 35 -10 49
-20 49 -32 0 -57 -102 -57 -123 0 -3 9 -8 10 -16 2 -28 -26 29 -74 87 -74 41
0 82 35 82 70 0 35 -12 44 -82 65 -65 18 -80 41 -48 67 31 25 57 22 86 -9 18
-19 28 -23 35 -16 8 8 4 19 -14 37 -31 30 -89 35 -125 10z"/>
<path d="M2007 833 c2 -89 5 -118 15 -118 9 0 12 14 10 53 l-4 52 71 0 71 0 0
-55 c0 -42 3 -55 15 -55 13 0 15 20 15 120 0 103 -2 120 -16 120 -12 0 -15
-10 -13 -52 l3 -53 -69 0 -70 0 1 53 c1 42 -1 52 -15 52 -14 0 -16 -14 -14
-117z"/>
<path d="M2294 916 c-28 -28 -34 -42 -34 -75 0 -85 56 -138 133 -128 85 12
133 108 88 180 -25 40 -58 57 -112 57 -33 0 -48 -7 -75 -34z m115 3 c63 -22
80 -102 32 -150 -49 -49 -121 -37 -146 25 -21 51 1 106 50 127 27 11 28 11 64
-2z"/>
<path d="M2550 830 c0 -100 3 -120 15 -120 11 0 15 12 15 44 l0 44 61 4 c49 4
66 9 80 27 26 32 24 73 -4 99 -19 18 -35 22 -95 22 l-72 0 0 -120z m158 57 c5
-43 -13 -57 -74 -57 l-54 0 0 45 0 46 63 -3 c60 -3 62 -4 65 -31z"/>
<path d="M2619 558 c0 -90 0 -222 1 -295 l1 -132 -58 -4 -58 -3 57 -2 57 -2 4
-62 c2 -35 4 100 5 300 1 199 0 362 -3 362 -3 0 -5 -73 -6 -162z"/>
<path d="M2350 525 l0 -124 -57 -4 -58 -3 63 -2 62 -2 0 130 c0 72 -2 130 -5
130 -3 0 -5 -56 -5 -125z"/>
<path d="M883 578 c-2 -5 65 -8 150 -8 153 0 155 0 150 -21 -7 -24 10 -39 45
-39 16 0 22 -6 22 -22 0 -21 0 -21 -20 -3 -19 17 -22 17 -37 2 -13 -13 -14
-19 -3 -31 7 -9 20 -16 29 -16 14 1 14 2 -1 11 -22 12 -23 29 -3 29 16 0 38
-34 28 -44 -3 -3 -1 -6 5 -6 7 0 12 -7 12 -17 0 -15 -2 -14 -20 2 -23 20 -53
13 -48 -12 3 -15 29 -34 62 -46 5 -2 6 -15 3 -29 -5 -20 -12 -25 -27 -21 -11
3 -20 12 -20 19 0 17 12 18 29 2 10 -11 11 -10 6 4 -8 20 -28 29 -44 18 -23
-13 -7 -44 27 -54 28 -8 32 -13 32 -42 0 -19 5 -34 11 -34 7 0 9 12 6 32 -5
33 18 98 34 98 16 0 10 -29 -8 -39 -10 -6 -13 -11 -7 -11 5 0 15 5 20 10 7 7
17 3 32 -13 22 -24 22 -24 7 -132 -8 -60 -13 -110 -11 -112 5 -5 54 69 66 101
12 34 7 44 -15 26 -17 -14 -21 -35 -5 -25 6 3 10 3 10 0 0 -10 -30 -65 -36
-65 -3 0 -2 4 1 10 3 5 8 43 11 82 2 40 8 116 12 168 l8 95 24 -74 c25 -79 32
-142 15 -138 -5 1 -9 9 -8 19 1 9 -4 22 -12 28 -29 24 -17 -38 15 -73 34 -39
37 -62 14 -95 -9 -13 -13 -26 -9 -30 4 -4 10 -1 12 6 3 7 31 31 64 53 32 22
59 45 59 51 0 6 -10 2 -23 -10 -25 -24 -43 -29 -30 -9 20 31 9 48 -16 25 -11
-11 -12 -9 -6 12 4 14 10 100 12 193 l5 167 29 0 c20 0 27 -4 23 -14 -3 -8 -1
-17 5 -21 6 -3 11 -14 11 -23 0 -14 -2 -14 -9 -3 -11 17 -45 7 -39 -11 3 -7
17 -14 33 -15 54 -4 56 -6 49 -85 -7 -81 -8 -83 -23 -73 -8 4 -8 12 -1 26 8
14 7 19 -2 19 -9 0 -9 3 2 10 13 8 13 10 -2 10 -11 0 -15 6 -11 20 6 24 -22
39 -40 21 -9 -9 -9 -16 1 -31 6 -11 12 -27 12 -35 0 -9 11 -27 25 -41 17 -17
24 -32 20 -45 -4 -11 -2 -19 4 -19 6 0 11 9 11 19 0 11 3 26 6 35 5 14 9 14
34 1 24 -12 30 -23 33 -57 l4 -43 1 41 c2 36 6 43 32 54 18 8 30 20 30 31 0
24 -23 25 -41 2 -13 -16 -12 -17 4 -4 20 16 37 7 20 -10 -14 -14 -43 -4 -43
15 0 20 37 62 46 53 5 -4 2 -12 -6 -17 -8 -6 -10 -10 -4 -10 6 0 17 7 24 15
10 12 9 16 -5 21 -10 4 -26 2 -36 -5 -16 -9 -19 -8 -19 4 0 16 5 19 53 29 29
7 35 27 13 45 -10 8 -19 6 -40 -10 l-26 -20 -12 26 c-8 18 -17 25 -30 22 -13
-4 -18 0 -18 14 0 24 5 24 38 0 47 -33 133 -4 102 34 -11 14 -15 14 -36 0 -23
-14 -24 -14 -24 5 0 19 6 20 175 20 96 0 175 3 175 8 0 4 -264 7 -586 7 -322
0 -588 -3 -591 -7z m355 -33 c-3 -28 -19 -33 -38 -10 -17 21 -5 31 17 14 15
-12 16 -12 10 4 -3 9 -2 17 3 17 5 0 9 -11 8 -25z m72 10 c0 -8 -9 -19 -20
-25 -23 -12 -25 -7 -10 21 13 22 30 25 30 4z m58 -34 c17 -38 20 -60 15 -102
l-6 -53 -12 34 c-16 44 -54 110 -65 110 -4 0 -10 -9 -13 -20 -3 -13 0 -20 8
-20 8 0 22 -31 36 -75 12 -42 24 -73 26 -71 2 2 -3 28 -11 57 -21 68 -13 76 9
9 16 -49 15 -80 -4 -80 -11 0 -41 73 -41 100 0 11 -4 20 -10 20 -5 0 -10 -2
-10 -4 0 -2 -3 -13 -6 -23 -5 -15 -4 -15 5 -3 9 13 11 12 11 -3 0 -11 -5 -17
-12 -14 -8 2 -12 20 -11 46 1 22 -2 41 -8 41 -5 0 -9 8 -9 18 0 11 14 25 36
35 24 12 34 22 30 32 -3 9 0 15 8 15 7 0 23 -22 34 -49z m124 32 c3 -41 5
-217 2 -208 -2 6 -11 39 -19 75 -11 51 -14 55 -10 20 3 -25 7 -56 10 -70 5
-22 3 -21 -9 5 -18 35 -20 83 -6 119 10 28 4 56 -12 56 -6 0 -9 -34 -6 -89 2
-75 7 -95 26 -121 20 -27 23 -41 20 -93 -3 -54 -1 -62 14 -61 11 1 15 -3 11
-10 -4 -6 -8 -14 -8 -18 0 -5 -4 -8 -10 -7 -5 1 -9 6 -7 12 2 5 -2 13 -8 17
-6 4 -15 38 -20 76 -5 38 -21 102 -35 143 -14 41 -25 96 -25 123 l0 48 45 0
c36 0 45 -4 47 -17z m128 -23 c0 -22 -4 -40 -9 -40 -13 0 -20 25 -14 52 4 18
3 20 -6 8 -6 -8 -11 -10 -11 -4 0 14 10 24 27 24 9 0 13 -13 13 -40z m51 19
l21 -21 -7 21 c-4 12 -2 21 4 21 12 0 14 -20 5 -44 -8 -20 -44 -3 -44 20 0 8
-4 12 -10 9 -5 -3 -10 -1 -10 4 0 17 18 13 41 -10z m-5 -70 c11 -19 15 -70 5
-87 -14 -26 -44 30 -36 68 7 31 19 38 31 19z m-11 -101 c26 -12 29 -17 19 -42
-6 -16 -34 -11 -34 6 0 6 7 7 16 4 9 -3 12 -2 8 5 -3 6 -15 9 -25 6 -14 -4
-19 0 -19 14 0 22 1 23 35 7z"/>
<path d="M403 533 l57 -4 0 -64 0 -64 -57 -4 -58 -3 57 -2 57 -2 4 -57 c2 -32
4 2 5 75 l2 132 -62 -2 -63 -2 58 -3z"/>
<path d="M728 471 l4 -70 -59 -4 -58 -3 57 -2 57 -2 4 -57 c2 -32 4 2 5 75 1
72 -1 132 -5 132 -5 0 -7 -31 -5 -69z"/>
<path d="M998 468 c-2 -40 0 -107 3 -148 4 -59 6 -44 7 73 2 153 -4 200 -10
75z"/>
<path d="M2080 470 l0 -69 -57 -4 -58 -3 63 -2 62 -2 0 75 c0 41 -2 75 -5 75
-3 0 -5 -31 -5 -70z"/>
<path d="M1813 445 c0 -33 2 -45 4 -27 2 18 2 45 0 60 -2 15 -4 0 -4 -33z"/>
<path d="M135 399 c-44 -4 -27 -6 60 -6 117 -1 135 3 45 9 -25 2 -72 0 -105
-3z"/>
<path d="M2354 190 c0 -107 2 -151 3 -97 2 53 2 141 0 195 -1 53 -3 9 -3 -98z"/>
<path d="M460 200 l0 -69 -57 -4 -58 -3 63 -2 62 -2 0 75 c0 41 -2 75 -5 75
-3 0 -5 -31 -5 -70z"/>
<path d="M730 200 l0 -69 -72 -4 -73 -3 78 -2 77 -2 0 75 c0 41 -2 75 -5 75
-3 0 -5 -31 -5 -70z"/>
<path d="M1808 195 c-2 -41 0 -75 5 -75 4 0 7 34 7 75 0 41 -2 75 -4 75 -3 0
-6 -34 -8 -75z"/>
<path d="M2080 200 l0 -69 -57 -4 -58 -3 63 -2 62 -2 0 75 c0 41 -2 75 -5 75
-3 0 -5 -31 -5 -70z"/>
<path d="M1561 236 c-14 -8 -26 -21 -27 -30 -2 -18 11 -22 21 -6 4 6 10 8 15
5 5 -3 14 3 19 14 19 35 12 39 -28 17z"/>
<path d="M1000 185 c-3 -33 -2 -89 1 -125 l6 -65 1 62 2 62 58 4 57 3 -57 2
-57 2 -3 58 -3 57 -5 -60z"/>
<path d="M1270 160 c0 -28 -1 -29 -57 -33 l-58 -3 63 -2 62 -2 0 35 c0 19 -2
35 -5 35 -3 0 -5 -13 -5 -30z"/>
<path d="M135 130 l-60 -7 57 -1 57 -2 4 -62 3 -63 2 73 c1 39 1 71 0 70 -2
-1 -30 -4 -63 -8z"/>
<path d="M1598 123 c17 -2 47 -2 65 0 17 2 3 4 -33 4 -36 0 -50 -2 -32 -4z"/>
<path d="M463 55 c0 -33 2 -45 4 -27 2 18 2 45 0 60 -2 15 -4 0 -4 -33z"/>
<path d="M733 55 c0 -33 2 -45 4 -27 2 18 2 45 0 60 -2 15 -4 0 -4 -33z"/>
<path d="M1273 55 c0 -33 2 -45 4 -27 2 18 2 45 0 60 -2 15 -4 0 -4 -33z"/>
<path d="M1813 55 c0 -33 2 -45 4 -27 2 18 2 45 0 60 -2 15 -4 0 -4 -33z"/>
<path d="M2083 55 c0 -33 2 -45 4 -27 2 18 2 45 0 60 -2 15 -4 0 -4 -33z"/>
</g>
</svg>
