<?xml version="1.0" standalone="no"?>
<!DOCTYPE svg PUBLIC "-//W3C//DTD SVG 20010904//EN"
 "http://www.w3.org/TR/2001/REC-SVG-20010904/DTD/svg10.dtd">
<svg version="1.0" xmlns="http://www.w3.org/2000/svg"
 width="900.000000pt" height="543.000000pt" viewBox="0 0 900.000000 543.000000"
 preserveAspectRatio="xMidYMid meet">
<metadata>
Created by potrace 1.10, written by Peter Selinger 2001-2011
</metadata>
<g transform="translate(0.000000,543.000000) scale(0.100000,-0.100000)"
fill="#000000" stroke="none">
<path d="M1472 5388 c-1 -26 -6 -50 -12 -53 -13 -8 -13 -18 4 -40 13 -18 14
-18 25 4 8 15 9 26 2 34 -5 7 -11 33 -14 57 l-4 45 -1 -47z"/>
<path d="M2492 5388 c-1 -26 -6 -50 -12 -53 -13 -8 -13 -18 4 -40 13 -18 14
-18 25 4 8 15 9 26 2 34 -5 7 -11 33 -14 57 l-4 45 -1 -47z"/>
<path d="M3168 5368 c-3 -35 -3 -67 0 -72 3 -5 5 -75 4 -155 -2 -220 -2 -509
-1 -671 1 -80 -2 -153 -6 -162 -3 -9 -2 -25 4 -36 5 -10 7 -28 4 -40 -3 -12
-2 -48 3 -79 l7 -58 8 40 c7 36 9 70 9 155 1 14 1 93 1 175 0 83 0 158 0 168
0 9 0 87 0 172 0 85 0 163 0 173 -3 237 -3 310 1 318 11 18 -4 134 -17 134 -8
0 -14 -21 -17 -62z"/>
<path d="M3510 5387 c0 -24 -5 -48 -11 -54 -8 -8 -8 -17 1 -32 10 -20 12 -21
33 -4 23 17 23 17 4 36 -15 15 -17 27 -12 58 4 25 3 39 -4 39 -6 0 -11 -19
-11 -43z"/>
<path d="M3863 5392 c2 -21 0 -46 -5 -56 -5 -9 -6 -25 -3 -34 4 -9 7 -82 5
-162 -1 -80 -1 -154 -1 -165 1 -11 1 -40 1 -65 0 -25 3 -70 6 -100 7 -55 7
-55 15 -20 5 19 9 64 9 100 0 36 1 74 1 85 0 11 0 85 -1 165 -1 80 1 153 5
162 3 9 2 26 -5 37 -6 12 -8 36 -4 56 5 29 3 35 -11 35 -15 0 -17 -7 -12 -38z"/>
<path d="M4200 5389 c0 -25 -5 -50 -11 -56 -7 -7 -8 -19 -4 -30 6 -14 8 -171
4 -318 0 -5 4 -32 8 -60 l9 -50 7 50 c4 28 8 55 8 60 -4 151 -2 304 4 317 3 9
2 25 -2 35 -5 10 -10 34 -12 52 -3 52 -11 51 -11 0z"/>
<path d="M4892 5390 c-1 -26 -7 -51 -12 -56 -11 -11 -3 -44 10 -44 17 0 33 30
22 43 -6 7 -12 33 -15 57 l-4 45 -1 -45z"/>
<path d="M6602 5390 c-1 -26 -7 -51 -13 -57 -15 -15 -4 -43 16 -43 20 0 30 26
17 43 -6 7 -12 33 -15 57 l-4 45 -1 -45z"/>
<path d="M8312 5392 c-1 -24 -6 -52 -12 -62 -7 -13 -6 -21 4 -29 18 -15 43 13
28 32 -6 7 -12 33 -15 57 l-4 45 -1 -43z"/>
<path d="M8642 5392 c-1 -24 -6 -52 -12 -62 -7 -13 -5 -21 6 -31 23 -19 41 3
26 33 -6 13 -13 41 -15 63 l-4 40 -1 -43z"/>
<path d="M7610 5335 c-15 -19 3 -47 26 -38 18 7 18 27 0 42 -10 9 -16 8 -26
-4z"/>
<path d="M428 5326 c-16 -12 -16 -14 6 -24 29 -13 52 3 35 25 -14 16 -19 16
-41 -1z"/>
<path d="M771 5326 c-8 -10 -8 -16 3 -25 10 -9 16 -8 26 3 12 15 6 36 -9 36
-5 0 -14 -6 -20 -14z"/>
<path d="M1787 5326 c-9 -22 13 -37 35 -25 15 8 17 13 7 25 -15 18 -35 18 -42
0z"/>
<path d="M2141 5326 c-10 -12 -8 -17 7 -25 25 -13 47 6 31 26 -15 17 -24 16
-38 -1z"/>
<path d="M4541 5326 c-10 -12 -8 -17 7 -25 25 -13 47 6 31 26 -15 17 -24 16
-38 -1z"/>
<path d="M5561 5326 c-9 -10 -8 -16 4 -26 13 -11 19 -11 32 2 16 17 10 38 -11
38 -8 0 -19 -6 -25 -14z"/>
<path d="M5897 5326 c-9 -22 18 -40 33 -22 6 9 9 20 5 26 -9 15 -32 12 -38 -4z"/>
<path d="M6240 5325 l-25 -13 27 -7 c39 -10 64 1 48 20 -15 18 -18 18 -50 0z"/>
<path d="M6921 5326 c-16 -19 2 -30 36 -21 24 6 25 7 7 20 -24 18 -29 18 -43
1z"/>
<path d="M7275 5330 c-4 -6 -63 -11 -138 -12 l-132 -2 137 -5 c75 -4 140 -9
144 -13 4 -4 13 -3 21 3 10 9 10 15 2 25 -14 17 -25 18 -34 4z"/>
<path d="M75 5321 c-9 -16 13 -23 47 -16 22 5 27 9 17 16 -18 12 -56 11 -64 0z"/>
<path d="M1095 5320 c-3 -5 0 -13 9 -16 21 -8 61 -1 61 11 0 14 -62 19 -70 5z"/>
<path d="M2805 5320 c-3 -5 0 -13 9 -16 21 -8 61 -1 61 11 0 14 -62 19 -70 5z"/>
<path d="M5205 5320 c-3 -6 1 -13 9 -16 22 -8 68 4 61 16 -8 13 -62 13 -70 0z"/>
<path d="M7935 5320 c-7 -12 39 -24 61 -16 8 3 12 10 9 16 -8 13 -62 13 -70 0z"/>
<path d="M243 5313 c26 -2 68 -2 95 0 26 2 4 3 -48 3 -52 0 -74 -1 -47 -3z"/>
<path d="M573 5313 c26 -2 68 -2 95 0 26 2 4 3 -48 3 -52 0 -74 -1 -47 -3z"/>
<path d="M908 5313 c28 -2 76 -2 105 0 28 2 5 3 -53 3 -58 0 -81 -1 -52 -3z"/>
<path d="M1248 5313 c28 -2 76 -2 105 0 28 2 5 3 -53 3 -58 0 -81 -1 -52 -3z"/>
<path d="M1578 5313 c28 -2 76 -2 105 0 28 2 5 3 -53 3 -58 0 -81 -1 -52 -3z"/>
<path d="M1933 5313 c32 -2 81 -2 110 0 29 2 3 3 -58 3 -60 0 -84 -1 -52 -3z"/>
<path d="M2283 5313 c26 -2 68 -2 95 0 26 2 4 3 -48 3 -52 0 -74 -1 -47 -3z"/>
<path d="M2613 5313 c26 -2 68 -2 95 0 26 2 4 3 -48 3 -52 0 -74 -1 -47 -3z"/>
<path d="M2958 5313 c28 -2 76 -2 105 0 28 2 5 3 -53 3 -58 0 -81 -1 -52 -3z"/>
<path d="M3303 5313 c26 -2 68 -2 95 0 26 2 4 3 -48 3 -52 0 -74 -1 -47 -3z"/>
<path d="M3648 5313 c34 -2 88 -2 120 0 31 2 3 3 -63 3 -66 0 -92 -1 -57 -3z"/>
<path d="M3993 5313 c26 -2 68 -2 95 0 26 2 4 3 -48 3 -52 0 -74 -1 -47 -3z"/>
<path d="M4333 5313 c32 -2 81 -2 110 0 29 2 3 3 -58 3 -60 0 -84 -1 -52 -3z"/>
<path d="M4663 5313 c26 -2 67 -2 90 0 23 2 2 3 -48 3 -49 0 -68 -1 -42 -3z"/>
<path d="M5038 5313 c23 -2 61 -2 85 0 23 2 4 4 -43 4 -47 0 -66 -2 -42 -4z"/>
<path d="M5358 5313 c28 -2 76 -2 105 0 28 2 5 3 -53 3 -58 0 -81 -1 -52 -3z"/>
<path d="M5673 5313 c9 -2 25 -2 35 0 9 3 1 5 -18 5 -19 0 -27 -2 -17 -5z"/>
<path d="M5773 5313 c15 -2 37 -2 50 0 12 2 0 4 -28 4 -27 0 -38 -2 -22 -4z"/>
<path d="M6038 5313 c28 -2 76 -2 105 0 28 2 5 3 -53 3 -58 0 -81 -1 -52 -3z"/>
<path d="M6378 5313 c28 -2 76 -2 105 0 28 2 5 3 -53 3 -58 0 -81 -1 -52 -3z"/>
<path d="M6778 5313 c23 -2 59 -2 80 0 20 2 1 4 -43 4 -44 0 -61 -2 -37 -4z"/>
<path d="M7413 5313 c26 -2 68 -2 95 0 26 2 4 3 -48 3 -52 0 -74 -1 -47 -3z"/>
<path d="M7743 5313 c26 -2 68 -2 95 0 26 2 4 3 -48 3 -52 0 -74 -1 -47 -3z"/>
<path d="M8088 5313 c28 -2 76 -2 105 0 28 2 5 3 -53 3 -58 0 -81 -1 -52 -3z"/>
<path d="M8433 5313 c26 -2 68 -2 95 0 26 2 4 3 -48 3 -52 0 -74 -1 -47 -3z"/>
<path d="M8788 5313 c39 -2 105 -2 145 0 39 1 7 3 -73 3 -80 0 -112 -2 -72 -3z"/>
<path d="M1468 5135 c-3 -77 -6 -148 -6 -157 1 -87 2 -318 1 -338 -1 -14 2
-88 6 -165 4 -89 8 -116 10 -75 1 36 4 99 6 140 2 41 3 86 2 100 -1 21 0 278
1 338 0 9 -3 80 -6 157 l-8 140 -6 -140z"/>
<path d="M2488 5135 c-3 -77 -6 -149 -5 -160 1 -27 1 -303 -1 -335 0 -14 2
-88 6 -165 l8 -140 6 140 c4 77 6 151 6 165 -2 40 -3 303 -1 330 1 14 -2 88
-6 165 l-7 140 -6 -140z"/>
<path d="M3511 5150 c0 -79 4 -118 9 -105 5 11 9 58 9 105 0 47 -4 94 -9 105
-5 13 -9 -26 -9 -105z"/>
<path d="M4893 5200 c0 -36 2 -50 4 -32 2 17 2 47 0 65 -2 17 -4 3 -4 -33z"/>
<path d="M6604 5160 c0 -58 1 -81 3 -52 2 28 2 76 0 105 -2 28 -3 5 -3 -53z"/>
<path d="M8314 5150 c0 -63 1 -89 3 -57 2 31 2 83 0 115 -2 31 -3 5 -3 -58z"/>
<path d="M8644 5145 c0 -66 1 -92 3 -57 2 34 2 88 0 120 -2 31 -3 3 -3 -63z"/>
<path d="M784 5155 c0 -49 1 -71 3 -48 2 23 2 64 0 90 -2 26 -3 8 -3 -42z"/>
<path d="M5584 5140 c0 -58 1 -81 3 -52 2 28 2 76 0 105 -2 28 -3 5 -3 -53z"/>
<path d="M7624 5140 c0 -58 1 -81 3 -52 2 28 2 76 0 105 -2 28 -3 5 -3 -53z"/>
<path d="M4842 5015 c-26 -30 -28 -66 -6 -100 14 -21 14 -27 1 -57 -8 -18 -18
-45 -21 -60 -5 -24 -12 -28 -39 -28 -17 0 -49 -3 -69 -6 -36 -6 -38 -5 -38 20
0 37 17 66 39 66 24 0 45 50 36 89 -11 53 -77 78 -122 46 -35 -25 -39 -69 -9
-119 25 -43 34 -100 18 -110 -4 -2 -26 22 -47 55 -87 131 -195 143 -284 31
-47 -60 -65 -129 -59 -233 3 -49 10 -95 15 -101 6 -7 13 -26 17 -43 11 -46 92
-160 139 -197 23 -18 48 -38 55 -45 7 -7 18 -13 23 -13 5 0 19 -9 31 -19 19
-18 19 -21 4 -36 -9 -9 -16 -25 -16 -35 0 -10 -7 -31 -15 -46 -8 -16 -15 -38
-15 -49 0 -12 -5 -26 -10 -31 -6 -6 -13 -34 -17 -63 -4 -37 -14 -60 -33 -81
-16 -17 -31 -30 -34 -30 -10 0 -7 38 4 45 19 12 10 79 -21 142 -18 38 -68 105
-122 166 -157 176 -267 315 -267 335 0 6 -7 12 -15 16 -8 3 -15 14 -15 25 0
11 -4 22 -9 25 -4 3 -19 33 -31 66 -23 62 -46 77 -55 38 -12 -53 24 -337 49
-383 9 -16 16 -40 16 -52 0 -12 5 -25 10 -28 6 -3 10 -14 10 -23 1 -20 54
-129 94 -192 16 -25 56 -73 90 -106 34 -34 80 -84 103 -110 23 -27 58 -67 78
-89 20 -22 48 -58 62 -80 25 -38 26 -42 13 -100 -6 -33 -14 -141 -16 -240 -1
-99 -3 -183 -4 -187 0 -10 -268 -9 -275 1 -2 5 7 19 20 31 14 13 25 30 25 37
0 8 6 16 14 19 8 3 16 19 20 35 3 17 13 37 21 45 9 10 15 34 15 63 0 26 4 51
9 57 5 5 11 67 15 137 5 110 3 129 -10 134 -17 6 -43 -25 -84 -102 -6 -11 -19
-33 -30 -50 -11 -16 -24 -41 -30 -55 -5 -14 -15 -33 -20 -42 -6 -10 -10 -31
-10 -48 0 -16 -10 -48 -22 -71 -21 -41 -22 -42 -31 -18 -5 13 -16 38 -23 56
-8 17 -14 34 -14 39 0 4 -14 37 -31 73 -17 36 -35 77 -41 91 -6 14 -14 32 -19
40 -5 8 -14 27 -20 43 -6 15 -15 27 -20 27 -5 0 -9 6 -9 13 0 8 -13 33 -30 55
-34 48 -36 57 -15 78 8 9 15 26 15 39 0 13 4 26 9 29 5 3 12 30 15 59 4 30 20
80 36 113 35 70 37 100 9 161 -31 68 -68 97 -134 106 -22 3 -52 8 -67 12 -21
6 -32 2 -51 -19 -14 -15 -35 -26 -49 -26 -14 0 -31 -7 -38 -15 -7 -8 -27 -15
-45 -15 -25 0 -39 -8 -59 -32 -14 -18 -31 -37 -37 -43 -6 -5 -26 -25 -43 -42
-18 -18 -37 -33 -42 -33 -25 0 -54 -47 -54 -86 0 -22 -7 -49 -15 -60 -16 -22
-20 -64 -5 -64 6 0 10 -7 10 -15 0 -21 45 -62 95 -88 29 -15 57 -20 105 -19
36 0 90 -6 121 -14 31 -7 84 -14 117 -14 l60 0 56 -94 c31 -52 56 -99 56 -104
0 -6 5 -12 11 -14 6 -2 9 -14 7 -26 -3 -21 -5 -21 -43 14 -22 20 -52 41 -67
46 -16 6 -28 14 -28 19 0 5 -5 9 -11 9 -10 0 -89 33 -120 50 -9 5 -33 12 -53
15 -20 4 -39 11 -42 16 -3 5 -22 9 -43 9 -20 0 -43 6 -49 12 -7 7 -36 18 -65
24 -28 7 -62 15 -74 19 -20 6 -23 4 -23 -17 0 -37 221 -245 300 -281 8 -4 35
-18 59 -32 24 -14 50 -25 57 -25 25 0 25 -20 0 -30 -21 -8 -26 -16 -26 -44 0
-18 7 -39 15 -46 16 -13 21 -80 6 -80 -5 0 -25 20 -45 44 -32 39 -36 51 -36
99 0 61 -19 87 -62 87 -34 0 -58 -29 -58 -72 0 -28 5 -37 25 -46 14 -7 31 -12
38 -12 7 0 21 -16 31 -35 11 -19 39 -54 62 -77 24 -24 44 -46 44 -50 0 -5 -58
-8 -130 -8 -136 0 -152 6 -112 42 43 39 53 62 46 103 -8 47 -27 64 -71 65 -26
0 -37 -7 -58 -37 -14 -22 -25 -52 -25 -71 0 -51 -16 -72 -54 -72 -21 0 -36 6
-40 15 -4 11 -20 15 -56 15 -45 0 -54 -4 -78 -31 l-26 -32 -107 6 c-87 5 -109
4 -119 -8 -10 -12 -10 -18 1 -31 10 -12 24 -14 63 -10 28 3 157 6 286 7 182 0
842 1 930 0 8 0 386 0 840 1 727 0 1144 -2 1290 -6 42 -1 45 1 45 24 l0 25
-130 0 c-77 0 -132 4 -135 10 -3 6 17 12 47 15 40 4 56 11 72 32 28 35 26 62
-4 82 -34 23 -22 38 29 35 60 -3 64 -1 82 26 21 33 11 79 -22 94 -42 19 -18
32 44 25 53 -5 59 -4 80 20 33 39 29 76 -11 104 -35 23 -62 28 -71 13 -3 -4
-19 -11 -36 -15 -48 -9 -26 -29 25 -24 46 6 75 -5 75 -27 0 -22 -33 -35 -87
-35 -43 0 -52 -4 -71 -29 -13 -17 -33 -31 -49 -33 -14 -2 -28 -9 -31 -15 -4
-15 59 -18 73 -4 6 6 19 3 35 -9 20 -16 23 -22 14 -37 -9 -14 -27 -19 -78 -21
-62 -3 -67 -5 -81 -32 -11 -21 -23 -30 -40 -30 -13 0 -28 -8 -34 -17 -7 -14
-13 -15 -22 -6 -9 9 -8 15 2 28 36 43 50 55 67 55 23 1 59 50 43 59 -26 16 28
91 66 91 28 0 53 36 53 75 0 22 9 38 31 58 27 23 37 26 68 21 20 -4 43 -13 52
-20 21 -19 74 -18 104 2 20 13 25 25 25 55 0 35 -4 41 -35 56 -42 20 -45 38
-7 51 37 13 92 68 92 92 0 20 -63 90 -81 90 -5 0 -23 -6 -38 -14 -29 -15 -91
-126 -91 -163 0 -11 -11 -30 -25 -43 -20 -19 -28 -21 -37 -12 -10 10 -10 17 0
32 17 28 15 86 -4 105 -44 43 -143 -15 -115 -67 26 -49 39 -70 60 -94 11 -13
21 -32 21 -42 0 -17 -59 -92 -73 -92 -4 0 -7 33 -7 73 0 58 -4 77 -17 89 -45
39 -91 30 -119 -24 -15 -28 -15 -33 3 -67 10 -20 24 -40 31 -44 6 -4 12 -14
12 -22 0 -8 9 -19 20 -25 33 -18 25 -60 -20 -107 -37 -37 -43 -40 -65 -29 -14
6 -25 17 -25 24 0 8 -7 26 -16 42 -20 33 -12 80 13 80 10 0 27 -12 40 -27 l22
-28 1 32 c0 22 -8 37 -26 52 -33 26 -45 26 -75 2 -19 -15 -24 -28 -23 -65 0
-25 8 -54 16 -64 8 -9 18 -25 21 -34 4 -10 10 -18 15 -18 5 0 17 -16 28 -36
18 -33 18 -36 2 -45 -10 -6 -18 -16 -18 -24 0 -20 -21 -30 -31 -14 -5 8 -9 30
-9 50 0 47 -37 103 -70 106 -39 4 -75 -32 -75 -76 0 -20 6 -44 12 -51 50 -60
73 -83 79 -77 9 8 -26 79 -43 90 -40 25 10 79 52 57 30 -16 43 -115 19 -141
-9 -10 -15 -26 -14 -36 7 -63 -40 -85 -51 -23 -10 59 -19 75 -50 89 -72 32
-128 -45 -79 -111 12 -16 19 -32 16 -36 -10 -10 -351 -12 -366 -2 -12 7 -7 11
17 16 18 3 38 13 44 20 6 8 17 14 24 14 7 0 15 7 19 15 3 9 18 15 38 15 42 1
76 29 85 70 5 26 1 36 -20 56 -32 29 -66 31 -95 4 -18 -17 -21 -28 -16 -60 6
-35 3 -42 -27 -69 -18 -17 -39 -31 -46 -31 -25 0 -14 48 17 73 36 30 36 36 9
66 -17 18 -28 22 -55 16 -20 -3 -34 -2 -34 4 0 6 21 45 46 87 l47 76 41 -7
c55 -9 61 -9 137 6 61 12 67 11 95 -9 24 -17 38 -20 77 -15 44 5 48 8 43 28
-4 17 -1 24 14 28 23 6 30 0 30 -25 0 -24 17 -23 31 3 9 18 7 25 -9 41 -30 31
-71 26 -101 -11 -26 -32 -54 -40 -67 -20 -10 17 63 79 94 79 34 1 82 42 82 71
0 28 -47 79 -73 79 -10 0 -32 -14 -49 -30 -26 -27 -29 -35 -23 -66 5 -30 2
-41 -16 -60 -12 -13 -27 -24 -32 -24 -6 0 -18 -7 -28 -16 -22 -20 -49 -12 -49
15 0 13 12 27 30 36 24 13 30 22 30 49 0 32 -24 66 -47 66 -20 0 -65 -62 -57
-79 9 -20 6 -83 -4 -93 -12 -12 -86 -19 -101 -10 -16 11 -3 40 35 81 13 14 24
31 24 36 0 6 28 42 62 81 117 129 123 134 162 134 74 0 99 66 45 119 -35 36
-39 36 -80 16 -33 -18 -51 -52 -42 -85 4 -16 -3 -30 -28 -54 -43 -41 -78 -81
-109 -125 -14 -19 -35 -47 -48 -62 -13 -15 -33 -44 -44 -65 -11 -22 -24 -41
-27 -44 -4 -3 -18 -23 -31 -45 -13 -22 -26 -42 -29 -45 -4 -3 -17 -27 -30 -55
-13 -27 -25 -51 -27 -53 -6 -8 -44 20 -44 33 0 8 -4 15 -9 15 -14 0 -22 49
-12 69 6 10 22 22 36 25 14 4 25 11 25 16 0 6 8 10 18 10 17 0 62 34 62 46 0
20 -36 54 -57 54 -45 0 -63 -17 -63 -61 0 -38 -2 -40 -27 -37 -25 3 -28 7 -25
36 3 40 29 79 59 86 14 4 24 17 28 37 6 25 2 36 -21 60 -36 38 -75 38 -109 2
-26 -29 -34 -78 -13 -85 6 -2 15 -33 19 -69 4 -35 10 -83 14 -106 6 -34 5 -43
-7 -43 -24 0 -38 22 -38 60 0 38 -32 80 -61 80 -21 -1 -55 -32 -61 -58 -8 -29
22 -62 55 -62 12 0 35 -14 51 -30 16 -17 38 -30 48 -30 26 0 58 -18 58 -33 1
-7 11 -25 24 -41 l24 -29 -23 -46 c-25 -49 -49 -104 -59 -133 -6 -21 -65 -25
-97 -8 -32 18 -26 84 11 122 43 42 52 62 41 91 -10 26 -47 57 -67 57 -7 0 -26
-12 -43 -26 -36 -30 -40 -66 -11 -91 16 -14 20 -30 20 -75 0 -65 -14 -82 -42
-48 -13 16 -17 32 -13 51 5 20 1 33 -14 48 -39 39 -91 17 -91 -38 0 -34 12
-45 68 -63 71 -22 43 -33 -93 -36 -136 -3 -167 5 -127 34 49 34 172 231 172
274 0 11 4 20 9 20 5 0 12 19 16 43 4 23 10 47 14 52 20 32 60 427 46 463 -2
6 -13 12 -24 12 -15 0 -23 -10 -30 -37 -6 -21 -11 -41 -11 -45 0 -18 -71 -158
-80 -158 -6 0 -10 -6 -10 -14 0 -8 -6 -21 -13 -28 -7 -7 -24 -31 -37 -53 -13
-22 -29 -45 -35 -51 -5 -6 -17 -22 -25 -34 -19 -29 -80 -106 -114 -144 -14
-16 -26 -32 -26 -35 0 -3 -14 -22 -30 -41 -51 -60 -80 -111 -80 -140 0 -22
-16 -35 -25 -20 -3 5 -3 54 1 108 l7 98 49 55 c51 56 128 164 128 178 0 4 11
29 24 54 14 25 28 62 32 82 3 19 9 35 13 35 4 0 12 21 19 47 11 39 11 49 -2
61 -13 13 -18 13 -40 -1 -45 -30 -111 -103 -134 -150 -13 -26 -27 -49 -33 -52
-12 -8 -12 -55 1 -55 6 0 14 8 17 18 6 16 29 50 63 96 29 38 59 66 72 66 9 0
9 -3 0 -12 -7 -7 -12 -19 -12 -28 0 -21 -107 -234 -140 -277 -13 -18 -27 -33
-32 -33 -13 0 -9 48 7 87 19 46 19 62 -2 85 -14 16 -15 24 -4 66 7 26 15 67
18 92 3 25 11 52 18 60 7 8 15 32 19 52 4 20 13 50 21 65 8 15 15 39 15 53 0
14 7 34 15 44 8 11 15 30 15 43 0 39 38 49 93 24 58 -26 221 -30 253 -6 10 8
28 15 40 15 11 0 29 7 40 15 10 8 25 15 31 15 11 0 81 46 139 90 34 26 94 108
94 127 0 11 5 24 12 31 18 18 -9 86 -49 122 -18 17 -55 38 -82 47 -45 14 -52
14 -82 -1 -39 -20 -39 -20 -39 -1 0 8 5 15 10 15 6 0 10 6 10 14 0 8 21 21 50
31 86 28 102 77 44 131 -42 40 -59 42 -97 11 -30 -24 -36 -50 -23 -103 6 -26
2 -37 -19 -63 -28 -33 -45 -33 -45 0 0 27 -49 97 -74 105 -15 5 -17 13 -13 47
3 23 11 43 16 45 6 2 11 12 11 23 0 12 9 21 28 25 44 11 72 43 72 83 -1 74
-91 110 -138 56z m93 -45 c13 -40 -31 -65 -61 -36 -17 18 -18 28 -2 44 19 19
56 14 63 -8z m-247 -29 c8 -4 12 -19 10 -32 -2 -18 -10 -25 -30 -27 -25 -3
-28 0 -28 26 0 41 17 53 48 33z m-181 -106 c26 -22 48 -53 59 -83 10 -26 23
-54 31 -63 7 -9 13 -39 13 -68 0 -50 -1 -53 -35 -67 -45 -18 -42 -19 -50 18
-4 18 -29 53 -62 86 l-54 55 -59 -6 c-68 -6 -71 -2 -40 59 54 107 124 132 197
69z m587 -81 c21 -8 20 -41 -1 -52 -25 -13 -63 3 -63 26 0 31 25 41 64 26z
m-307 -39 c3 -9 -2 -24 -10 -33 -9 -10 -19 -36 -23 -59 -7 -46 -21 -54 -71
-41 -31 8 -33 11 -33 56 0 70 19 92 81 92 35 0 51 -4 56 -15z m98 -66 c33 -64
32 -77 -11 -115 -32 -27 -40 -29 -60 -20 -33 15 -37 34 -20 99 29 111 50 119
91 36z m-473 -5 c20 -15 40 -35 43 -45 4 -11 10 -19 16 -19 5 0 12 -18 15 -41
8 -50 43 -72 71 -47 22 19 89 48 112 48 30 0 98 -38 125 -70 17 -21 26 -43 26
-67 0 -64 45 -90 100 -58 14 8 43 14 66 15 46 0 124 -34 124 -55 0 -16 -46
-55 -66 -55 -7 0 -14 -3 -16 -7 -6 -15 -70 -43 -97 -43 -14 0 -37 -7 -49 -16
-27 -18 -152 -15 -243 7 -186 45 -363 276 -351 457 2 19 8 22 44 22 29 0 54
-8 80 -26z m754 -116 c50 -35 58 -85 22 -148 -23 -41 -51 -51 -65 -26 -4 8
-27 24 -51 36 -35 19 -53 22 -98 17 -31 -3 -62 -11 -70 -18 -19 -15 -39 3 -49
43 -8 32 24 68 90 98 60 29 178 27 221 -2z m-1190 -80 c4 -6 0 -16 -9 -23 -21
-15 -22 -58 -2 -75 8 -7 15 -18 15 -25 0 -16 30 -73 48 -93 6 -7 12 -18 12
-23 0 -10 20 -34 110 -134 102 -114 118 -132 154 -183 20 -29 36 -58 36 -66 0
-8 4 -17 9 -21 11 -6 41 -104 41 -132 -1 -20 -20 0 -95 98 -22 28 -67 79 -99
113 -71 73 -156 183 -156 202 0 8 -4 14 -9 14 -5 0 -12 14 -16 30 -4 17 -11
30 -16 30 -5 0 -9 6 -9 13 -1 6 -9 30 -20 52 -11 22 -19 52 -20 66 0 15 -7 32
-15 39 -20 17 -19 76 3 105 19 27 28 30 38 13z m31 -45 c11 -30 101 -144 186
-237 95 -103 147 -172 147 -197 0 -9 7 -22 16 -29 16 -14 16 -60 -1 -61 -5 0
-12 8 -15 18 -10 36 -61 104 -141 187 -74 77 -95 103 -137 163 -16 23 -38 62
-51 90 -5 11 -15 24 -20 28 -14 8 -14 55 -1 55 6 0 14 -8 17 -17z m-342 -173
c0 -22 -39 -19 -43 3 -3 15 1 18 20 15 12 -2 23 -10 23 -18z m104 -10 c10 -5
26 -33 36 -62 14 -44 15 -59 5 -93 -21 -71 -29 -85 -49 -85 -28 0 -38 19 -44
83 -3 32 -10 64 -15 70 -5 7 -13 26 -16 43 -6 25 -3 32 16 42 29 14 45 14 67
2z m-162 -35 c39 -41 73 -125 73 -184 0 -30 -5 -42 -24 -54 -22 -15 -25 -15
-40 6 -57 75 -105 170 -106 205 0 21 31 62 48 62 8 0 30 -16 49 -35z m-135
-39 c2 -16 -2 -31 -9 -33 -18 -6 -32 29 -22 56 11 29 26 18 31 -23z m-6 -89
c86 -96 119 -137 119 -147 0 -6 -12 -19 -27 -28 -25 -15 -29 -15 -64 4 -20 10
-61 41 -90 68 -47 41 -54 53 -54 85 0 76 57 84 116 18z m-146 -52 c0 -18 -5
-25 -19 -25 -26 0 -36 17 -21 35 19 23 40 18 40 -10z m23 -77 c18 -13 34 -26
37 -29 9 -11 84 -49 97 -49 19 0 16 -41 -4 -56 -42 -32 -162 -3 -197 48 -20
29 -20 72 0 92 20 21 29 20 67 -6z m418 10 c2 -24 -3 -53 -11 -63 -5 -5 -11
-27 -15 -48 -6 -30 -15 -41 -44 -56 -24 -12 -44 -15 -61 -10 -14 4 -42 7 -62
8 -65 2 -62 29 11 81 66 48 81 57 121 80 41 22 60 25 61 8z m1969 -33 c10 -12
10 -18 0 -30 -17 -21 -54 -15 -58 9 -7 32 36 48 58 21z m708 -71 c4 -27 -79
-99 -103 -90 -19 7 -19 25 0 32 8 4 15 11 15 18 0 6 10 24 22 39 26 33 61 33
66 1z m-238 -53 c5 -11 10 -36 10 -56 0 -51 -28 -43 -49 13 -14 38 -14 44 -1
52 22 14 28 12 40 -9z m-1290 -69 c0 -9 -5 -24 -10 -32 -7 -11 -10 -5 -10 23
0 23 4 36 10 32 6 -3 10 -14 10 -23z m-60 -17 c0 -12 -7 -25 -15 -29 -8 -3
-15 -14 -15 -24 0 -10 -7 -27 -15 -38 -8 -10 -15 -24 -15 -31 0 -7 -13 -32
-30 -56 -16 -25 -30 -48 -30 -51 0 -13 -51 -80 -130 -172 -60 -70 -106 -134
-114 -162 -4 -12 -12 -22 -17 -22 -5 0 -9 -7 -9 -16 0 -9 -7 -14 -17 -12 -13
3 -17 12 -15 33 2 16 8 35 13 41 5 6 20 32 34 58 14 26 29 52 35 59 5 7 38 46
72 89 110 133 193 249 209 291 6 15 15 27 19 27 4 0 11 11 14 25 8 31 26 24
26 -10z m1514 9 c9 -3 16 -13 16 -21 0 -9 8 -22 18 -29 13 -10 15 -17 6 -31
-15 -24 -39 -28 -86 -12 -56 18 -47 48 15 49 21 1 21 1 3 15 -29 22 -8 43 28
29z m-1170 -23 c14 -15 15 -24 6 -40 -14 -27 -36 -27 -50 -1 -8 14 -8 26 0 40
13 25 22 25 44 1z m-314 -61 c0 -28 -7 -67 -15 -87 -8 -19 -15 -42 -15 -50 0
-15 -13 -47 -51 -129 -10 -23 -19 -46 -19 -53 0 -6 -4 -11 -9 -11 -5 0 -13
-10 -18 -23 -15 -41 -117 -176 -138 -181 -11 -3 -41 -6 -67 -6 -35 0 -48 4
-48 14 0 8 3 16 8 18 4 2 20 22 36 46 16 23 44 59 63 79 89 94 213 279 213
318 0 7 7 18 15 25 8 7 15 27 15 45 0 17 3 35 7 38 16 17 23 3 23 -43z m1194
28 c11 -53 15 -100 9 -114 -8 -20 -33 -17 -33 4 0 10 -5 23 -10 28 -17 17 -28
69 -18 87 13 25 47 21 52 -5z m-278 -13 c6 -16 -12 -45 -27 -45 -12 0 -31 39
-24 50 10 15 45 12 51 -5z m-2400 -45 c13 0 24 -4 24 -9 0 -5 10 -13 23 -17
12 -3 29 -12 37 -19 8 -7 45 -29 82 -48 37 -20 75 -40 85 -46 10 -5 25 -12 33
-15 8 -4 35 -17 59 -31 24 -14 50 -25 57 -25 19 0 67 -47 55 -55 -6 -3 -24 1
-40 10 -17 8 -44 15 -61 15 -32 0 -46 6 -155 69 -74 43 -204 138 -226 165 -10
12 -14 25 -11 31 4 5 8 2 10 -7 2 -11 13 -18 28 -18z m88 15 c3 -9 18 -15 34
-15 16 0 35 -7 42 -15 7 -8 19 -15 28 -15 16 0 135 -58 187 -91 17 -10 37 -22
45 -26 25 -11 60 -53 59 -71 0 -10 -3 -12 -6 -4 -2 6 -13 12 -23 12 -10 0 -22
5 -25 11 -4 5 -17 15 -28 20 -12 5 -35 18 -52 29 -16 11 -37 22 -45 26 -8 3
-22 9 -30 14 -48 28 -158 80 -169 80 -6 0 -14 7 -17 15 -4 8 -14 15 -24 15
-20 0 -33 13 -23 24 12 11 41 6 47 -9z m2116 0 c0 -8 -7 -15 -15 -15 -8 0 -15
7 -15 15 0 8 7 15 15 15 8 0 15 -7 15 -15z m-300 -65 c0 -5 -10 -12 -21 -15
-23 -8 -46 14 -27 26 13 8 48 0 48 -11z m-1126 -81 c10 -26 13 -46 8 -56 -7
-12 -11 -8 -16 20 -4 19 -13 40 -21 47 -8 7 -12 16 -9 21 11 18 22 8 38 -32z
m881 22 c0 -8 -4 -16 -10 -18 -16 -5 -38 14 -30 26 9 16 40 9 40 -8z m-925
-65 c0 -18 -7 -39 -15 -46 -8 -7 -15 -29 -15 -50 0 -21 -7 -43 -15 -50 -17
-14 -21 -90 -5 -90 6 0 10 -10 10 -22 l0 -21 -25 23 c-29 27 -34 88 -10 130 8
14 14 36 15 48 0 13 6 36 14 50 8 15 17 35 20 45 9 29 26 19 26 -17z m28 -99
c2 -36 -1 -49 -12 -53 -10 -4 -16 -19 -16 -40 0 -24 -5 -34 -15 -34 -10 0 -15
11 -15 35 0 24 5 35 15 35 12 0 15 13 15 56 0 70 23 71 28 1z m-630 1 c-3 -25
-34 -36 -50 -20 -17 17 -1 42 27 42 22 0 26 -4 23 -22z m246 -13 c17 -9 56
-15 97 -15 58 0 71 -3 75 -17 3 -10 10 -25 15 -33 5 -8 11 -19 13 -25 1 -5 9
-26 16 -45 7 -19 14 -47 17 -62 l5 -27 -148 0 c-81 0 -155 4 -166 10 -28 15
-26 118 3 143 16 13 20 25 16 46 -9 43 7 51 57 25z m1284 -29 c4 -36 -8 -48
-32 -31 -13 10 -17 21 -12 40 9 36 40 30 44 -9z m-1378 -1 c0 -8 -7 -15 -15
-15 -8 0 -15 7 -15 15 0 8 7 15 15 15 8 0 15 -7 15 -15z m1815 -19 c19 -14 19
-15 1 -35 -11 -12 -23 -21 -28 -21 -15 0 -27 44 -16 58 13 15 20 15 43 -2z
m-2089 -22 c5 -19 -1 -37 -25 -70 -17 -25 -31 -49 -31 -55 0 -6 -6 -9 -12 -7
-7 3 -14 25 -16 51 -2 36 2 55 18 77 27 38 57 39 66 4z m1864 1 c0 -8 7 -18
16 -23 11 -6 14 -21 12 -53 l-3 -44 -48 -9 c-26 -4 -51 -6 -54 -2 -4 3 6 30
20 59 15 29 27 59 27 68 0 9 3 19 6 22 10 9 24 -2 24 -18z m71 14 c20 -10 20
-11 2 -24 -25 -20 -43 -18 -43 3 0 32 11 37 41 21z m741 -41 c14 -20 14 -25 1
-45 -13 -19 -24 -23 -70 -23 -46 0 -60 -5 -94 -32 -28 -23 -42 -29 -50 -21
-17 17 7 53 36 53 16 0 30 10 42 30 13 22 25 30 45 30 16 0 31 7 34 15 9 22
39 18 56 -7z m-1176 -45 c-7 -17 -8 -17 -17 0 -12 21 -2 44 13 29 6 -6 8 -19
4 -29z m856 25 c19 -16 33 -94 17 -103 -36 -23 -101 55 -79 96 12 22 39 25 62
7z m-2567 -93 c0 -11 -79 -19 -102 -11 -8 3 -11 11 -8 16 8 14 110 9 110 -5z"/>
<path d="M3501 5003 c-6 -13 -6 -24 0 -34 6 -8 9 -88 8 -189 -3 -293 1 -409
12 -380 6 14 10 66 9 115 -1 50 -1 101 0 115 0 14 -1 92 -2 174 -2 104 1 154
9 166 10 14 9 21 -7 35 -17 16 -19 16 -29 -2z"/>
<path d="M8301 5002 c-9 -16 -9 -27 -1 -43 8 -13 10 -71 7 -172 -6 -183 -7
-145 2 -307 l7 -135 6 135 c3 74 6 144 5 155 -4 85 0 323 6 335 4 9 2 24 -6
35 -14 18 -15 18 -26 -3z"/>
<path d="M8632 5004 c-7 -13 -7 -25 -1 -35 6 -8 9 -88 8 -184 -1 -93 0 -231 2
-305 l3 -135 7 135 c4 74 7 143 7 153 -4 149 -1 325 5 337 4 9 2 24 -6 35 -14
18 -15 18 -25 -1z"/>
<path d="M436 4997 c-16 -12 -16 -14 3 -31 19 -17 20 -17 30 2 15 27 -8 47
-33 29z"/>
<path d="M773 4999 c-8 -8 -8 -18 -1 -35 11 -24 11 -24 25 -3 23 32 3 65 -24
38z"/>
<path d="M1795 5000 c-4 -6 -4 -23 0 -37 l6 -26 16 22 c14 20 14 25 0 38 -10
11 -17 12 -22 3z"/>
<path d="M2150 4995 c-11 -13 -11 -19 2 -32 15 -14 17 -13 27 5 15 27 -10 50
-29 27z"/>
<path d="M5570 4996 c-9 -12 -9 -19 3 -36 14 -20 14 -20 25 4 14 31 -8 56 -28
32z"/>
<path d="M5902 4998 c-8 -8 -8 -17 -1 -30 8 -15 13 -17 25 -7 8 6 14 17 14 24
0 18 -25 26 -38 13z"/>
<path d="M6590 4995 c-10 -12 -10 -18 0 -30 9 -11 11 -61 9 -185 -3 -109 0
-170 6 -170 6 0 9 61 6 170 -2 116 1 175 8 184 12 14 5 46 -9 46 -4 0 -13 -7
-20 -15z"/>
<path d="M6921 4996 c-8 -10 -7 -17 4 -26 13 -11 19 -11 32 2 14 15 13 17 -5
27 -15 8 -23 7 -31 -3z"/>
<path d="M7283 5003 c-17 -6 -16 -28 1 -42 12 -10 17 -8 25 7 12 22 -4 43 -26
35z"/>
<path d="M7613 4999 c-8 -8 -8 -18 -1 -35 11 -23 12 -23 25 -5 7 11 10 26 7
35 -7 19 -16 20 -31 5z"/>
<path d="M87 4993 c-14 -13 -6 -23 17 -23 30 0 42 15 20 24 -20 8 -29 8 -37
-1z"/>
<path d="M1107 4994 c-4 -4 -7 -11 -7 -16 0 -13 50 -6 53 7 2 12 -36 19 -46 9z"/>
<path d="M2817 4993 c-11 -10 -8 -20 8 -27 21 -8 45 3 45 20 0 14 -41 20 -53
7z"/>
<path d="M5210 4986 c0 -22 17 -28 41 -15 17 9 19 13 8 20 -22 14 -49 11 -49
-5z"/>
<path d="M6244 4989 c-7 -12 15 -31 31 -26 6 2 11 11 13 20 4 19 -32 24 -44 6z"/>
<path d="M7944 4989 c-3 -6 -1 -15 7 -19 16 -10 52 7 44 21 -8 13 -42 11 -51
-2z"/>
<path d="M784 4805 c0 -60 1 -84 3 -52 2 32 2 81 0 110 -2 29 -3 3 -3 -58z"/>
<path d="M7624 4810 c0 -58 1 -81 3 -52 2 28 2 76 0 105 -2 28 -3 5 -3 -53z"/>
<path d="M5584 4805 c0 -55 1 -76 3 -47 2 29 2 74 0 100 -2 26 -3 2 -3 -53z"/>
<path d="M5572 4655 c-11 -24 -11 -31 2 -43 14 -14 16 -14 22 1 3 9 2 28 -3
43 l-9 26 -12 -27z"/>
<path d="M7612 4652 c-8 -25 -8 -33 4 -43 13 -10 17 -10 25 2 11 18 11 19 -5
48 l-13 24 -11 -31z"/>
<path d="M775 4648 c-9 -35 2 -53 21 -37 18 14 18 20 0 45 -14 18 -15 18 -21
-8z"/>
<path d="M1795 4648 c-9 -35 2 -53 21 -37 18 14 18 20 0 45 -14 18 -15 18 -21
-8z"/>
<path d="M2151 4649 c-11 -30 5 -55 25 -38 10 9 11 16 2 33 -16 31 -17 31 -27
5z"/>
<path d="M5907 4663 c-10 -9 -8 -51 2 -57 17 -11 33 21 21 43 -12 23 -14 24
-23 14z"/>
<path d="M436 4645 c-8 -21 1 -35 20 -35 10 0 14 8 12 22 -4 27 -23 34 -32 13z"/>
<path d="M6249 4641 l-23 -18 22 -7 c25 -8 42 -1 42 19 0 23 -17 26 -41 6z"/>
<path d="M6926 4645 c-9 -26 -7 -35 8 -35 23 0 30 20 14 37 -14 13 -16 13 -22
-2z"/>
<path d="M7280 4645 c-10 -12 -10 -18 0 -30 15 -18 30 -11 30 15 0 26 -15 33
-30 15z"/>
<path d="M84 4639 c-9 -16 10 -31 30 -23 13 5 14 9 5 20 -14 17 -25 18 -35 3z"/>
<path d="M1111 4636 c-15 -18 1 -30 30 -21 16 5 18 10 8 21 -15 18 -23 18 -38
0z"/>
<path d="M2821 4636 c-10 -11 -8 -16 9 -21 24 -8 46 7 36 24 -10 15 -31 14
-45 -3z"/>
<path d="M7945 4640 c-4 -7 -3 -16 3 -22 14 -14 47 -6 47 12 0 18 -40 26 -50
10z"/>
<path d="M5584 4475 c0 -60 1 -84 3 -52 2 32 2 81 0 110 -2 29 -3 3 -3 -58z"/>
<path d="M784 4470 c0 -58 1 -81 3 -52 2 28 2 76 0 105 -2 28 -3 5 -3 -53z"/>
<path d="M6604 4460 c0 -63 1 -89 3 -57 2 31 2 83 0 115 -2 31 -3 5 -3 -58z"/>
<path d="M7624 4470 c0 -58 1 -81 3 -52 2 28 2 76 0 105 -2 28 -3 5 -3 -53z"/>
<path d="M5912 4530 c0 -19 2 -27 5 -17 2 9 2 25 0 35 -3 9 -5 1 -5 -18z"/>
<path d="M5912 4430 c0 -19 2 -27 5 -17 2 9 2 25 0 35 -3 9 -5 1 -5 -18z"/>
<path d="M1460 4311 c-8 -15 -8 -26 -1 -34 6 -8 10 -132 10 -329 0 -266 -2
-318 -15 -329 -13 -10 -12 -14 2 -31 16 -17 18 -17 36 -1 17 15 17 18 2 34
-14 15 -15 40 -11 176 3 87 6 163 5 168 -8 200 -8 292 3 312 11 20 10 26 -3
39 -15 15 -17 14 -28 -5z"/>
<path d="M2481 4311 c-9 -15 -9 -26 -2 -35 6 -7 12 -71 14 -142 l3 -129 2 132
c1 75 6 135 12 138 13 8 13 18 -4 40 -13 18 -14 18 -25 -4z"/>
<path d="M8300 4310 c-15 -28 5 -57 26 -39 18 15 18 33 0 48 -12 10 -17 8 -26
-9z"/>
<path d="M427 4305 l-28 -11 27 -13 c22 -10 30 -9 41 2 22 22 -5 37 -40 22z"/>
<path d="M768 4308 c-12 -33 19 -51 41 -25 8 10 7 17 -1 25 -16 16 -35 15 -40
0z"/>
<path d="M1793 4313 c-18 -7 -16 -30 2 -37 9 -3 24 0 35 6 17 11 17 13 2 25
-18 13 -21 14 -39 6z"/>
<path d="M2138 4306 c-16 -12 -16 -14 6 -24 31 -14 55 0 37 22 -16 19 -21 19
-43 2z"/>
<path d="M5558 4306 c-16 -12 -16 -14 7 -26 32 -17 56 0 35 25 -15 18 -20 18
-42 1z"/>
<path d="M5900 4305 c-22 -27 12 -49 38 -23 8 8 9 15 1 25 -15 17 -24 16 -39
-2z"/>
<path d="M6584 4305 c-3 -8 1 -23 8 -34 15 -21 15 -21 28 3 7 13 9 29 6 35
-10 16 -36 14 -42 -4z"/>
<path d="M6919 4304 c-18 -22 6 -36 37 -22 22 10 22 12 6 24 -22 17 -27 17
-43 -2z"/>
<path d="M7273 4306 c-22 -11 -22 -12 -3 -24 19 -12 50 -7 50 8 0 19 -26 28
-47 16z"/>
<path d="M7607 4313 c-24 -23 12 -55 38 -33 12 10 13 16 4 26 -12 15 -31 18
-42 7z"/>
<path d="M8630 4305 c-10 -12 -10 -18 0 -30 10 -13 15 -12 35 3 20 15 21 18 6
29 -21 16 -26 16 -41 -2z"/>
<path d="M75 4300 c-9 -15 21 -23 52 -15 21 5 24 8 12 16 -19 12 -56 11 -64
-1z"/>
<path d="M1096 4302 c-3 -6 -3 -13 1 -15 5 -2 76 -1 158 3 147 7 148 7 44 8
-58 1 -126 5 -151 8 -28 4 -48 2 -52 -4z"/>
<path d="M2805 4300 c-3 -5 0 -13 9 -16 21 -8 61 -1 61 11 0 14 -62 19 -70 5z"/>
<path d="M6231 4301 c-12 -8 -9 -11 12 -16 31 -8 61 0 52 15 -8 12 -45 13 -64
1z"/>
<path d="M7935 4300 c-3 -5 0 -13 9 -16 21 -8 61 -1 61 11 0 14 -62 19 -70 5z"/>
<path d="M238 4293 c23 -2 59 -2 80 0 20 2 1 4 -43 4 -44 0 -61 -2 -37 -4z"/>
<path d="M573 4293 c26 -2 68 -2 95 0 26 2 4 3 -48 3 -52 0 -74 -1 -47 -3z"/>
<path d="M898 4293 c18 -2 45 -2 60 0 15 2 0 4 -33 4 -33 0 -45 -2 -27 -4z"/>
<path d="M1593 4293 c26 -2 68 -2 95 0 26 2 4 3 -48 3 -52 0 -74 -1 -47 -3z"/>
<path d="M1928 4293 c28 -2 76 -2 105 0 28 2 5 3 -53 3 -58 0 -81 -1 -52 -3z"/>
<path d="M2283 4293 c26 -2 68 -2 95 0 26 2 4 3 -48 3 -52 0 -74 -1 -47 -3z"/>
<path d="M2613 4293 c26 -2 68 -2 95 0 26 2 4 3 -48 3 -52 0 -74 -1 -47 -3z"/>
<path d="M2973 4293 c26 -2 68 -2 95 0 26 2 4 3 -48 3 -52 0 -74 -1 -47 -3z"/>
<path d="M3273 4293 c9 -2 25 -2 35 0 9 3 1 5 -18 5 -19 0 -27 -2 -17 -5z"/>
<path d="M5398 4293 c23 -2 59 -2 80 0 20 2 1 4 -43 4 -44 0 -61 -2 -37 -4z"/>
<path d="M5748 4293 c17 -2 47 -2 65 0 17 2 3 4 -33 4 -36 0 -50 -2 -32 -4z"/>
<path d="M6038 4293 c28 -2 76 -2 105 0 28 2 5 3 -53 3 -58 0 -81 -1 -52 -3z"/>
<path d="M6378 4293 c29 -2 74 -2 100 0 26 2 2 3 -53 3 -55 0 -76 -1 -47 -3z"/>
<path d="M6728 4293 c28 -2 76 -2 105 0 28 2 5 3 -53 3 -58 0 -81 -1 -52 -3z"/>
<path d="M7068 4293 c28 -2 76 -2 105 0 28 2 5 3 -53 3 -58 0 -81 -1 -52 -3z"/>
<path d="M7408 4293 c23 -2 59 -2 80 0 20 2 1 4 -43 4 -44 0 -61 -2 -37 -4z"/>
<path d="M7748 4293 c28 -2 76 -2 105 0 28 2 5 3 -53 3 -58 0 -81 -1 -52 -3z"/>
<path d="M8088 4293 c28 -2 76 -2 105 0 28 2 5 3 -53 3 -58 0 -81 -1 -52 -3z"/>
<path d="M8433 4293 c26 -2 68 -2 95 0 26 2 4 3 -48 3 -52 0 -74 -1 -47 -3z"/>
<path d="M8792 4293 c37 -2 100 -2 140 0 40 1 10 3 -67 3 -77 0 -110 -1 -73
-3z"/>
<path d="M8314 4125 c0 -66 1 -92 3 -57 2 34 2 88 0 120 -2 31 -3 3 -3 -63z"/>
<path d="M8644 4125 c0 -66 1 -92 3 -57 2 34 2 88 0 120 -2 31 -3 3 -3 -63z"/>
<path d="M784 4120 c0 -58 1 -81 3 -52 2 28 2 76 0 105 -2 28 -3 5 -3 -53z"/>
<path d="M7624 4130 c0 -52 1 -74 3 -47 2 26 2 68 0 95 -2 26 -3 4 -3 -48z"/>
<path d="M5583 4145 c0 -38 2 -53 4 -32 2 20 2 52 0 70 -2 17 -4 1 -4 -38z"/>
<path d="M6604 4125 c0 -49 1 -71 3 -48 2 23 2 64 0 90 -2 26 -3 8 -3 -42z"/>
<path d="M7614 3982 c-9 -13 -9 -25 0 -46 l12 -29 12 27 c9 19 9 33 2 47 -13
23 -13 23 -26 1z"/>
<path d="M8305 3984 c-4 -10 -7 -23 -5 -29 2 -5 7 -75 10 -155 l6 -145 2 125
c1 69 6 139 11 157 7 22 5 37 -3 49 -12 16 -13 16 -21 -2z"/>
<path d="M8638 3988 c-3 -7 -2 -85 1 -173 l6 -160 6 165 c6 147 1 207 -13 168z"/>
<path d="M774 3977 c-3 -9 -3 -29 1 -45 l7 -27 15 29 c13 25 13 30 -1 44 -14
14 -16 14 -22 -1z"/>
<path d="M1795 3980 c-9 -15 3 -62 14 -56 5 3 11 15 14 25 6 24 -17 49 -28 31z"/>
<path d="M2150 3976 c-9 -11 -9 -20 0 -37 10 -17 14 -19 21 -8 21 33 2 72 -21
45z"/>
<path d="M2484 3977 c-3 -9 -3 -25 1 -34 6 -16 8 -16 18 5 7 16 7 26 -1 34 -8
8 -13 7 -18 -5z"/>
<path d="M2614 3966 c-21 -18 -28 -32 -28 -60 0 -36 10 -49 69 -93 19 -14 80
-42 99 -45 11 -2 21 -9 24 -15 3 -10 -14 -13 -62 -13 -56 0 -67 -3 -80 -22
-21 -30 -20 -48 8 -82 22 -26 27 -28 74 -21 29 4 53 13 56 21 3 8 15 14 26 14
12 0 29 4 39 10 14 7 23 4 40 -15 11 -14 21 -29 21 -34 0 -5 7 -14 15 -21 9
-7 13 -20 10 -28 -7 -19 3 -52 17 -52 24 0 76 -33 81 -51 3 -10 10 -19 16 -19
18 0 13 25 -9 45 -14 13 -18 25 -14 39 6 18 48 81 83 122 5 6 12 25 16 42 6
27 2 37 -25 63 -25 26 -36 30 -61 25 -47 -9 -68 -42 -69 -106 -1 -82 -11 -89
-49 -30 -35 54 -35 54 9 102 37 41 42 52 47 88 5 33 1 42 -22 64 -35 33 -55
33 -89 1 -26 -24 -27 -29 -21 -85 6 -48 4 -60 -7 -60 -18 0 -48 52 -48 83 0
14 -4 28 -9 32 -5 3 -12 19 -16 35 -9 41 -57 90 -88 90 -14 0 -38 -11 -53 -24z
m87 -48 c11 -11 19 -27 19 -35 0 -7 7 -16 15 -19 8 -4 15 -17 15 -31 0 -28 0
-28 -62 12 -46 30 -62 54 -51 81 8 21 43 17 64 -8z m225 -73 c4 -16 0 -34 -10
-50 -9 -13 -16 -32 -16 -40 0 -9 -6 -15 -12 -13 -8 3 -14 26 -16 53 -3 38 1
52 14 62 25 19 33 16 40 -12z m130 -113 c6 -4 13 -14 16 -22 7 -19 -55 -137
-68 -130 -5 3 -9 33 -9 68 0 51 4 66 19 78 22 16 27 17 42 6z m-256 -31 c0 -5
-12 -19 -26 -30 -27 -21 -58 -26 -88 -15 -16 6 -22 35 -9 47 10 11 123 8 123
-2z"/>
<path d="M5904 3976 c-8 -21 3 -49 16 -41 5 3 10 15 10 25 0 25 -18 36 -26 16z"/>
<path d="M6594 3977 c-7 -20 -2 -47 11 -50 14 -3 19 43 6 56 -7 7 -12 6 -17
-6z"/>
<path d="M7280 3976 c-9 -12 -9 -19 3 -36 14 -20 14 -20 25 4 14 31 -8 56 -28
32z"/>
<path d="M84 3969 c-11 -19 13 -34 31 -19 13 11 13 15 3 21 -18 12 -26 11 -34
-2z"/>
<path d="M436 3971 c-9 -14 5 -42 18 -38 18 6 20 47 2 47 -8 0 -17 -4 -20 -9z"/>
<path d="M1105 3970 c-4 -7 -3 -16 2 -21 12 -12 45 0 40 15 -5 15 -34 19 -42
6z"/>
<path d="M5217 3973 c-13 -12 -7 -23 12 -23 26 0 35 16 15 24 -19 7 -19 7 -27
-1z"/>
<path d="M6925 3970 c-3 -5 -2 -17 3 -26 8 -14 10 -14 21 0 13 15 8 36 -9 36
-5 0 -12 -4 -15 -10z"/>
<path d="M7945 3970 c-7 -11 2 -30 13 -30 4 0 14 5 22 10 13 9 13 11 0 20 -19
12 -27 12 -35 0z"/>
<path d="M7624 3780 c0 -58 1 -81 3 -52 2 28 2 76 0 105 -2 28 -3 5 -3 -53z"/>
<path d="M784 3770 c0 -52 1 -74 3 -47 2 26 2 68 0 95 -2 26 -3 4 -3 -48z"/>
<path d="M2493 3740 c0 -47 2 -66 4 -42 2 23 2 61 0 85 -2 23 -4 4 -4 -43z"/>
<path d="M3873 3775 c0 -22 2 -30 4 -17 2 12 2 30 0 40 -3 9 -5 -1 -4 -23z"/>
<path d="M6603 3740 c0 -36 2 -50 4 -32 2 17 2 47 0 65 -2 17 -4 3 -4 -33z"/>
<path d="M430 3618 c-14 -5 -98 -8 -187 -6 -100 2 -164 -1 -165 -7 -2 -6 67
-10 177 -11 99 0 187 -1 195 -2 8 0 78 3 155 7 l140 7 -128 2 c-71 1 -136 6
-145 11 -10 5 -27 5 -42 -1z"/>
<path d="M771 3621 c-8 -5 -11 -16 -8 -25 7 -18 32 -22 42 -6 3 5 126 9 306 9
166 0 304 2 307 5 6 7 -193 10 -434 6 -117 -1 -174 1 -178 9 -9 13 -16 14 -35
2z"/>
<path d="M1791 3616 c-16 -19 14 -45 31 -28 15 15 309 17 324 2 11 -11 44 -3
44 10 0 4 -7 13 -15 20 -12 10 -19 10 -27 2 -15 -15 -314 -17 -323 -2 -9 14
-20 13 -34 -4z"/>
<path d="M2473 3614 c-3 -8 1 -22 9 -30 13 -13 16 -13 27 -1 14 17 4 47 -15
47 -8 0 -17 -7 -21 -16z"/>
<path d="M6591 3616 c-8 -10 -7 -17 3 -26 17 -13 36 -6 36 15 0 19 -27 26 -39
11z"/>
<path d="M6921 3616 c-16 -19 8 -36 34 -25 31 12 309 11 322 -2 8 -8 17 -8 31
0 11 6 76 12 144 13 l123 2 -130 6 c-71 3 -137 9 -146 13 -10 5 -20 4 -24 -2
-8 -14 -283 -15 -319 -2 -18 7 -27 6 -35 -3z"/>
<path d="M7605 3616 c-18 -13 -18 -14 4 -25 16 -9 26 -9 36 -1 8 7 57 10 134
8 66 -1 123 1 127 5 9 9 -32 11 -157 7 -62 -1 -99 2 -103 9 -9 14 -18 14 -41
-3z"/>
<path d="M8292 3618 c-13 -13 2 -38 23 -38 21 0 36 25 23 38 -7 7 -17 12 -23
12 -6 0 -16 -5 -23 -12z"/>
<path d="M8623 3614 c-10 -25 14 -41 39 -25 17 10 55 12 180 6 146 -7 158 -6
158 10 0 16 -13 17 -164 10 -116 -5 -165 -4 -170 4 -10 16 -36 13 -43 -5z"/>
<path d="M2765 3597 c-48 -51 -49 -55 -29 -92 21 -39 48 -49 109 -39 53 7 63
-5 24 -31 -39 -26 -40 -75 -3 -104 20 -16 35 -19 73 -14 32 4 51 1 56 -6 4 -8
-1 -14 -14 -18 -41 -11 -40 -90 3 -118 19 -13 35 -14 102 -5 43 6 92 12 108
14 18 2 32 10 37 22 4 10 21 35 38 54 36 40 40 45 64 82 25 40 21 61 -18 96
-41 38 -51 39 -89 7 -27 -21 -30 -30 -30 -85 l-1 -60 -28 6 c-26 5 -28 4 -23
-14 9 -26 -13 -40 -29 -19 -7 10 -23 17 -36 17 -18 0 -28 8 -36 30 -11 29 -14
30 -71 30 -42 0 -65 5 -76 16 -21 21 -20 27 7 52 21 20 25 20 43 7 10 -8 31
-15 45 -15 17 0 34 -11 49 -30 13 -16 30 -30 38 -30 9 0 24 -7 34 -17 22 -19
36 -10 18 12 -11 13 -11 20 0 40 7 14 17 25 21 25 13 0 79 108 79 128 0 11 -8
34 -17 51 -15 26 -24 31 -56 31 -56 0 -76 -28 -77 -106 0 -50 -4 -64 -23 -82
-27 -26 -37 -28 -37 -7 0 9 -10 15 -26 15 -14 0 -43 14 -64 30 -31 25 -47 30
-89 30 -56 0 -68 11 -57 55 6 25 39 35 51 15 10 -16 65 -12 65 5 0 9 -9 15
-22 15 -13 0 -32 7 -42 15 -27 20 -47 18 -71 -8z m414 -30 c11 -20 9 -32 -16
-85 -37 -81 -53 -81 -53 1 0 91 40 139 69 84z m114 -165 c15 -16 14 -21 -14
-70 -16 -29 -37 -52 -45 -52 -14 0 -15 9 -9 58 10 81 33 103 68 64z m-248
-132 c3 -5 17 -10 31 -10 25 0 84 -37 84 -52 0 -13 -145 -9 -158 4 -16 16 -15
33 4 52 18 18 30 20 39 6z"/>
<path d="M7932 3612 c-25 -17 8 -19 173 -12 l160 7 -116 1 c-64 1 -136 4 -160
7 -24 3 -50 2 -57 -3z"/>
<path d="M1583 3603 c31 -2 83 -2 115 0 31 2 5 3 -58 3 -63 0 -89 -1 -57 -3z"/>
<path d="M2268 3603 c34 -2 90 -2 125 0 34 2 6 3 -63 3 -69 0 -97 -1 -62 -3z"/>
<path d="M6713 3603 c31 -2 83 -2 115 0 31 2 5 3 -58 3 -63 0 -89 -1 -57 -3z"/>
<path d="M8428 3603 c34 -2 88 -2 120 0 31 2 3 3 -63 3 -66 0 -92 -1 -57 -3z"/>
<path d="M1470 3480 c-3 -47 -3 -101 0 -120 l6 -35 4 35 c3 19 3 73 0 120 l-5
85 -5 -85z"/>
<path d="M2490 3445 c0 -65 2 -116 5 -114 7 7 8 219 1 226 -3 4 -6 -47 -6
-112z"/>
<path d="M8314 3440 c0 -63 1 -89 3 -57 2 31 2 83 0 115 -2 31 -3 5 -3 -58z"/>
<path d="M8644 3440 c0 -63 1 -89 3 -57 2 31 2 83 0 115 -2 31 -3 5 -3 -58z"/>
<path d="M784 3440 c0 -52 1 -74 3 -47 2 26 2 68 0 95 -2 26 -3 4 -3 -48z"/>
<path d="M6603 3470 c0 -36 2 -50 4 -32 2 17 2 47 0 65 -2 17 -4 3 -4 -33z"/>
<path d="M7623 3470 c0 -36 2 -50 4 -32 2 17 2 47 0 65 -2 17 -4 3 -4 -33z"/>
<path d="M8300 3295 c-9 -11 -11 -22 -4 -32 13 -21 25 -21 38 -1 8 14 7 21 -5
33 -14 15 -17 15 -29 0z"/>
<path d="M433 3286 c-22 -11 -22 -12 -3 -24 15 -9 26 -10 40 -2 25 13 25 17 2
29 -11 6 -25 5 -39 -3z"/>
<path d="M767 3293 c-24 -23 12 -55 38 -33 12 10 13 16 4 26 -12 15 -31 18
-42 7z"/>
<path d="M1464 3287 c-8 -21 2 -35 16 -21 5 5 6 15 0 24 -8 12 -10 12 -16 -3z"/>
<path d="M2487 3293 c-4 -3 -7 -12 -7 -20 0 -15 26 -18 34 -4 7 11 -18 33 -27
24z"/>
<path d="M8624 3285 c-4 -8 -1 -22 6 -30 11 -14 15 -14 31 1 14 13 16 20 8 31
-15 17 -38 17 -45 -2z"/>
<path d="M76 3282 c-3 -6 -3 -12 1 -15 5 -2 76 -1 158 3 l150 7 -115 1 c-63 1
-131 5 -151 8 -21 4 -39 2 -43 -4z"/>
<path d="M970 3280 l-135 -5 160 -6 c164 -6 198 -4 173 12 -7 5 -24 8 -38 7
-14 -1 -86 -5 -160 -8z"/>
<path d="M7936 3282 c-3 -6 -3 -13 1 -15 5 -2 80 -1 168 3 l160 7 -116 1 c-64
1 -136 5 -161 8 -28 4 -48 2 -52 -4z"/>
<path d="M558 3273 c34 -2 88 -2 120 0 31 2 3 3 -63 3 -66 0 -92 -1 -57 -3z"/>
<path d="M1243 3273 c31 -2 83 -2 115 0 31 2 5 3 -58 3 -63 0 -89 -1 -57 -3z"/>
<path d="M2598 3273 c29 -2 74 -2 100 0 26 2 2 3 -53 3 -55 0 -76 -1 -47 -3z"/>
<path d="M7778 3273 c23 -2 61 -2 85 0 23 2 4 4 -43 4 -47 0 -66 -2 -42 -4z"/>
<path d="M8423 3273 c31 -2 83 -2 115 0 31 2 5 3 -58 3 -63 0 -89 -1 -57 -3z"/>
<path d="M8725 3270 c46 -12 275 -12 275 0 0 6 -57 10 -152 9 -93 -1 -141 -4
-123 -9z"/>
<path d="M1552 3262 c-9 -7 -12 -42 -10 -143 l3 -134 98 -3 c83 -2 98 0 104
14 10 26 -17 35 -82 28 -69 -7 -87 4 -78 49 5 26 8 27 62 27 65 0 93 12 73 32
-8 8 -34 11 -71 10 -33 -1 -62 2 -65 7 -3 5 -3 23 0 41 l7 31 68 -3 c72 -2 97
8 86 36 -5 13 -24 16 -94 16 -48 0 -94 -4 -101 -8z"/>
<path d="M1896 3245 c-23 -19 -30 -32 -30 -60 0 -44 29 -72 85 -81 68 -12 102
-62 54 -80 -28 -11 -83 6 -90 26 -4 13 -15 20 -31 20 -32 0 -32 -33 1 -65 20
-21 34 -25 80 -25 67 0 90 10 110 50 12 23 13 34 3 55 -12 28 -59 55 -93 55
-13 0 -33 9 -46 19 -20 16 -22 23 -13 38 18 29 62 28 89 -1 13 -14 31 -26 40
-26 25 0 18 44 -13 73 -38 36 -104 37 -146 2z"/>
<path d="M2183 3254 c-8 -22 6 -32 52 -36 l40 -3 0 -109 c0 -89 3 -111 16
-119 9 -6 24 -7 34 -3 16 6 17 17 12 109 -3 57 -2 109 3 116 5 9 18 12 38 8
34 -7 58 12 48 38 -8 23 -234 22 -243 -1z"/>
<path d="M6491 3239 c-34 -33 -40 -66 -15 -76 10 -4 25 5 43 26 28 32 58 40
79 19 27 -27 13 -58 -59 -128 -94 -90 -90 -100 31 -100 72 0 92 3 97 15 8 23
-3 29 -49 28 -23 -1 -45 0 -50 3 -4 3 14 28 42 55 45 44 50 54 50 92 -1 62
-35 97 -94 97 -36 0 -50 -6 -75 -31z"/>
<path d="M6829 3247 c-53 -47 -76 -138 -46 -190 33 -60 59 -77 113 -77 48 0
55 3 83 37 56 67 54 143 -5 211 -31 37 -41 42 -77 42 -29 -1 -50 -8 -68 -23z
m121 -79 l25 -47 -22 -45 c-29 -60 -66 -71 -100 -32 -50 58 -17 181 46 174 19
-2 32 -15 51 -50z"/>
<path d="M7151 3239 c-34 -33 -40 -66 -15 -76 11 -4 24 5 41 26 37 48 93 38
93 -16 0 -16 -23 -46 -71 -92 -94 -91 -91 -101 31 -101 74 0 92 3 97 16 8 22
-16 35 -54 28 -57 -11 -59 5 -4 57 47 44 51 52 51 93 0 62 -33 96 -95 96 -35
0 -49 -6 -74 -31z"/>
<path d="M7574 3247 c-10 -12 -37 -45 -59 -72 -21 -27 -50 -60 -63 -74 -39
-42 -26 -56 53 -56 70 0 70 0 75 -30 4 -24 10 -30 30 -30 20 0 26 6 28 28 2
16 10 31 18 34 20 7 17 31 -4 37 -17 6 -18 15 -14 87 4 62 1 83 -9 90 -22 14
-34 11 -55 -14z m4 -128 c-2 -27 -8 -35 -26 -37 -50 -7 -55 5 -20 47 37 44 51
41 46 -10z"/>
<path d="M8308 3080 c-8 -183 -8 -160 0 -265 l6 -90 8 90 c8 105 8 81 0 265
l-8 145 -6 -145z"/>
<path d="M8642 3085 c-1 -77 -6 -147 -12 -155 -13 -21 8 -44 26 -29 8 6 10 16
6 23 -4 6 -9 76 -13 156 l-5 145 -2 -140z"/>
<path d="M784 3110 c0 -52 1 -74 3 -47 2 26 2 68 0 95 -2 26 -3 4 -3 -48z"/>
<path d="M2493 3135 c0 -33 2 -45 4 -27 2 18 2 45 0 60 -2 15 -4 0 -4 -33z"/>
<path d="M3232 3161 c2 -7 7 -12 11 -12 12 1 9 15 -3 20 -7 2 -11 -2 -8 -8z"/>
<path d="M2537 3024 c-12 -13 -8 -42 8 -48 25 -9 67 12 63 32 -3 17 -57 30
-71 16z"/>
<path d="M772 2936 c-14 -31 8 -56 28 -32 9 12 9 19 -3 36 -14 20 -14 20 -25
-4z"/>
<path d="M440 2935 c-11 -14 -11 -18 2 -31 12 -13 16 -13 26 -1 9 10 9 18 -1
31 -12 16 -14 17 -27 1z"/>
<path d="M2481 2932 c-7 -14 -8 -23 -1 -27 5 -3 11 -39 12 -78 l1 -72 7 85 c8
93 0 128 -19 92z"/>
<path d="M3867 2943 c-8 -16 -7 -201 2 -224 7 -20 9 -13 14 36 12 120 3 222
-16 188z"/>
<path d="M4196 2942 c-6 -10 2 -184 9 -191 3 -2 5 16 6 40 0 24 3 67 5 96 3
47 -7 76 -20 55z"/>
<path d="M1464 2926 c-4 -10 -2 -22 4 -28 8 -8 13 -7 18 6 4 10 2 22 -4 28 -8
8 -13 7 -18 -6z"/>
<path d="M2151 2927 c-9 -11 -8 -17 4 -27 12 -10 16 -9 21 5 9 23 -10 40 -25
22z"/>
<path d="M3178 2933 c-9 -17 -8 -191 1 -214 7 -20 9 -14 14 36 10 104 1 210
-15 178z"/>
<path d="M3503 2924 c-8 -22 15 -44 26 -25 10 16 4 41 -10 41 -5 0 -12 -7 -16
-16z"/>
<path d="M4884 2926 c-4 -10 -2 -22 4 -28 8 -8 13 -7 18 6 4 10 2 22 -4 28 -8
8 -13 7 -18 -6z"/>
<path d="M7951 2930 c-8 -4 -10 -13 -7 -19 9 -13 43 -15 51 -2 8 14 -28 31
-44 21z"/>
<path d="M80 2921 c0 -6 5 -13 10 -16 14 -9 52 4 45 16 -8 12 -55 12 -55 0z"/>
<path d="M1102 2918 c5 -15 48 -18 48 -3 0 6 -11 11 -26 13 -18 3 -25 0 -22
-10z"/>
<path d="M1797 2924 c-8 -8 1 -24 14 -24 5 0 9 7 9 15 0 15 -12 20 -23 9z"/>
<path d="M2815 2920 c-8 -12 20 -24 35 -15 5 3 10 10 10 16 0 12 -37 12 -45
-1z"/>
<path d="M4550 2915 c0 -8 7 -15 15 -15 8 0 15 7 15 15 0 8 -7 15 -15 15 -8 0
-15 -7 -15 -15z"/>
<path d="M5570 2915 c0 -8 7 -15 15 -15 8 0 15 7 15 15 0 8 -7 15 -15 15 -8 0
-15 -7 -15 -15z"/>
<path d="M5906 2922 c-3 -6 -1 -14 5 -17 15 -10 25 3 12 16 -7 7 -13 7 -17 1z"/>
<path d="M6246 2921 c-7 -11 22 -23 35 -15 5 3 9 9 9 15 0 12 -37 12 -44 0z"/>
<path d="M1473 2795 c0 -44 2 -61 4 -37 2 23 2 59 0 80 -2 20 -4 1 -4 -43z"/>
<path d="M3512 2765 c0 -89 2 -102 9 -70 6 24 6 69 0 110 l-8 70 -1 -110z"/>
<path d="M8644 2745 c0 -66 1 -92 3 -57 2 34 2 88 0 120 -2 31 -3 3 -3 -63z"/>
<path d="M5583 2795 c0 -27 2 -38 4 -22 2 15 2 37 0 50 -2 12 -4 0 -4 -28z"/>
<path d="M6603 2755 c0 -33 2 -45 4 -27 2 18 2 45 0 60 -2 15 -4 0 -4 -33z"/>
<path d="M7623 2755 c0 -33 2 -45 4 -27 2 18 2 45 0 60 -2 15 -4 0 -4 -33z"/>
<path d="M710 2618 c-1 -23 -1 -663 0 -676 0 -9 13 -12 43 -10 l42 3 -3 153
-2 153 162 -1 c90 -1 169 -1 176 -1 13 1 17 59 4 77 -5 7 -56 9 -167 4 -113
-5 -162 -4 -168 4 -4 6 -6 58 -5 116 l3 105 197 -4 197 -3 12 25 c8 18 8 30 0
46 -11 21 -17 21 -251 21 -185 0 -240 -3 -240 -12z"/>
<path d="M1359 2623 c-3 -32 2 -677 5 -680 2 -3 112 -5 245 -6 254 -2 251 -3
251 43 0 11 -6 23 -14 27 -8 4 -95 6 -193 3 -191 -5 -210 -4 -215 13 -2 7 -1
138 2 292 3 154 2 288 -3 298 -5 11 -19 17 -42 17 -19 0 -35 -3 -36 -7z"/>
<path d="M2230 2612 c-43 -17 -170 -124 -170 -145 0 -6 -6 -18 -14 -26 -7 -9
-21 -49 -31 -88 -18 -71 -18 -75 0 -145 39 -155 133 -245 288 -279 132 -28
285 39 361 161 43 68 58 125 53 202 -8 139 -74 242 -197 305 -48 24 -68 28
-150 30 -68 1 -108 -3 -140 -15z m250 -87 c9 -8 21 -15 26 -15 17 0 81 -73
103 -117 16 -31 21 -61 21 -115 0 -99 -28 -155 -105 -214 -49 -38 -115 -64
-159 -64 -52 0 -144 39 -186 80 -131 126 -117 314 33 425 20 15 52 31 70 36
48 12 177 2 197 -16z"/>
<path d="M2483 2254 c-3 -8 -1 -20 6 -27 8 -8 11 -4 11 16 0 30 -7 35 -17 11z"/>
<path d="M2803 2598 c4 -28 27 -98 78 -243 6 -16 15 -43 19 -60 30 -101 41
-137 64 -199 14 -38 26 -77 26 -87 0 -32 23 -69 47 -75 46 -12 67 2 81 53 21
80 26 97 67 213 13 37 32 101 60 213 10 37 23 67 29 67 12 0 31 -52 61 -170
10 -36 23 -81 30 -100 34 -93 75 -228 75 -247 0 -13 8 -23 23 -27 62 -17 86
-1 98 67 6 36 30 113 70 222 6 17 15 44 19 60 30 102 42 140 74 229 20 54 33
102 30 107 -3 5 -23 9 -44 9 -42 0 -60 -18 -60 -59 0 -11 -6 -35 -14 -53 -7
-18 -21 -60 -31 -93 -9 -33 -22 -71 -27 -85 -6 -14 -14 -41 -19 -60 -30 -129
-54 -193 -71 -188 -6 2 -21 45 -33 96 -26 105 -71 252 -91 300 -8 18 -14 41
-14 52 0 11 -8 35 -17 55 -15 31 -21 35 -54 35 -45 0 -54 -11 -73 -81 -7 -30
-18 -65 -24 -79 -5 -14 -18 -52 -27 -85 -10 -33 -23 -76 -30 -95 -7 -19 -21
-71 -32 -115 -29 -119 -41 -111 -88 60 -9 33 -21 74 -27 90 -5 17 -14 44 -18
60 -5 17 -17 55 -26 85 -9 30 -21 73 -28 95 -16 59 -23 65 -68 65 -40 0 -40 0
-35 -32z"/>
<path d="M3917 2613 c-8 -26 -5 -673 2 -673 3 0 114 -1 246 -3 l240 -2 0 35 0
35 -192 1 c-105 1 -199 4 -207 7 -13 5 -16 26 -16 117 l0 111 169 -2 c93 -1
174 2 180 5 15 10 14 48 -1 68 -11 13 -33 14 -168 8 -100 -5 -159 -4 -167 2
-9 7 -13 43 -13 114 0 76 3 104 13 105 6 1 100 2 207 3 l195 1 0 40 0 40 -242
3 c-224 2 -242 1 -246 -15z"/>
<path d="M4560 2623 c0 -5 -1 -161 -2 -348 l-1 -340 44 0 44 0 0 140 0 140 98
2 98 2 35 -54 c18 -30 34 -58 34 -64 0 -5 4 -11 8 -13 4 -1 25 -32 46 -68 22
-36 46 -71 54 -77 19 -16 88 -17 97 -3 4 6 -7 27 -22 48 -44 57 -153 221 -153
231 0 11 25 21 50 21 30 0 94 73 113 131 18 54 18 55 -3 109 -49 124 -112 150
-367 150 -95 0 -173 -3 -173 -7z m297 -83 l102 0 36 -35 c31 -31 35 -42 35
-85 0 -43 -5 -54 -34 -84 l-34 -34 -154 -4 c-84 -2 -156 -3 -160 -1 -5 2 -8
57 -8 122 0 65 3 121 8 125 4 5 30 5 57 2 28 -3 96 -6 152 -6z"/>
<path d="M5685 2611 c-47 -21 -102 -73 -116 -108 -13 -36 -11 -99 5 -138 21
-51 151 -124 222 -125 38 0 159 -49 177 -71 57 -70 -34 -169 -157 -169 -89 0
-155 45 -186 124 -12 33 -58 36 -85 6 -18 -20 -18 -21 3 -50 12 -16 22 -32 22
-36 0 -10 48 -52 89 -79 50 -32 131 -49 194 -41 101 13 178 70 211 155 16 42
16 47 -1 94 -27 74 -83 108 -233 142 -134 31 -190 69 -190 129 0 43 52 91 114
105 93 21 168 -12 205 -89 20 -43 57 -52 86 -20 14 16 16 25 8 43 -21 44 -85
107 -130 127 -60 26 -180 27 -238 1z"/>
<path d="M6230 2618 c-1 -11 0 -653 0 -681 0 -5 19 -7 43 -5 l42 3 0 150 0
150 203 3 204 2 -7 -149 -8 -150 26 -6 c14 -4 35 -5 47 -3 l22 3 -1 340 c0
187 0 344 -1 348 0 5 -19 7 -42 5 l-43 -3 0 -154 0 -153 -198 -2 c-125 -1
-198 3 -198 9 -1 6 -2 75 -3 155 l-1 145 -42 3 c-30 2 -43 -1 -43 -10z"/>
<path d="M7167 2601 c-69 -34 -106 -68 -151 -136 -92 -141 -65 -333 63 -448
180 -162 453 -107 562 114 28 57 30 66 26 152 -6 127 -19 159 -102 242 -86 86
-134 105 -256 105 -71 -1 -93 -5 -142 -29z m286 -87 c144 -95 178 -267 79
-398 -68 -90 -203 -139 -283 -103 -19 9 -44 18 -55 21 -32 10 -100 83 -125
135 -26 55 -31 149 -10 201 32 79 122 162 187 173 16 3 60 4 98 2 54 -3 77
-10 109 -31z"/>
<path d="M7280 2246 c0 -14 4 -27 9 -31 12 -7 25 31 16 45 -11 18 -25 10 -25
-14z"/>
<path d="M7835 2620 c-10 -16 -7 -672 3 -682 5 -5 25 -8 43 -6 l34 3 0 134 0
134 165 1 c152 1 168 3 200 23 107 67 131 221 50 323 -51 64 -114 80 -318 80
-100 0 -173 -4 -177 -10z m412 -99 c34 -25 53 -65 53 -111 0 -56 -25 -96 -76
-121 -36 -17 -58 -19 -175 -17 l-134 3 -3 124 c-1 69 -1 130 2 136 7 19 305 7
333 -14z"/>
<path d="M431 2599 c-14 -6 -114 -9 -222 -7 -109 1 -202 -1 -205 -5 -8 -8 0
-8 256 -12 96 -1 182 -3 190 -3 8 -1 42 2 75 7 l60 8 -48 2 c-27 0 -56 5 -65
10 -10 5 -27 5 -41 0z"/>
<path d="M1785 2596 c-18 -13 -18 -14 4 -25 15 -9 26 -9 35 -2 6 5 48 12 91
14 l80 3 -82 2 c-45 1 -85 7 -88 12 -8 13 -18 13 -40 -4z"/>
<path d="M8621 2596 c-17 -20 14 -44 38 -29 12 8 70 9 179 6 152 -6 162 -5
162 12 0 17 -11 18 -165 12 -98 -3 -167 -2 -170 4 -9 13 -31 11 -44 -5z"/>
<path d="M3500 2585 c0 -10 7 -15 18 -13 21 4 19 22 -2 26 -10 2 -16 -3 -16
-13z"/>
<path d="M5206 2592 c-11 -18 6 -20 134 -12 111 6 116 7 44 8 -45 1 -101 5
-126 8 -28 4 -48 2 -52 -4z"/>
<path d="M6585 2591 c-7 -12 12 -24 25 -16 11 7 4 25 -10 25 -5 0 -11 -4 -15
-9z"/>
<path d="M1633 2583 c26 -2 67 -2 90 0 23 2 2 3 -48 3 -49 0 -68 -1 -42 -3z"/>
<path d="M6473 2583 c15 -2 39 -2 55 0 15 2 2 4 -28 4 -30 0 -43 -2 -27 -4z"/>
<path d="M8493 2583 c20 -2 54 -2 75 0 20 2 3 4 -38 4 -41 0 -58 -2 -37 -4z"/>
<path d="M8644 2420 c0 -63 1 -89 3 -57 2 31 2 83 0 115 -2 31 -3 5 -3 -58z"/>
<path d="M8635 2268 c-9 -22 -2 -63 10 -61 17 3 24 41 10 60 -12 16 -14 17
-20 1z"/>
<path d="M83 2254 c-8 -21 13 -42 28 -27 13 13 5 43 -11 43 -6 0 -13 -7 -17
-16z"/>
<path d="M435 2260 c-9 -15 5 -52 18 -47 15 5 16 49 0 54 -6 2 -14 -1 -18 -7z"/>
<path d="M1794 2255 c-8 -20 3 -48 16 -40 13 8 13 55 0 55 -6 0 -13 -7 -16
-15z"/>
<path d="M5220 2240 c0 -13 5 -20 13 -17 6 2 12 10 12 17 0 7 -6 15 -12 18 -8
2 -13 -5 -13 -18z"/>
<path d="M8644 2060 c0 -63 1 -89 3 -57 2 31 2 83 0 115 -2 31 -3 5 -3 -58z"/>
<path d="M8313 2015 c0 -38 2 -53 4 -32 2 20 2 52 0 70 -2 17 -4 1 -4 -38z"/>
<path d="M439 1915 c-3 -2 -103 -6 -222 -7 -170 -1 -217 -4 -217 -14 0 -10 24
-13 98 -12 53 1 158 0 232 -1 154 -2 298 4 307 13 6 6 -19 8 -117 12 -25 1
-52 4 -61 8 -8 4 -17 4 -20 1z"/>
<path d="M6590 1910 c-8 -5 -40 -7 -70 -4 -30 3 -75 1 -100 -4 l-45 -9 58 -8
c32 -4 77 -5 100 -2 22 3 48 2 57 -3 9 -5 22 -5 31 0 12 8 12 11 -1 24 -10 10
-20 12 -30 6z"/>
<path d="M8296 1911 c-3 -4 -37 -6 -75 -3 -82 5 -263 -7 -256 -17 2 -5 75 -8
162 -9 87 0 166 -3 175 -7 9 -4 22 -4 28 0 15 9 280 9 302 0 9 -4 23 -3 29 1
7 4 86 6 176 5 145 -2 163 -1 163 14 0 15 -18 16 -162 15 -90 -2 -171 1 -180
5 -9 4 -23 3 -29 -1 -15 -9 -287 -9 -296 0 -9 9 -31 7 -37 -3z"/>
<path d="M895 1901 l-30 -7 29 -7 c34 -9 330 -7 366 3 59 16 -297 26 -365 11z"/>
<path d="M2670 1900 l-35 -7 30 -4 c101 -10 265 -5 251 8 -8 9 -207 11 -246 3z"/>
<path d="M3172 1893 c2 -10 10 -18 18 -18 22 0 18 29 -3 33 -14 3 -18 -1 -15
-15z"/>
<path d="M3670 1901 l-45 -6 34 -8 c40 -8 107 -8 141 2 23 7 21 8 -15 14 -43
7 -46 7 -115 -2z"/>
<path d="M4790 1900 l-85 -6 80 -2 c44 -1 87 -6 95 -12 9 -5 19 -5 27 2 16 13
7 29 -15 26 -9 -1 -55 -5 -102 -8z"/>
<path d="M5196 1901 c-16 -6 -17 -9 -5 -13 24 -9 291 -9 324 0 28 8 26 9 -25
16 -69 8 -268 6 -294 -3z"/>
<path d="M6911 1901 c-23 -15 22 -23 76 -15 l48 8 -40 7 c-53 10 -67 10 -84 0z"/>
<path d="M7604 1898 c-10 -15 17 -28 37 -17 10 5 41 9 70 9 72 0 59 6 -28 13
-46 4 -75 2 -79 -5z"/>
<path d="M1951 1890 c19 -5 57 -5 85 -1 45 8 42 9 -36 9 -67 0 -78 -2 -49 -8z"/>
<path d="M3260 1890 c19 -5 51 -5 70 0 29 7 23 8 -35 8 -58 0 -64 -1 -35 -8z"/>
<path d="M5568 1888 c9 -9 15 -9 24 0 9 9 7 12 -12 12 -19 0 -21 -3 -12 -12z"/>
<path d="M6098 1893 c12 -2 30 -2 40 0 9 3 -1 5 -23 4 -22 0 -30 -2 -17 -4z"/>
<path d="M3177 1821 c-8 -40 -7 -115 2 -156 12 -50 25 77 14 138 -9 52 -9 52
-16 18z"/>
<path d="M8644 1735 c0 -66 1 -92 3 -57 2 34 2 88 0 120 -2 31 -3 3 -3 -63z"/>
<path d="M3867 1827 c-9 -24 -9 -95 0 -138 7 -33 7 -33 14 -9 9 32 9 108 0
140 -6 22 -8 23 -14 7z"/>
<path d="M8314 1725 c0 -66 1 -92 3 -57 2 34 2 88 0 120 -2 31 -3 3 -3 -63z"/>
<path d="M4893 1750 c0 -41 2 -58 4 -37 2 20 2 54 0 75 -2 20 -4 3 -4 -38z"/>
<path d="M6604 1730 c0 -52 1 -74 3 -47 2 26 2 68 0 95 -2 26 -3 4 -3 -48z"/>
<path d="M7624 1730 c0 -52 1 -74 3 -47 2 26 2 68 0 95 -2 26 -3 4 -3 -48z"/>
<path d="M4198 1759 c-4 -25 -4 -59 1 -75 l8 -29 4 35 c2 19 2 53 -1 75 l-5
40 -7 -46z"/>
<path d="M2494 1700 c0 -52 1 -74 3 -47 2 26 2 68 0 95 -2 26 -3 4 -3 -48z"/>
<path d="M3513 1730 c0 -36 2 -50 4 -32 2 17 2 47 0 65 -2 17 -4 3 -4 -33z"/>
<path d="M5583 1745 c0 -27 2 -38 4 -22 2 15 2 37 0 50 -2 12 -4 0 -4 -28z"/>
<path d="M1474 1695 c0 -49 1 -71 3 -48 2 23 2 64 0 90 -2 26 -3 8 -3 -42z"/>
<path d="M783 1695 c0 -38 2 -53 4 -32 2 20 2 52 0 70 -2 17 -4 1 -4 -38z"/>
<path d="M1457 1582 c-16 -17 -16 -20 -2 -32 12 -10 15 -40 15 -158 0 -80 3
-143 6 -139 4 3 6 66 6 139 0 79 4 142 11 156 8 18 8 26 -4 38 -14 13 -17 13
-32 -4z"/>
<path d="M2480 1585 c-10 -12 -10 -21 -2 -38 7 -13 13 -82 15 -162 l3 -140 2
143 c1 92 6 149 14 162 10 16 10 23 -3 35 -14 15 -17 15 -29 0z"/>
<path d="M440 1579 c-9 -6 -88 -9 -185 -8 -93 1 -190 0 -215 -1 l-45 -3 45 -8
c25 -5 50 -9 55 -9 124 9 316 8 338 -1 21 -9 31 -9 40 0 7 7 58 12 137 13
l125 2 -130 5 c-71 3 -135 9 -140 13 -6 4 -17 2 -25 -3z"/>
<path d="M767 1579 c-18 -10 -18 -12 -1 -30 16 -18 19 -18 35 -3 16 14 46 16
241 12 123 -2 261 -1 308 2 81 6 79 7 -55 10 -77 1 -217 2 -311 0 -117 -1
-174 1 -178 9 -9 13 -16 13 -39 0z"/>
<path d="M1785 1577 c-15 -12 -15 -14 -1 -26 12 -10 22 -11 43 -2 29 11 289 8
329 -4 29 -9 53 20 27 33 -10 5 -27 6 -38 1 -29 -11 -303 -11 -324 1 -13 6
-24 5 -36 -3z"/>
<path d="M6583 1579 c-9 -9 -8 -17 5 -34 l16 -22 17 21 c26 32 -9 64 -38 35z"/>
<path d="M6919 1579 c-8 -5 -72 -10 -144 -11 l-130 -2 140 -7 c170 -9 141 -9
314 -3 99 4 152 2 172 -6 23 -10 32 -10 44 0 13 11 13 14 -2 25 -12 9 -24 10
-35 4 -22 -12 -290 -12 -321 0 -14 6 -29 6 -38 0z"/>
<path d="M7602 1578 c-9 -9 -8 -16 5 -30 15 -17 18 -17 34 -2 15 13 40 15 166
11 81 -3 155 -5 163 -5 8 -1 67 -1 130 -1 63 -1 129 3 145 8 38 12 -47 14
-367 12 -150 -2 -228 1 -233 8 -8 14 -28 14 -43 -1z"/>
<path d="M8292 1578 c-9 -9 -8 -15 3 -28 11 -12 15 -51 18 -155 l3 -140 2 141
c2 112 5 144 17 154 12 10 13 16 4 26 -14 17 -31 18 -47 2z"/>
<path d="M8624 1575 c-4 -8 -1 -21 5 -28 6 -8 12 -72 14 -153 l3 -139 2 141
c1 90 6 144 14 152 8 8 57 9 175 5 153 -6 163 -5 163 12 0 17 -10 18 -164 11
-108 -4 -167 -3 -171 4 -9 15 -35 12 -41 -5z"/>
<path d="M1578 1563 c34 -2 88 -2 120 0 31 2 3 3 -63 3 -66 0 -92 -1 -57 -3z"/>
<path d="M2273 1563 c31 -2 83 -2 115 0 31 2 5 3 -58 3 -63 0 -89 -1 -57 -3z"/>
<path d="M2577 1560 c18 -4 59 -4 90 0 55 7 53 7 -32 8 -63 0 -80 -2 -58 -8z"/>
<path d="M6435 1560 c44 -4 91 -3 105 1 14 4 -19 7 -80 7 l-105 -1 80 -7z"/>
<path d="M7403 1563 c31 -2 83 -2 115 0 31 2 5 3 -58 3 -63 0 -89 -1 -57 -3z"/>
<path d="M8418 1563 c34 -2 88 -2 120 0 31 2 3 3 -63 3 -66 0 -92 -1 -57 -3z"/>
<path d="M2803 1544 c-13 -34 3 -35 451 -34 242 1 445 1 450 1 6 -1 0 -10 -12
-21 -29 -27 -28 -71 1 -97 30 -28 92 -53 133 -53 45 0 64 -22 64 -76 0 -32 -4
-44 -15 -44 -8 0 -15 5 -15 12 0 17 -70 78 -89 78 -26 0 -70 -43 -72 -70 -4
-42 9 -64 53 -88 47 -24 112 -30 106 -9 -3 6 -15 13 -29 15 -13 2 -40 16 -59
32 -30 24 -33 32 -24 47 8 11 22 17 39 16 36 -3 95 -68 95 -105 0 -17 8 -31
21 -38 16 -9 20 -19 17 -57 -2 -26 -9 -48 -15 -51 -7 -2 -13 3 -13 11 0 7 -17
30 -37 50 -28 29 -44 37 -72 37 -30 0 -40 -6 -59 -34 -16 -23 -21 -42 -17 -55
9 -29 53 -61 85 -61 15 0 33 -6 40 -14 6 -8 28 -16 48 -18 l37 -3 3 -54 c4
-71 -20 -121 -59 -121 -15 0 -32 7 -39 15 -7 8 -18 15 -26 15 -22 0 -36 37
-24 60 16 29 41 24 75 -15 34 -39 45 -43 45 -17 0 10 -17 35 -37 55 -48 48
-90 50 -127 6 -32 -37 -32 -48 -4 -84 27 -34 78 -57 143 -64 l50 -6 0 -105 c0
-98 1 -105 20 -105 19 0 20 7 20 103 1 75 4 105 14 111 8 5 14 17 16 27 2 23
29 82 49 107 22 29 60 19 64 -17 2 -19 22 -49 54 -82 75 -79 93 -111 78 -143
-7 -14 -16 -73 -21 -131 -17 -195 -27 -275 -43 -335 -20 -74 -20 -111 -1 -119
10 -3 23 7 38 32 32 49 36 63 26 88 -5 13 -2 32 7 49 8 15 14 32 14 38 0 5 16
30 36 54 25 30 41 42 53 38 20 -6 41 30 41 70 0 40 -32 30 -83 -25 -25 -27
-50 -58 -56 -67 -9 -17 -10 -17 -16 -1 -4 9 -1 27 6 40 15 27 34 166 48 358 6
74 14 149 17 165 3 17 9 85 13 153 6 120 20 161 31 92 4 -19 12 -45 18 -57 7
-12 12 -33 12 -47 0 -14 4 -27 9 -31 6 -3 13 -27 17 -53 3 -26 11 -52 16 -59
5 -7 14 -36 19 -65 4 -29 14 -82 20 -118 6 -36 18 -79 26 -97 16 -32 12 -63
-7 -63 -5 0 -10 11 -10 25 0 14 -4 25 -9 25 -5 0 -26 27 -47 60 -39 61 -70 83
-85 59 -9 -15 -2 -58 12 -73 5 -6 9 -23 9 -38 0 -21 18 -46 77 -105 l77 -78
-2 -75 c-1 -57 -6 -81 -22 -102 -11 -15 -20 -30 -20 -34 0 -4 -7 -15 -16 -25
-19 -21 -11 -73 9 -66 6 2 23 25 37 50 15 30 36 53 57 62 18 9 33 20 33 25 0
6 9 10 19 10 11 0 23 4 26 10 3 5 21 17 40 26 47 22 173 147 218 216 36 55 49
108 26 108 -30 0 -201 -95 -251 -140 -31 -27 -59 -50 -62 -50 -12 0 -5 78 8
89 8 6 17 33 21 59 4 26 11 54 15 63 17 31 25 489 16 859 l-1 45 79 3 c101 4
113 0 92 -30 -21 -30 -20 -42 8 -75 13 -15 27 -48 31 -72 6 -39 5 -43 -10 -38
-9 4 -19 7 -21 7 -2 0 -4 11 -4 25 0 27 -25 45 -65 45 -35 0 -53 -44 -33 -80
11 -21 22 -25 59 -26 25 0 52 -4 59 -9 7 -4 31 -9 53 -11 73 -7 75 -13 57
-189 -6 -55 -10 -135 -10 -177 1 -66 -1 -78 -18 -87 -23 -12 -62 -3 -62 14 0
7 10 32 22 55 22 41 23 42 3 56 -19 14 -19 15 3 20 24 7 27 16 12 45 -14 25
-30 24 -57 -5 -27 -28 -29 -49 -8 -66 17 -14 20 -60 4 -60 -20 0 -48 45 -49
77 0 44 9 63 36 74 48 18 20 116 -34 121 -38 3 -51 -4 -72 -37 -23 -37 -19
-56 21 -96 12 -12 19 -34 20 -61 1 -59 45 -136 98 -172 46 -31 45 -23 24 -118
-4 -23 -2 -28 15 -28 30 0 39 18 51 104 14 98 25 115 55 83 12 -13 48 -36 80
-51 l59 -28 -5 -51 c-3 -29 -3 -81 1 -117 5 -56 9 -65 26 -65 19 0 20 7 20
120 0 112 1 120 20 123 11 2 34 10 52 18 17 8 35 14 40 14 6 0 22 10 36 23 38
32 37 81 -2 101 -16 9 -31 24 -34 36 -4 16 -13 20 -46 20 -49 0 -53 17 -11 45
16 11 30 23 30 28 0 15 40 6 49 -12 8 -14 7 -22 -4 -31 -20 -17 -19 -30 3 -30
23 0 52 30 52 53 0 23 -50 67 -76 67 -12 0 -40 -18 -62 -39 -22 -22 -43 -37
-46 -34 -3 4 -6 25 -6 49 0 47 9 53 68 55 20 0 60 8 87 17 42 14 52 22 61 52
14 42 2 75 -35 95 -22 11 -31 11 -61 -5 -20 -10 -50 -35 -67 -54 -16 -20 -34
-36 -38 -36 -11 0 -44 43 -45 58 0 7 -12 29 -26 48 -28 36 -68 46 -92 22 -18
-18 -32 7 -32 59 0 72 7 76 57 27 24 -24 52 -44 62 -44 9 0 30 -12 47 -28 27
-24 33 -26 54 -15 14 7 41 13 60 13 56 0 134 34 144 63 15 40 -1 77 -39 93
-43 17 -65 9 -123 -46 -35 -32 -46 -38 -55 -27 -22 24 -57 76 -57 86 0 5 -8
12 -17 15 -27 11 0 28 38 24 30 -3 34 -7 37 -33 1 -16 5 -41 8 -54 8 -35 24
-7 24 42 0 22 5 37 13 38 6 1 237 2 512 3 l500 1 3 22 3 22 -1731 -1 c-1442 0
-1732 -2 -1737 -14z m1055 -52 c7 -49 -6 -56 -38 -22 -34 36 -31 53 8 48 19
-2 28 -10 30 -26z m112 13 c0 -8 -4 -15 -10 -15 -5 0 -10 -8 -10 -17 0 -17
-37 -63 -52 -63 -10 0 -11 94 -1 103 3 4 21 7 40 7 23 0 33 -5 33 -15z m197
-7 c13 -12 23 -32 23 -45 0 -13 4 -23 9 -23 5 0 12 -12 16 -27 3 -15 11 -31
17 -34 6 -4 19 -31 29 -60 16 -44 19 -83 19 -226 0 -165 -11 -227 -26 -147 -4
21 -13 49 -20 63 -8 14 -14 34 -14 43 0 9 -4 19 -9 22 -5 3 -12 18 -15 32 -4
15 -14 33 -21 41 -8 8 -15 23 -15 34 0 10 -4 19 -9 19 -5 0 -13 10 -17 23 -4
12 -17 36 -30 52 -12 17 -27 42 -33 58 -13 34 -47 37 -56 5 -3 -13 -11 -33
-18 -46 -8 -18 -8 -29 4 -50 18 -32 14 -68 -8 -76 -21 -8 -47 14 -33 28 18 18
11 37 -12 34 -22 -3 -23 0 -23 62 0 60 2 65 23 68 25 4 29 17 8 25 -18 7 -10
41 18 82 42 60 62 69 86 40 15 -19 5 -65 -15 -65 -8 0 -15 -4 -15 -8 0 -5 -11
-14 -25 -20 -31 -14 -32 -28 -2 -36 15 -4 26 0 36 14 7 11 19 20 26 20 26 0
48 38 42 74 -3 19 -3 37 0 40 12 12 37 5 60 -16z m108 -52 c0 -47 -4 -71 -12
-73 -8 -3 -13 5 -13 20 0 29 -29 88 -49 101 -20 13 6 27 44 24 l30 -3 0 -69z
m693 -49 c3 -118 3 -118 -20 -115 -16 2 -30 18 -46 50 -22 44 -22 49 -8 70 18
25 21 83 6 93 -19 12 2 26 33 23 l32 -3 3 -118z m69 107 c1 -5 -2 -16 -7 -24
-12 -20 -35 2 -26 25 6 17 27 16 33 -1z m-433 -55 c3 -34 6 -100 6 -145 0 -68
-3 -84 -15 -84 -11 0 -15 11 -15 39 0 22 -6 44 -15 51 -8 7 -15 20 -15 30 0
10 -7 23 -15 30 -8 7 -15 17 -15 22 0 14 -40 68 -50 68 -5 0 -17 -24 -25 -54
-30 -103 -11 -369 34 -471 34 -77 47 -101 59 -108 6 -4 12 -13 12 -19 0 -6 14
-26 30 -45 26 -30 30 -39 24 -71 -4 -20 -10 -44 -14 -52 -9 -19 -34 -186 -33
-220 1 -31 -15 -63 -28 -55 -5 4 -9 48 -9 100 0 52 -4 104 -10 117 -5 13 -14
55 -20 93 -11 86 -32 181 -48 218 -7 16 -12 33 -12 39 0 11 -27 98 -41 133
-16 39 -40 110 -45 135 -3 13 -9 27 -14 30 -7 4 -15 213 -11 273 1 4 63 7 140
7 l138 0 7 -61z m-794 -11 c51 -54 55 -68 15 -68 -25 0 -95 42 -107 64 -8 14
17 56 33 56 5 0 32 -23 59 -52z m1331 -13 c30 -62 33 -93 7 -67 -7 7 -18 12
-25 12 -6 0 -31 18 -53 39 -40 38 -41 40 -23 60 33 39 59 28 94 -44z m-257 14
c-3 -5 -12 -9 -20 -9 -14 0 -20 31 -7 44 9 9 34 -24 27 -35z m504 -42 c-2 -14
-11 -23 -25 -25 -12 -2 -27 -10 -33 -18 -13 -15 -65 -19 -74 -6 -6 10 47 63
79 80 27 14 57 -3 53 -31z m-598 -72 c0 -8 -7 -15 -15 -15 -8 0 -15 7 -15 15
0 8 7 15 15 15 8 0 15 -7 15 -15z m-300 -78 c0 -40 5 -70 15 -83 8 -11 14 -42
15 -75 0 -33 6 -63 15 -75 18 -24 21 -128 3 -122 -7 3 -15 15 -16 29 -2 13
-10 32 -18 43 -8 11 -14 32 -14 46 0 14 -7 47 -15 74 -15 49 -21 207 -8 219
17 17 23 2 23 -56z m60 15 c0 -21 7 -47 15 -58 8 -10 15 -30 15 -44 0 -14 7
-43 15 -65 8 -22 14 -77 15 -122 0 -72 -3 -85 -22 -103 -25 -23 -34 -20 -19 8
16 29 14 93 -4 135 -8 20 -15 53 -15 74 0 21 -7 51 -15 67 -21 39 -21 146 0
146 11 0 15 -11 15 -38z m546 -4 c13 -13 24 -31 24 -40 0 -9 5 -20 10 -23 6
-3 10 -17 10 -30 0 -21 -2 -22 -25 -12 -14 7 -25 15 -25 19 0 4 -13 14 -30 23
-29 15 -48 54 -35 74 11 18 46 12 71 -11z m254 -38 c14 -26 4 -60 -18 -60 -9
0 -26 -7 -36 -15 -38 -29 -81 -11 -54 22 12 15 87 73 94 73 2 0 8 -9 14 -20z
m-1278 -37 c3 -42 22 -54 33 -21 l8 23 4 -25 c3 -13 0 -26 -6 -28 -16 -5 -13
-72 4 -102 8 -14 15 -36 15 -50 0 -14 7 -34 15 -44 8 -11 15 -32 15 -46 0 -14
7 -35 15 -46 19 -25 20 -74 1 -74 -7 0 -16 8 -20 18 -3 9 -10 24 -15 32 -5 8
-16 31 -24 50 -8 19 -20 46 -26 60 -24 54 -58 249 -47 275 10 27 25 16 28 -22z
m975 -23 c6 0 16 -7 23 -15 7 -8 20 -15 30 -15 41 0 71 -83 40 -114 -6 -6 -10
-18 -10 -27 0 -9 -7 -22 -15 -29 -21 -17 -19 -25 10 -38 20 -9 25 -19 25 -47
0 -24 -5 -35 -15 -35 -8 0 -15 4 -15 9 0 5 -13 23 -29 40 -31 33 -77 42 -87
16 -4 -8 -12 -15 -20 -15 -10 0 -14 15 -14 60 0 33 2 60 4 60 3 0 25 -13 49
-30 44 -29 77 -39 77 -21 0 5 -16 19 -35 32 -27 18 -35 30 -33 49 4 35 55 42
60 9 4 -27 28 -38 28 -12 0 10 -11 29 -25 42 -20 19 -33 22 -70 19 l-44 -3 6
40 c7 45 23 62 39 40 6 -8 16 -15 21 -15z m-1049 -26 c27 -8 28 -19 2 -67 -22
-40 -26 -67 -10 -67 5 0 14 9 20 20 6 11 15 20 20 20 13 0 13 -57 0 -65 -17
-10 -11 -23 14 -32 19 -7 22 -12 15 -30 -5 -13 -15 -23 -23 -23 -8 0 -26 -20
-40 -45 -15 -25 -31 -45 -37 -45 -6 0 -9 24 -7 57 3 49 6 58 23 61 32 6 43 22
23 33 -10 6 -18 18 -18 28 0 11 -7 21 -15 25 -11 4 -15 21 -15 64 0 73 3 78
48 66z m162 -36 c0 -13 7 -32 15 -42 8 -11 15 -30 15 -42 0 -12 7 -27 15 -34
8 -7 15 -26 15 -42 0 -16 7 -45 15 -65 23 -55 18 -123 -9 -123 -8 0 -11 12 -8
35 3 22 -2 45 -12 60 -9 13 -16 37 -16 52 0 15 -7 37 -15 47 -8 11 -15 32 -15
47 0 15 -7 34 -15 43 -8 8 -15 31 -15 50 0 25 4 36 15 36 9 0 15 -9 15 -22z
m648 -20 c18 -18 15 -36 -10 -49 -18 -9 -24 -8 -34 6 -25 34 15 72 44 43z
m-954 -53 c30 -29 46 -51 42 -60 -7 -19 -50 -19 -66 0 -7 8 -21 15 -31 15 -17
0 -39 27 -39 49 0 11 28 41 38 41 4 -1 29 -21 56 -45z m1409 -114 c4 -4 -6
-17 -23 -29 -16 -13 -30 -31 -30 -42 0 -27 6 -25 42 11 31 30 31 30 50 11 19
-19 19 -20 2 -41 -10 -11 -26 -21 -36 -21 -9 0 -20 -4 -23 -10 -11 -17 -35
-11 -35 9 0 10 -7 21 -15 25 -18 7 -21 76 -3 94 11 11 55 7 71 -7z m-190 -35
c9 -7 17 -18 17 -25 0 -6 7 -14 15 -17 8 -4 15 -15 15 -26 0 -17 -4 -19 -27
-13 -41 10 -77 48 -68 74 7 24 22 26 48 7z m-673 -308 c0 -6 7 -16 17 -23 10
-7 14 -19 10 -29 -8 -20 -27 -12 -27 11 0 9 -7 21 -17 28 -9 7 -13 17 -9 24 8
13 26 6 26 -11z m58 -79 c-2 -6 -8 -10 -13 -10 -5 0 -11 4 -13 10 -2 6 4 11
13 11 9 0 15 -5 13 -11z m241 -79 c-29 -27 -50 -52 -46 -56 6 -7 86 52 100 73
8 13 37 18 37 7 0 -9 -68 -74 -119 -114 -42 -32 -44 -33 -57 -15 -11 15 -17
16 -26 7 -9 -9 -8 -15 8 -27 18 -15 18 -16 0 -13 -24 4 -46 39 -28 45 6 3 12
9 12 14 0 11 68 79 79 79 5 0 11 7 15 15 3 8 12 15 21 15 8 0 15 5 15 10 0 6
10 10 21 10 17 0 12 -9 -32 -50z"/>
<path d="M6604 1385 c0 -60 1 -84 3 -52 2 32 2 81 0 110 -2 29 -3 3 -3 -58z"/>
<path d="M7624 1385 c0 -60 1 -84 3 -52 2 32 2 81 0 110 -2 29 -3 3 -3 -58z"/>
<path d="M783 1355 c0 -44 2 -61 4 -37 2 23 2 59 0 80 -2 20 -4 1 -4 -43z"/>
<path d="M3175 1387 c-4 -27 -5 -73 -1 -102 4 -36 2 -56 -5 -61 -20 -12 -648
-8 -662 5 -10 8 -17 7 -25 -1 -9 -9 -189 -13 -317 -7 -11 1 -90 1 -175 0 -85
0 -164 0 -175 0 -11 0 -87 -1 -168 -3 -111 -2 -151 0 -159 10 -8 9 -14 10 -25
1 -15 -14 -635 -17 -666 -4 -9 4 -23 3 -30 -2 -9 -7 -150 -8 -312 -2 -81 2
-379 -5 -415 -10 -45 -7 -45 -7 25 -13 39 -3 84 -6 100 -5 17 0 91 0 165 -1
74 -2 201 -2 281 -1 81 1 152 -2 158 -5 6 -4 21 -4 32 -1 38 12 647 9 662 -3
10 -9 16 -9 25 0 8 8 59 11 159 9 81 -1 155 -2 163 -2 29 0 325 1 350 1 246 3
312 1 324 -9 10 -8 16 -8 24 1 8 10 83 13 332 11 177 -1 324 -4 327 -7 8 -8 6
-278 -2 -299 -4 -9 -2 -24 5 -32 7 -8 10 -25 7 -37 -6 -24 -8 -209 -6 -458 1
-80 -2 -153 -6 -163 -4 -10 -3 -23 3 -29 6 -6 8 -41 5 -89 -5 -71 -4 -79 12
-79 16 0 17 8 12 79 -3 48 -1 83 5 89 6 6 7 19 3 29 -6 14 -8 196 -4 318 0 6
-1 82 -2 170 -1 88 2 168 6 178 4 9 3 23 -2 30 -9 13 -10 284 0 293 8 8 278 8
298 0 8 -4 29 -1 47 7 l32 13 -35 13 c-19 7 -40 9 -46 6 -15 -10 -283 -10
-298 -1 -8 5 -10 25 -6 64 3 32 2 77 -3 102 l-9 45 -8 -48z"/>
<path d="M3513 1325 c0 -38 2 -53 4 -32 2 20 2 52 0 70 -2 17 -4 1 -4 -38z"/>
<path d="M5583 1320 c0 -25 2 -35 4 -22 2 12 2 32 0 45 -2 12 -4 2 -4 -23z"/>
<path d="M5565 1220 c-3 -5 -23 -11 -43 -11 -26 -1 -30 -3 -12 -6 14 -2 37 -9
52 -14 15 -6 32 -8 38 -4 15 10 283 10 298 1 7 -4 22 -4 33 -1 28 9 639 9 661
0 9 -4 22 -4 29 0 9 6 162 8 314 4 11 -1 90 0 175 0 85 1 164 1 175 1 11 -1
85 1 165 2 80 2 150 0 157 -5 7 -5 22 -5 35 -1 29 9 637 8 660 -1 9 -4 22 -3
29 1 15 9 282 9 298 0 6 -4 21 -4 34 0 12 4 93 6 180 5 142 -3 157 -1 157 14
0 15 -15 17 -157 14 -87 -1 -168 1 -180 5 -13 4 -28 4 -34 0 -15 -9 -278 -8
-301 1 -9 4 -22 4 -29 0 -15 -10 -628 -10 -658 0 -12 3 -27 3 -34 -2 -7 -5
-77 -7 -157 -5 -80 1 -154 3 -165 3 -11 0 -90 0 -175 0 -85 0 -162 0 -170 0
-8 0 -80 -1 -160 -2 -80 -1 -153 2 -162 6 -9 4 -22 4 -28 0 -15 -9 -639 -9
-662 0 -9 4 -22 3 -29 -1 -15 -9 -287 -10 -296 -1 -10 10 -31 8 -38 -3z"/>
<path d="M1474 1040 c0 -69 1 -97 3 -62 2 34 2 90 0 125 -2 34 -3 6 -3 -63z"/>
<path d="M2492 1034 c-2 -104 -5 -134 -17 -144 -14 -12 -14 -15 1 -32 16 -17
18 -17 36 -1 16 14 16 18 3 33 -11 12 -15 49 -18 145 l-3 130 -2 -131z"/>
<path d="M3513 1040 c-1 -66 2 -102 6 -85 4 17 4 68 1 115 l-7 85 0 -115z"/>
<path d="M8314 1040 c0 -63 1 -89 3 -57 2 31 2 83 0 115 -2 31 -3 5 -3 -58z"/>
<path d="M8644 1040 c0 -63 1 -89 3 -57 2 31 2 83 0 115 -2 31 -3 5 -3 -58z"/>
<path d="M782 1100 c0 -19 2 -27 5 -17 2 9 2 25 0 35 -3 9 -5 1 -5 -18z"/>
<path d="M5584 1040 c0 -52 1 -74 3 -47 2 26 2 68 0 95 -2 26 -3 4 -3 -48z"/>
<path d="M6604 1040 c0 -52 1 -74 3 -47 2 26 2 68 0 95 -2 26 -3 4 -3 -48z"/>
<path d="M7624 1030 c0 -58 1 -81 3 -52 2 28 2 76 0 105 -2 28 -3 5 -3 -53z"/>
<path d="M783 995 c0 -27 2 -38 4 -22 2 15 2 37 0 50 -2 12 -4 0 -4 -28z"/>
<path d="M5913 1000 c0 -25 2 -35 4 -22 2 12 2 32 0 45 -2 12 -4 2 -4 -23z"/>
<path d="M1457 892 c-16 -18 -16 -20 1 -36 17 -15 20 -15 32 -1 10 12 40 15
144 17 l131 2 -130 3 c-96 3 -133 7 -145 18 -15 13 -19 13 -33 -3z"/>
<path d="M431 889 c-14 -6 -114 -9 -222 -7 -109 1 -202 -1 -205 -5 -9 -9 12
-9 405 -8 179 1 327 3 329 6 3 3 -52 5 -122 5 -70 0 -135 4 -144 9 -10 5 -27
5 -41 0z"/>
<path d="M765 886 c-18 -13 -18 -14 4 -25 17 -10 26 -10 37 0 10 8 64 11 186
9 234 -4 433 -1 426 6 -3 3 -141 5 -307 5 -180 0 -303 4 -306 9 -8 13 -18 12
-40 -4z"/>
<path d="M1785 886 c-18 -13 -18 -14 4 -25 16 -9 26 -9 36 -1 15 12 299 10
325 -3 9 -4 24 -2 35 6 18 14 18 15 -3 26 -16 8 -28 9 -41 1 -25 -13 -308 -13
-316 0 -8 13 -18 13 -40 -4z"/>
<path d="M3493 884 c-10 -27 12 -37 51 -23 l36 13 -31 13 c-40 17 -48 16 -56
-3z"/>
<path d="M5565 890 c-3 -5 -30 -11 -58 -12 l-52 -2 50 -3 c27 -3 55 -9 62 -14
8 -7 19 -7 34 2 22 11 22 12 4 25 -22 17 -32 17 -40 4z"/>
<path d="M5895 886 c-18 -13 -18 -14 4 -25 17 -10 26 -10 37 0 10 8 64 11 186
9 236 -4 443 -1 436 6 -4 3 -144 5 -312 5 -182 0 -308 4 -311 10 -8 12 -18 11
-40 -5z"/>
<path d="M6586 887 c-16 -12 -16 -14 -2 -26 20 -17 49 -6 44 16 -4 22 -20 26
-42 10z"/>
<path d="M6916 888 c-18 -10 -18 -12 -2 -24 12 -8 27 -10 49 -3 44 12 284 11
308 -1 13 -8 25 -7 41 1 20 11 21 12 4 25 -13 9 -25 10 -46 3 -30 -11 -296 -8
-320 3 -8 4 -24 2 -34 -4z"/>
<path d="M7605 890 c-4 -6 -63 -11 -138 -12 l-132 -2 135 -5 c74 -4 141 -10
148 -14 7 -5 18 -4 25 1 18 15 633 15 657 0 14 -9 22 -9 35 2 14 12 15 15 0
29 -12 13 -19 13 -35 4 -23 -15 -647 -16 -656 -2 -7 12 -31 11 -39 -1z"/>
<path d="M8625 890 c-3 -6 -63 -11 -138 -12 l-132 -2 125 -3 c69 -2 135 -8
147 -15 17 -8 26 -8 36 1 10 8 59 9 176 5 151 -7 161 -6 161 11 0 17 -10 18
-164 12 -106 -4 -167 -3 -171 3 -8 13 -32 13 -40 0z"/>
<path d="M2675 881 l-140 -6 160 -5 c88 -3 225 -3 305 1 l145 5 -121 2 c-67 1
-141 4 -165 5 -24 2 -107 1 -184 -2z"/>
<path d="M2268 873 c34 -2 90 -2 125 0 34 2 6 3 -63 3 -69 0 -97 -1 -62 -3z"/>
<path d="M3288 873 c34 -2 90 -2 125 0 34 2 6 3 -63 3 -69 0 -97 -1 -62 -3z"/>
<path d="M5688 873 c34 -2 90 -2 125 0 34 2 6 3 -63 3 -69 0 -97 -1 -62 -3z"/>
<path d="M6708 873 c34 -2 90 -2 125 0 34 2 6 3 -63 3 -69 0 -97 -1 -62 -3z"/>
<path d="M1469 729 c-1 -57 -1 -121 1 -142 1 -21 -3 -44 -10 -52 -9 -10 -9
-19 1 -36 11 -22 12 -22 25 -4 8 11 10 24 5 34 -5 9 -9 79 -10 155 -1 164 -10
196 -12 45z"/>
<path d="M2492 698 c-1 -75 -6 -148 -11 -161 -7 -18 -6 -30 3 -43 13 -17 14
-17 24 3 6 11 8 24 4 27 -4 4 -10 76 -13 159 l-5 152 -2 -137z"/>
<path d="M3512 685 c-1 -77 -6 -147 -11 -154 -6 -9 -6 -22 0 -34 10 -18 12
-18 30 -1 15 14 17 20 6 32 -8 10 -14 66 -18 156 l-5 141 -2 -140z"/>
<path d="M6602 685 c-1 -77 -6 -146 -11 -154 -12 -18 -3 -41 15 -41 14 0 20
16 13 35 -2 6 -6 75 -9 155 l-6 145 -2 -140z"/>
<path d="M8312 685 c-1 -77 -6 -147 -12 -155 -13 -21 8 -44 26 -29 8 6 10 16
6 23 -4 6 -9 76 -13 156 l-5 145 -2 -140z"/>
<path d="M8642 687 c-1 -76 -6 -147 -12 -157 -13 -24 16 -52 31 -29 5 8 6 21
2 29 -4 8 -10 78 -13 155 l-6 140 -2 -138z"/>
<path d="M7624 700 c0 -63 1 -89 3 -57 2 31 2 83 0 115 -2 31 -3 5 -3 -58z"/>
<path d="M784 700 c0 -58 1 -81 3 -52 2 28 2 76 0 105 -2 28 -3 5 -3 -53z"/>
<path d="M5584 695 c0 -60 1 -84 3 -52 2 32 2 81 0 110 -2 29 -3 3 -3 -58z"/>
<path d="M5912 740 c0 -19 2 -27 5 -17 2 9 2 25 0 35 -3 9 -5 1 -5 -18z"/>
<path d="M2151 539 c-11 -18 -10 -24 1 -36 22 -22 40 4 24 34 l-11 23 -14 -21z"/>
<path d="M7614 536 c-8 -34 8 -53 25 -32 10 12 10 19 -3 37 l-15 22 -7 -27z"/>
<path d="M774 537 c-3 -9 -3 -25 0 -34 6 -15 8 -15 24 0 15 16 15 18 0 34 -16
15 -18 15 -24 0z"/>
<path d="M1794 537 c-3 -9 -3 -25 0 -34 6 -15 8 -15 24 0 15 16 15 18 0 34
-16 15 -18 15 -24 0z"/>
<path d="M5570 535 c-11 -14 -11 -18 2 -31 12 -13 16 -13 26 -1 9 10 9 18 -1
31 -12 16 -14 17 -27 1z"/>
<path d="M5904 537 c-3 -9 -3 -25 0 -34 6 -15 8 -15 24 0 15 16 15 18 0 34
-16 15 -18 15 -24 0z"/>
<path d="M430 525 c-10 -12 -9 -16 4 -21 9 -3 23 -3 32 0 13 5 14 9 4 21 -16
19 -24 19 -40 0z"/>
<path d="M6251 531 c-18 -12 -5 -31 20 -31 14 0 19 6 17 17 -4 20 -18 26 -37
14z"/>
<path d="M6922 528 c-19 -19 5 -40 30 -27 15 8 17 13 7 25 -14 17 -21 18 -37
2z"/>
<path d="M7275 530 c-4 -6 -1 -17 5 -26 10 -11 16 -12 26 -3 11 9 11 15 3 25
-14 17 -25 18 -34 4z"/>
<path d="M80 521 c0 -6 5 -13 10 -16 14 -9 52 4 45 16 -8 12 -55 12 -55 0z"/>
<path d="M1105 520 c-8 -13 20 -24 40 -16 8 3 15 10 15 16 0 13 -47 13 -55 0z"/>
<path d="M2815 520 c-8 -13 20 -24 40 -16 8 3 15 10 15 16 0 13 -47 13 -55 0z"/>
<path d="M7943 518 c2 -7 14 -13 27 -13 13 0 25 6 28 13 2 8 -7 12 -28 12 -21
0 -30 -4 -27 -12z"/>
<path d="M8858 513 c29 -2 74 -2 100 0 26 2 2 3 -53 3 -55 0 -76 -1 -47 -3z"/>
<path d="M1474 350 c0 -69 1 -97 3 -63 2 35 2 91 0 126 -2 34 -3 6 -3 -63z"/>
<path d="M2490 347 c0 -83 -4 -134 -12 -147 -10 -16 -10 -23 4 -36 15 -15 17
-15 28 5 8 16 8 26 1 35 -7 8 -11 61 -10 136 0 67 -2 124 -5 128 -3 3 -6 -52
-6 -121z"/>
<path d="M3514 350 c0 -63 1 -89 3 -57 2 31 2 83 0 115 -2 31 -3 5 -3 -58z"/>
<path d="M3865 406 c-4 -32 -5 -88 -2 -124 3 -40 1 -72 -6 -84 -9 -13 -9 -20
0 -29 7 -7 9 -38 6 -90 -5 -71 -4 -79 12 -79 16 0 17 8 12 79 -3 48 -1 83 5
89 6 6 7 18 3 29 -5 10 -8 56 -7 103 1 47 -2 103 -6 125 l-9 40 -8 -59z"/>
<path d="M6604 350 c0 -63 1 -89 3 -57 2 31 2 83 0 115 -2 31 -3 5 -3 -58z"/>
<path d="M8314 350 c0 -63 1 -89 3 -57 2 31 2 83 0 115 -2 31 -3 5 -3 -58z"/>
<path d="M8644 350 c0 -63 1 -89 3 -57 2 31 2 83 0 115 -2 31 -3 5 -3 -58z"/>
<path d="M784 355 c0 -55 1 -76 3 -47 2 29 2 74 0 100 -2 26 -3 2 -3 -53z"/>
<path d="M5584 350 c0 -52 1 -74 3 -47 2 26 2 68 0 95 -2 26 -3 4 -3 -48z"/>
<path d="M7624 350 c0 -52 1 -74 3 -47 2 26 2 68 0 95 -2 26 -3 4 -3 -48z"/>
<path d="M4314 263 c-4 -15 -13 -34 -21 -41 -7 -7 -13 -22 -13 -33 0 -10 -4
-19 -10 -19 -5 0 -10 -7 -10 -15 0 -8 5 -15 10 -15 6 0 10 6 10 14 0 8 7 16
15 20 8 3 15 16 15 30 0 13 7 26 15 30 16 6 21 56 5 56 -5 0 -13 -12 -16 -27z"/>
<path d="M4892 260 c0 -19 2 -27 5 -17 2 9 2 25 0 35 -3 9 -5 1 -5 -18z"/>
<path d="M1460 205 c-9 -11 -11 -22 -4 -32 13 -21 25 -21 38 -1 8 14 7 21 -5
33 -14 15 -17 15 -29 0z"/>
<path d="M4881 206 c-16 -19 -7 -46 14 -46 22 0 30 29 13 46 -13 13 -16 13
-27 0z"/>
<path d="M8301 206 c-16 -19 -7 -46 14 -46 22 0 30 29 13 46 -13 13 -16 13
-27 0z"/>
<path d="M432 196 l-23 -12 25 -12 c19 -8 27 -8 35 2 18 22 -9 37 -37 22z"/>
<path d="M770 200 c-13 -8 -13 -11 1 -26 14 -13 20 -14 37 -3 19 12 19 14 4
26 -21 15 -23 15 -42 3z"/>
<path d="M1791 201 c-12 -8 -12 -12 -2 -25 10 -12 18 -13 37 -4 22 10 22 12 6
24 -20 16 -23 16 -41 5z"/>
<path d="M2138 196 c-16 -12 -16 -14 6 -24 29 -13 52 3 35 25 -14 16 -19 16
-41 -1z"/>
<path d="M3496 201 c-8 -12 3 -41 15 -41 5 0 18 5 28 12 18 11 18 13 3 25 -20
15 -39 16 -46 4z"/>
<path d="M5565 200 c-3 -6 -62 -11 -133 -12 l-127 -2 124 -3 c69 -2 130 -8
137 -13 14 -13 44 -2 44 15 0 7 -7 16 -16 19 -21 8 -22 8 -29 -4z"/>
<path d="M5901 196 c-18 -21 10 -40 34 -22 18 13 18 14 -2 24 -16 9 -24 8 -32
-2z"/>
<path d="M6583 194 c-7 -20 17 -37 34 -23 15 13 6 39 -13 39 -8 0 -17 -7 -21
-16z"/>
<path d="M6921 196 c-18 -22 9 -37 38 -22 13 7 20 15 15 18 -26 14 -44 15 -53
4z"/>
<path d="M7272 196 l-23 -12 25 -12 c19 -8 27 -8 35 2 18 22 -9 37 -37 22z"/>
<path d="M7613 203 c-18 -7 -16 -30 3 -37 24 -9 47 13 33 30 -12 15 -16 16
-36 7z"/>
<path d="M8627 196 c-9 -23 19 -41 38 -26 12 10 13 16 4 26 -15 18 -35 18 -42
0z"/>
<path d="M75 190 c-9 -15 21 -23 52 -15 21 5 24 8 12 16 -19 12 -56 11 -64 -1z"/>
<path d="M1095 190 c-3 -5 0 -13 9 -16 21 -8 61 -1 61 11 0 14 -62 19 -70 5z"/>
<path d="M2805 190 c-3 -5 0 -13 9 -16 21 -8 61 -1 61 11 0 14 -62 19 -70 5z"/>
<path d="M5205 190 c-3 -5 0 -13 9 -16 21 -8 61 -1 61 11 0 14 -62 19 -70 5z"/>
<path d="M6231 191 c-12 -8 -9 -11 12 -16 31 -8 61 0 52 15 -8 12 -45 13 -64
1z"/>
<path d="M7935 190 c-3 -5 0 -13 9 -16 21 -8 61 -1 61 11 0 14 -62 19 -70 5z"/>
<path d="M243 183 c26 -2 67 -2 90 0 23 2 2 3 -48 3 -50 0 -68 -1 -42 -3z"/>
<path d="M562 183 c32 -2 84 -2 116 0 31 2 5 3 -58 3 -63 0 -89 -1 -58 -3z"/>
<path d="M908 183 c28 -2 76 -2 105 0 28 2 5 3 -53 3 -58 0 -81 -1 -52 -3z"/>
<path d="M1248 183 c28 -2 76 -2 105 0 28 2 5 3 -53 3 -58 0 -81 -1 -52 -3z"/>
<path d="M1648 183 c18 -2 45 -2 60 0 15 2 0 4 -33 4 -33 0 -45 -2 -27 -4z"/>
<path d="M1928 183 c28 -2 76 -2 105 0 28 2 5 3 -53 3 -58 0 -81 -1 -52 -3z"/>
<path d="M2273 183 c31 -2 83 -2 115 0 31 2 5 3 -58 3 -63 0 -89 -1 -57 -3z"/>
<path d="M2613 183 c26 -2 68 -2 95 0 26 2 4 3 -48 3 -52 0 -74 -1 -47 -3z"/>
<path d="M2958 183 c28 -2 76 -2 105 0 28 2 5 3 -53 3 -58 0 -81 -1 -52 -3z"/>
<path d="M3303 183 c26 -2 68 -2 95 0 26 2 4 3 -48 3 -52 0 -74 -1 -47 -3z"/>
<path d="M3648 183 c28 -2 76 -2 105 0 28 2 5 3 -53 3 -58 0 -81 -1 -52 -3z"/>
<path d="M3963 183 c9 -2 25 -2 35 0 9 3 1 5 -18 5 -19 0 -27 -2 -17 -5z"/>
<path d="M5018 183 c28 -2 76 -2 105 0 28 2 5 3 -53 3 -58 0 -81 -1 -52 -3z"/>
<path d="M5713 183 c32 -2 81 -2 110 0 29 2 3 3 -58 3 -60 0 -84 -1 -52 -3z"/>
<path d="M6018 183 c34 -2 88 -2 120 0 31 2 3 3 -63 3 -66 0 -92 -1 -57 -3z"/>
<path d="M6383 183 c31 -2 83 -2 115 0 31 2 5 3 -58 3 -63 0 -89 -1 -57 -3z"/>
<path d="M6718 183 c34 -2 88 -2 120 0 31 2 3 3 -63 3 -66 0 -92 -1 -57 -3z"/>
<path d="M7068 183 c28 -2 76 -2 105 0 28 2 5 3 -53 3 -58 0 -81 -1 -52 -3z"/>
<path d="M7403 183 c31 -2 83 -2 115 0 31 2 5 3 -58 3 -63 0 -89 -1 -57 -3z"/>
<path d="M7748 183 c28 -2 76 -2 105 0 28 2 5 3 -53 3 -58 0 -81 -1 -52 -3z"/>
<path d="M8088 183 c28 -2 76 -2 105 0 28 2 5 3 -53 3 -58 0 -81 -1 -52 -3z"/>
<path d="M8433 183 c26 -2 68 -2 95 0 26 2 4 3 -48 3 -52 0 -74 -1 -47 -3z"/>
<path d="M8792 183 c37 -2 100 -2 140 0 40 1 10 3 -67 3 -77 0 -110 -1 -73 -3z"/>
<path d="M1471 73 c0 -40 2 -73 7 -73 4 0 6 24 4 52 -5 89 -9 97 -11 21z"/>
<path d="M2491 73 c-1 -40 3 -73 7 -73 5 0 7 28 4 63 -5 89 -10 94 -11 10z"/>
<path d="M3512 70 c0 -59 2 -67 8 -37 4 20 4 54 0 75 -6 29 -8 21 -8 -38z"/>
<path d="M4893 65 c0 -38 2 -53 4 -32 2 20 2 52 0 70 -2 17 -4 1 -4 -38z"/>
<path d="M8313 65 c0 -38 2 -53 4 -32 2 20 2 52 0 70 -2 17 -4 1 -4 -38z"/>
<path d="M8643 65 c0 -38 2 -53 4 -32 2 20 2 52 0 70 -2 17 -4 1 -4 -38z"/>
<path d="M783 55 c0 -33 2 -45 4 -27 2 18 2 45 0 60 -2 15 -4 0 -4 -33z"/>
<path d="M5583 55 c0 -33 2 -45 4 -27 2 18 2 45 0 60 -2 15 -4 0 -4 -33z"/>
<path d="M6603 55 c0 -33 2 -45 4 -27 2 18 2 45 0 60 -2 15 -4 0 -4 -33z"/>
<path d="M7623 55 c0 -33 2 -45 4 -27 2 18 2 45 0 60 -2 15 -4 0 -4 -33z"/>
</g>
</svg>
