<?xml version="1.0" standalone="no"?>
<!DOCTYPE svg PUBLIC "-//W3C//DTD SVG 20010904//EN"
 "http://www.w3.org/TR/2001/REC-SVG-20010904/DTD/svg10.dtd">
<svg version="1.0" xmlns="http://www.w3.org/2000/svg"
 width="300.000000pt" height="206.000000pt" viewBox="0 0 300.000000 206.000000"
 preserveAspectRatio="xMidYMid meet">
<metadata>
Created by potrace 1.10, written by Peter Selinger 2001-2011
</metadata>
<g transform="translate(0.000000,206.000000) scale(0.100000,-0.100000)"
fill="#000000" stroke="none">
<path d="M152 1888 l-2 -177 -77 -4 -78 -3 78 -2 77 -2 0 -150 0 -149 -77 -4
-78 -3 78 -2 77 -2 0 -75 0 -74 -77 -4 -78 -3 77 -2 77 -2 0 -150 0 -149 -77
-4 -77 -3 78 -2 77 -2 0 -75 0 -74 -78 -4 -77 -3 78 -2 77 -2 0 -75 0 -74 -77
-4 -78 -3 78 -2 77 -2 0 -150 0 -149 -77 -4 -78 -3 77 -2 77 -2 4 -148 c1 -81
4 -11 5 156 l2 302 385 0 385 0 0 -150 0 -150 -75 0 -74 0 -4 68 -3 67 -2 -67
-2 -68 -150 0 -149 0 -4 68 -3 67 -2 -67 -2 -67 -62 -4 -63 -3 62 -2 62 -2 4
-67 3 -68 2 68 2 67 150 0 149 0 4 -67 3 -68 2 68 2 67 75 0 74 0 4 -148 c1
-81 4 -11 5 155 l2 302 143 4 142 3 -142 2 -142 2 -4 73 -3 72 -2 -72 -2 -73
-75 0 -74 0 -4 58 -3 57 -2 -57 -2 -57 -150 0 -149 0 -4 72 -3 72 -2 -72 -2
-73 -150 0 -150 0 0 75 0 75 188 3 187 2 -187 3 -188 2 0 75 0 75 150 0 149 0
4 -72 3 -73 2 72 c2 66 4 72 25 76 12 2 -58 5 -155 6 l-178 1 0 150 0 150 384
0 385 0 4 -42 4 -43 1 42 2 42 63 4 62 3 -62 2 -63 2 0 75 0 76 155 -2 156 -1
0 332 c0 183 -3 335 -6 338 -3 3 -5 -144 -5 -326 l0 -332 -150 0 -150 0 -3
333 -2 332 -3 -332 -2 -333 -75 0 -74 0 -4 68 -3 67 -2 -67 -2 -68 -305 0
-305 0 0 150 0 149 68 4 67 3 -67 2 -68 2 -3 178 -2 177 -3 -177z m620 -570
l2 -73 3 73 4 72 74 0 75 0 0 -75 0 -75 -385 0 -385 0 0 75 0 75 305 0 305 0
2 -72z"/>
<path d="M463 1315 c0 -38 2 -53 4 -32 2 20 2 52 0 70 -2 17 -4 1 -4 -38z"/>
<path d="M461 2043 c-1 -20 -7 -22 -68 -26 -38 -2 1 -4 85 -5 83 -1 152 1 152
6 0 4 -36 6 -79 4 -76 -3 -80 -3 -84 20 -4 22 -4 22 -6 1z"/>
<path d="M771 2038 l-1 -28 78 2 77 2 -72 3 c-65 4 -72 6 -76 26 -4 18 -5 17
-6 -5z"/>
<path d="M1404 1790 c0 -151 2 -213 3 -137 2 75 2 199 0 275 -1 75 -3 13 -3
-138z"/>
<path d="M1562 2040 c-2 -14 -3 -93 -2 -177 l1 -152 -73 -4 -73 -3 72 -2 72
-2 4 -52 3 -53 2 52 2 52 83 4 82 3 -82 2 -83 2 -3 178 c-1 97 -4 166 -5 152z"/>
<path d="M1872 2043 c-2 -20 -9 -22 -69 -26 l-68 -3 68 -2 67 -2 0 -150 0
-149 -67 -4 -68 -3 68 -2 67 -2 0 -149 0 -150 -42 -4 -43 -4 42 -1 c41 -2 42
-3 46 -39 l4 -38 1 38 2 37 230 0 229 0 4 -72 3 -73 2 73 2 72 150 0 150 0 0
-75 0 -75 -257 -3 -258 -2 257 -3 257 -2 4 -142 3 -143 2 143 2 142 75 0 75 0
0 -150 0 -149 -67 -4 -68 -3 68 -2 67 -2 0 -75 0 -75 -74 0 -75 0 -4 48 -3 47
-2 -47 -2 -47 -62 -4 -63 -3 63 -2 62 -2 2 -382 3 -383 2 302 3 302 73 4 72 3
-72 2 -73 2 0 75 0 75 75 0 75 0 3 -382 2 -383 3 382 2 382 93 4 92 3 -92 2
-93 2 0 76 0 75 85 -2 c47 -1 88 1 92 5 3 3 -35 6 -85 6 l-92 0 0 150 0 149
93 4 92 3 -92 2 -93 2 0 75 0 74 93 4 92 3 -92 2 -93 2 -3 333 -2 332 -3 -332
-2 -333 -75 0 -75 0 -3 333 -2 332 -3 -332 -2 -333 -385 0 -385 0 -3 333 c-1
182 -3 322 -5 310z m938 -728 l0 -75 -75 0 -75 0 0 75 0 75 75 0 75 0 0 -75z"/>
<path d="M2341 2042 c-1 -23 -3 -23 -81 -20 -44 2 -80 0 -80 -4 0 -5 69 -7
153 -6 83 1 122 3 85 5 -59 4 -67 6 -71 26 -4 22 -4 22 -6 -1z"/>
<path d="M1960 2020 l-75 -6 78 -2 c46 -1 77 2 77 8 0 6 -1 9 -2 8 -2 -1 -37
-4 -78 -8z"/>
<path d="M33 2013 c20 -2 54 -2 75 0 20 2 3 4 -38 4 -41 0 -58 -2 -37 -4z"/>
<path d="M198 2013 c18 -2 45 -2 60 0 15 2 0 4 -33 4 -33 0 -45 -2 -27 -4z"/>
<path d="M668 2013 c17 -2 47 -2 65 0 17 2 3 4 -33 4 -36 0 -50 -2 -32 -4z"/>
<path d="M978 2013 c17 -2 47 -2 65 0 17 2 3 4 -33 4 -36 0 -50 -2 -32 -4z"/>
<path d="M1138 2013 c17 -2 47 -2 65 0 17 2 3 4 -33 4 -36 0 -50 -2 -32 -4z"/>
<path d="M1298 2013 c17 -2 47 -2 65 0 17 2 3 4 -33 4 -36 0 -50 -2 -32 -4z"/>
<path d="M1448 2013 c17 -2 47 -2 65 0 17 2 3 4 -33 4 -36 0 -50 -2 -32 -4z"/>
<path d="M1608 2013 c17 -2 47 -2 65 0 17 2 3 4 -33 4 -36 0 -50 -2 -32 -4z"/>
<path d="M2078 2013 c18 -2 45 -2 60 0 15 2 0 4 -33 4 -33 0 -45 -2 -27 -4z"/>
<path d="M2548 2013 c17 -2 47 -2 65 0 17 2 3 4 -33 4 -36 0 -50 -2 -32 -4z"/>
<path d="M2697 2013 c18 -2 50 -2 70 0 21 2 7 4 -32 4 -38 0 -55 -2 -38 -4z"/>
<path d="M2858 2013 c17 -2 47 -2 65 0 17 2 3 4 -33 4 -36 0 -50 -2 -32 -4z"/>
<path d="M463 1940 c0 -36 2 -50 4 -32 2 17 2 47 0 65 -2 17 -4 3 -4 -33z"/>
<path d="M773 1940 c0 -36 2 -50 4 -32 2 17 2 47 0 65 -2 17 -4 3 -4 -33z"/>
<path d="M2343 1940 c0 -36 2 -50 4 -32 2 17 2 47 0 65 -2 17 -4 3 -4 -33z"/>
<path d="M462 1778 l-2 -67 -82 -4 -83 -3 82 -2 82 -2 4 -82 3 -83 2 82 2 82
148 4 147 3 -147 2 -147 2 -4 68 -3 67 -2 -67z"/>
<path d="M774 1705 c0 -77 1 -110 3 -73 l4 67 72 4 72 3 -72 2 -72 2 -4 68
c-2 37 -3 4 -3 -73z"/>
<path d="M2340 1775 c-3 -38 -2 -108 1 -155 l5 -85 2 82 2 82 68 4 67 3 -67 2
-67 2 -3 68 -3 67 -5 -70z"/>
<path d="M1020 1709 c-56 -4 -38 -6 70 -6 140 0 160 3 55 9 -27 2 -84 0 -125
-3z"/>
<path d="M2180 1708 c0 -5 33 -7 73 -7 76 2 68 6 -21 11 -28 2 -52 0 -52 -4z"/>
<path d="M1298 1703 c17 -2 47 -2 65 0 17 2 3 4 -33 4 -36 0 -50 -2 -32 -4z"/>
<path d="M1918 1703 c17 -2 47 -2 65 0 17 2 3 4 -33 4 -36 0 -50 -2 -32 -4z"/>
<path d="M2078 1703 c17 -2 47 -2 65 0 17 2 3 4 -33 4 -36 0 -50 -2 -32 -4z"/>
<path d="M2528 1703 c23 -2 59 -2 80 0 20 2 1 4 -43 4 -44 0 -61 -2 -37 -4z"/>
<path d="M2698 1703 c17 -2 47 -2 65 0 17 2 3 4 -33 4 -36 0 -50 -2 -32 -4z"/>
<path d="M2858 1703 c17 -2 47 -2 65 0 17 2 3 4 -33 4 -36 0 -50 -2 -32 -4z"/>
<path d="M1673 1595 c-3 -9 -3 -19 0 -22 10 -9 -12 -43 -28 -43 -18 0 -19 5
-3 30 9 15 10 22 1 31 -19 19 -35 0 -28 -32 l7 -30 -26 26 c-22 21 -29 24 -46
15 -52 -28 -49 -111 6 -165 l35 -35 -14 -47 c-13 -44 -14 -45 -20 -20 -4 14
-29 52 -56 85 -27 32 -56 72 -65 90 -21 41 -37 41 -30 0 16 -92 39 -142 91
-198 56 -60 58 -69 47 -154 -6 -43 -9 -46 -36 -46 -25 0 -29 3 -23 18 17 41
26 85 23 110 l-3 27 -23 -35 c-22 -34 -23 -45 -7 -82 4 -11 3 -18 -4 -18 -6 0
-11 7 -11 16 0 8 -4 13 -8 10 -5 -3 -16 17 -26 43 -9 27 -23 57 -30 67 -11 15
-11 27 2 70 17 61 12 81 -23 94 -61 23 -177 -91 -131 -129 15 -12 48 -19 97
-20 17 -1 33 -10 44 -27 20 -31 27 -64 14 -64 -6 0 -7 -5 -4 -11 9 -13 -64 17
-85 36 -9 8 -21 15 -26 15 -5 -1 0 -8 11 -18 17 -14 19 -21 10 -38 -13 -25
-40 -18 -40 11 0 13 -6 19 -18 19 -13 -2 -16 3 -11 18 4 14 0 21 -14 25 -13 3
-18 11 -15 19 3 8 -2 17 -11 20 -19 7 -27 2 -30 -18 -1 -7 -5 -18 -9 -25 -5
-7 0 -16 12 -22 18 -10 19 -8 15 24 -2 19 -1 35 3 35 5 0 9 -18 11 -40 2 -26
-2 -40 -10 -40 -9 0 -9 -3 -1 -11 17 -17 31 -3 25 26 -2 14 0 25 5 25 5 0 9
-18 10 -40 1 -28 -2 -40 -12 -40 -8 0 -17 5 -20 10 -3 6 -15 10 -27 10 -14 0
-18 5 -14 16 4 11 -1 18 -14 21 -22 6 -27 23 -7 24 6 0 3 4 -8 9 -19 8 -19 9
2 9 20 1 22 5 17 31 -4 20 -2 30 5 30 8 0 10 -8 6 -22 -5 -18 -4 -20 4 -8 17
23 13 40 -9 40 -13 0 -20 -7 -20 -18 0 -24 -26 -59 -37 -49 -4 5 0 14 10 21
22 17 22 22 -3 29 -11 3 -20 11 -20 17 0 10 3 10 15 0 11 -9 15 -9 15 -1 0 17
-30 25 -43 12 -9 -10 -7 -16 10 -30 20 -17 20 -19 6 -34 -15 -15 -15 -17 3
-24 10 -4 19 -15 19 -23 0 -8 10 -16 23 -18 19 -3 21 -6 11 -18 -9 -11 -7 -15
7 -21 11 -5 19 -15 19 -23 0 -18 37 -25 63 -11 14 8 18 17 14 37 -3 19 -1 25
7 20 6 -4 9 -11 6 -16 -3 -4 -1 -19 4 -32 6 -12 10 -17 10 -10 1 6 5 12 11 12
5 0 7 -7 3 -15 -3 -9 -13 -15 -22 -14 -30 3 -42 -1 -36 -11 3 -5 1 -10 -4 -10
-6 0 -11 3 -11 8 0 4 -20 6 -45 4 -25 -2 -42 -8 -39 -13 8 -14 934 -11 934 2
0 7 -13 9 -30 7 -17 -3 -33 -1 -36 3 -2 4 -22 6 -44 3 -31 -4 -40 -1 -40 11 0
8 9 15 20 15 11 0 20 -4 20 -10 0 -18 22 -10 27 10 3 11 11 20 18 20 18 0 26
-25 12 -39 -9 -9 -8 -11 6 -5 10 3 16 12 13 19 -3 8 2 16 10 19 8 3 14 12 14
21 0 8 6 15 14 15 18 0 29 30 13 35 -6 2 -21 5 -32 7 -11 2 -22 12 -25 23 -8
28 -36 26 -33 -2 2 -15 -2 -21 -11 -17 -8 3 -17 1 -20 -5 -4 -6 -13 -8 -22 -4
-13 5 -12 7 2 17 14 11 14 13 1 25 -13 10 -18 8 -29 -15 -7 -15 -19 -29 -26
-32 -11 -3 -11 -1 -1 16 7 12 10 24 7 28 -11 10 -28 -6 -28 -27 0 -10 -7 -19
-15 -19 -23 0 -4 31 47 74 30 26 39 39 31 47 -13 13 -33 4 -33 -15 0 -8 -8
-20 -17 -27 -9 -8 -34 -40 -55 -73 -30 -47 -39 -55 -44 -41 -5 12 0 24 15 36
15 12 18 20 10 25 -7 4 -18 0 -24 -10 -11 -14 -12 -13 -12 11 0 16 2 22 4 15
3 -6 9 -10 13 -7 13 8 1 35 -15 35 -18 0 -23 -19 -14 -57 4 -18 3 -33 -2 -33
-5 0 -9 7 -9 15 0 8 -7 15 -15 15 -25 0 -17 -18 14 -35 17 -8 32 -19 35 -24 9
-14 -15 -61 -31 -61 -16 0 -17 22 -2 37 14 14 3 33 -17 33 -11 0 -13 -8 -9
-33 6 -33 6 -33 -35 -35 l-42 -3 20 33 c25 42 39 89 46 156 5 53 -7 72 -18 28
-3 -14 -31 -58 -61 -98 -62 -82 -74 -113 -19 -46 46 55 44 53 44 41 0 -6 -17
-31 -37 -56 -29 -36 -39 -43 -46 -32 -12 22 1 113 20 142 25 38 28 8 4 -33
-12 -19 -16 -32 -11 -29 14 9 50 81 50 100 0 24 -13 18 -37 -18 -27 -38 -29
-23 -6 49 15 50 18 53 44 47 45 -9 95 5 128 36 40 37 41 69 2 84 -26 9 -27 12
-14 22 10 8 14 19 10 29 -9 22 -31 16 -35 -10 -6 -32 -18 -36 -32 -9 -12 22
-11 27 5 45 18 19 15 50 -5 50 -6 0 -13 -7 -17 -15z m-72 -66 c19 -28 20 -32
6 -46 -13 -14 -16 -13 -22 6 -3 11 -17 24 -31 27 -27 7 -30 14 -12 32 19 19
35 14 59 -19z m89 -39 c0 -21 -16 -35 -24 -22 -8 13 5 53 15 46 5 -3 9 -14 9
-24z m-122 -4 c14 -18 27 -24 52 -23 27 2 36 -3 47 -23 9 -18 19 -24 38 -22
13 2 30 0 36 -4 15 -9 -47 -43 -79 -44 -61 -1 -132 63 -132 118 0 29 14 28 38
-2z m202 -43 c0 -19 -4 -24 -16 -19 -9 3 -29 6 -45 6 -38 0 -39 25 -1 38 39
13 62 4 62 -25z m-267 -75 c20 -25 37 -49 37 -53 0 -10 -70 70 -87 99 -16 27
-17 12 -2 -17 14 -26 81 -103 89 -100 3 1 6 -12 7 -29 l2 -30 -39 44 c-49 53
-84 122 -75 146 6 15 8 15 18 1 7 -8 29 -36 50 -61z m-108 3 c6 -21 -3 -51
-16 -51 -5 0 -9 10 -9 23 0 13 -4 27 -10 33 -6 6 -3 10 10 11 10 1 22 -6 25
-16z m-41 -24 c6 -15 7 -30 3 -34 -10 -9 -36 27 -37 50 0 27 23 15 34 -16z
m-47 9 c-3 -8 1 -20 9 -26 15 -13 19 -40 6 -40 -4 0 -18 7 -30 16 -25 18 -29
44 -6 44 8 0 12 5 9 10 -3 6 -1 10 5 10 7 0 10 -6 7 -14z m-17 -67 l25 -20
-30 3 c-19 2 -31 9 -33 21 -4 22 7 21 38 -4z m86 -14 c-6 -16 -56 -21 -56 -5
0 13 54 40 58 29 2 -5 1 -16 -2 -24z m299 -94 c-18 -57 -50 -101 -71 -101 -16
0 -19 16 -3 25 14 9 69 86 69 97 0 5 -4 6 -10 3 -5 -3 -10 -2 -10 4 0 16 18
22 23 9 3 -7 6 -5 6 6 1 11 4 17 7 13 3 -3 -1 -28 -11 -56z m332 20 c-3 -33
-1 -38 15 -33 10 2 15 8 12 13 -3 5 4 9 15 9 30 0 26 -17 -6 -25 -16 -4 -22
-10 -15 -12 14 -5 16 -23 3 -23 -24 0 -41 33 -37 68 6 45 5 42 12 42 3 0 3
-17 1 -39z m-30 -45 c-2 -23 -7 -31 -21 -31 -11 0 -21 6 -24 14 -3 10 0 12 11
8 8 -3 18 0 20 7 4 9 -2 11 -20 8 -18 -3 -23 -9 -20 -23 3 -12 0 -19 -9 -19
-8 0 -14 -9 -14 -21 0 -18 -5 -20 -42 -17 -40 3 -43 5 -40 31 1 15 -2 27 -8
27 -7 0 -7 7 1 21 10 19 17 21 65 16 30 -3 54 -3 54 1 0 4 11 8 25 8 22 2 24
-2 22 -30z m-631 -29 c1 -15 -2 -25 -7 -22 -5 4 -9 16 -9 28 0 18 -2 19 -10 7
-5 -8 -10 -10 -10 -4 0 6 3 14 7 18 13 12 26 0 29 -27z m92 -15 c22 -29 14
-41 -28 -40 -46 0 -53 7 -44 42 5 22 10 25 33 20 14 -4 32 -13 39 -22z m-100
-20 c14 -21 13 -22 -22 -22 -34 0 -35 1 -24 25 13 29 25 28 46 -3z"/>
<path d="M1828 1116 c-4 -21 -2 -23 16 -16 25 9 28 33 5 38 -11 2 -18 -6 -21
-22z"/>
<path d="M463 1470 c0 -36 2 -50 4 -32 2 17 2 47 0 65 -2 17 -4 3 -4 -33z"/>
<path d="M2343 1470 c0 -36 2 -50 4 -32 2 17 2 47 0 65 -2 17 -4 3 -4 -33z"/>
<path d="M2183 1315 c0 -33 2 -45 4 -27 2 18 2 45 0 60 -2 15 -4 0 -4 -33z"/>
<path d="M2078 1275 c-10 -22 -13 -23 -20 -10 -11 18 -38 20 -38 3 1 -29 26
-54 58 -56 24 -3 32 1 32 12 0 9 -6 16 -12 16 -8 1 -6 6 5 14 9 7 17 21 17 30
0 25 -29 19 -42 -9z"/>
<path d="M1240 1241 c0 -13 36 -42 43 -35 3 4 27 -6 52 -21 26 -15 49 -24 52
-22 3 3 -12 15 -34 26 -21 11 -32 20 -25 21 7 0 24 -7 38 -16 13 -9 27 -14 30
-11 9 9 -56 39 -71 33 -8 -3 -15 -1 -17 5 -4 11 -68 30 -68 20z"/>
<path d="M463 1160 c0 -36 2 -50 4 -32 2 17 2 47 0 65 -2 17 -4 3 -4 -33z"/>
<path d="M782 1093 c3 -33 7 -38 31 -41 15 -2 27 1 27 7 0 6 -9 11 -20 11 -11
0 -20 5 -20 11 0 6 7 9 15 5 8 -3 15 -1 15 4 0 6 -7 10 -15 10 -23 0 -18 18 8
23 15 3 12 5 -11 6 -32 1 -33 0 -30 -36z"/>
<path d="M877 1123 c-13 -12 -7 -22 21 -38 l27 -16 -27 6 c-33 6 -38 -10 -7
-20 13 -5 27 -1 37 8 14 14 13 17 -11 28 -32 14 -36 33 -6 24 15 -5 19 -4 15
4 -8 12 -39 15 -49 4z"/>
<path d="M975 1116 c10 -7 16 -20 13 -28 -4 -8 -2 -21 3 -29 6 -10 9 -3 9 23
0 26 5 38 18 41 9 3 -1 5 -22 6 -36 1 -38 0 -21 -13z"/>
<path d="M2120 1114 c0 -14 3 -14 15 -4 12 10 15 10 15 -3 0 -8 -7 -20 -15
-27 -22 -18 -18 -30 10 -30 14 0 25 5 25 10 0 6 -5 10 -11 10 -8 0 -8 5 1 15
7 8 10 22 6 30 -7 20 -46 20 -46 -1z"/>
<path d="M2204 1104 c-9 -34 18 -64 44 -48 22 14 27 41 12 59 -20 24 -49 18
-56 -11z m46 -15 c0 -10 -7 -19 -15 -19 -15 0 -21 31 -9 43 11 10 24 -3 24
-24z"/>
<path d="M2300 1114 c0 -14 3 -14 15 -4 12 10 15 10 15 -3 0 -8 -7 -20 -15
-27 -22 -18 -18 -30 10 -30 14 0 25 5 25 10 0 6 -5 10 -11 10 -8 0 -8 5 1 15
7 8 10 22 6 30 -7 20 -46 20 -46 -1z"/>
<path d="M2398 1105 c-23 -30 -22 -35 2 -35 11 0 20 -6 20 -12 0 -10 2 -10 8
0 9 14 4 72 -7 72 -3 0 -14 -11 -23 -25z"/>
<path d="M235 1080 l-70 -6 78 -2 c46 -1 77 2 77 8 0 6 -3 9 -7 8 -5 -1 -39
-4 -78 -8z"/>
<path d="M395 1079 c-51 -4 -31 -6 70 -6 135 0 154 3 50 9 -27 2 -81 0 -120
-3z"/>
<path d="M27 1073 c18 -2 50 -2 70 0 21 2 7 4 -32 4 -38 0 -55 -2 -38 -4z"/>
<path d="M2548 1073 c18 -2 45 -2 60 0 15 2 0 4 -33 4 -33 0 -45 -2 -27 -4z"/>
<path d="M2708 1073 c18 -2 45 -2 60 0 15 2 0 4 -33 4 -33 0 -45 -2 -27 -4z"/>
<path d="M463 1000 c0 -36 2 -50 4 -32 2 17 2 47 0 65 -2 17 -4 3 -4 -33z"/>
<path d="M550 865 c0 -78 3 -95 15 -95 11 0 15 12 15 46 l0 46 45 -6 c36 -5
45 -4 45 9 0 11 -12 15 -48 15 -48 0 -49 0 -44 30 4 29 6 30 58 30 30 0 54 5
54 10 0 6 -30 10 -70 10 l-70 0 0 -95z"/>
<path d="M730 865 l0 -96 68 3 c79 4 87 23 9 23 l-52 0 -1 80 c-1 48 -6 81
-13 83 -8 3 -11 -26 -11 -93z"/>
<path d="M955 948 c-32 -19 -44 -41 -45 -81 0 -30 7 -45 30 -69 27 -27 36 -30
72 -25 52 7 78 33 85 85 5 36 2 45 -25 72 -33 32 -79 40 -117 18z m86 -19 c65
-34 29 -139 -47 -139 -24 0 -64 47 -64 75 0 31 41 75 70 75 12 0 30 -5 41 -11z"/>
<path d="M1122 948 c3 -7 17 -50 33 -96 15 -46 32 -81 37 -80 6 2 19 31 30 63
10 33 21 67 24 75 4 9 16 -16 29 -60 12 -41 28 -75 34 -75 7 0 26 41 42 90 34
106 32 95 15 95 -8 0 -20 -26 -32 -70 -10 -38 -21 -70 -24 -70 -4 0 -15 30
-26 68 -12 44 -24 67 -34 67 -10 0 -22 -23 -34 -67 -11 -38 -22 -68 -26 -68
-3 0 -14 32 -24 70 -13 47 -23 70 -33 70 -8 0 -13 -6 -11 -12z"/>
<path d="M1420 865 l0 -95 71 0 c49 0 69 4 67 12 -2 6 -27 11 -59 12 -53 1
-54 1 -54 31 0 29 1 30 48 28 35 -1 47 2 47 13 0 10 -14 14 -50 14 -49 0 -50
1 -50 30 0 30 0 30 60 30 33 0 60 4 60 10 0 6 -30 10 -70 10 l-70 0 0 -95z"/>
<path d="M1600 865 c0 -57 4 -95 10 -95 6 0 10 18 10 40 0 37 2 40 28 40 23 0
33 -8 51 -40 12 -22 29 -40 37 -40 16 0 10 15 -19 55 -14 18 -13 22 9 42 50
46 15 93 -71 93 l-55 0 0 -95z m119 57 c17 -31 -5 -52 -54 -52 -45 0 -45 0
-45 35 0 35 0 35 45 35 32 0 47 -5 54 -18z"/>
<path d="M1887 942 c-33 -36 -11 -74 50 -87 44 -9 58 -28 38 -49 -22 -22 -51
-20 -75 4 -21 21 -40 26 -40 11 0 -18 53 -51 81 -51 31 0 69 30 69 54 0 23
-28 45 -65 52 -44 8 -62 28 -45 49 7 8 23 15 35 15 12 0 28 -7 35 -15 7 -8 19
-15 28 -15 12 0 10 6 -8 25 -28 30 -79 34 -103 7z"/>
<path d="M2050 865 c0 -57 4 -95 10 -95 6 0 10 20 10 45 l0 45 55 0 55 0 0
-45 c0 -31 4 -45 14 -45 10 0 13 21 13 95 0 74 -3 95 -13 95 -10 0 -14 -13
-14 -40 l0 -40 -55 0 -55 0 0 40 c0 22 -4 40 -10 40 -6 0 -10 -38 -10 -95z"/>
<path d="M2279 931 c-41 -41 -40 -91 1 -133 28 -27 36 -30 73 -25 84 11 116
99 58 158 -41 40 -91 40 -132 0z m118 -17 c20 -20 24 -31 19 -57 -7 -38 -39
-67 -73 -67 -32 0 -73 42 -73 75 0 33 42 75 75 75 14 0 37 -11 52 -26z"/>
<path d="M2482 865 c1 -74 4 -95 14 -95 10 0 14 13 14 39 0 40 0 40 35 34 47
-8 85 17 85 56 0 43 -28 61 -92 61 l-56 0 0 -95z m116 63 c32 -32 1 -68 -57
-68 -29 0 -31 2 -31 40 0 40 0 40 38 40 21 0 43 -5 50 -12z"/>
<path d="M628 763 c18 -2 45 -2 60 0 15 2 0 4 -33 4 -33 0 -45 -2 -27 -4z"/>
<path d="M2342 668 l-2 -58 -141 1 c-78 0 -144 -3 -147 -6 -3 -3 129 -5 293
-5 164 0 296 2 293 5 -3 3 -69 6 -146 6 l-141 0 -4 57 -3 57 -2 -57z"/>
<path d="M1123 658 c-2 -5 50 -8 116 -8 104 0 121 -2 121 -16 0 -9 14 -21 30
-27 18 -7 29 -18 28 -27 -4 -18 -38 -27 -38 -10 0 7 7 9 18 5 13 -5 14 -3 5 6
-6 6 -19 9 -28 5 -14 -5 -15 -9 -5 -21 7 -8 21 -15 31 -15 11 0 19 -5 19 -12
0 -6 3 -8 7 -5 9 10 10 106 1 100 -5 -2 -8 1 -8 6 0 9 12 9 50 1 3 0 -2 -5
-11 -10 -13 -8 -14 -20 -7 -77 5 -44 4 -71 -3 -78 -7 -7 -9 -2 -5 18 4 21 1
27 -13 27 -9 0 -22 5 -28 11 -6 6 -16 8 -22 5 -21 -13 -11 -34 19 -41 20 -4
30 -13 30 -25 0 -26 -14 -32 -36 -15 -10 8 -14 15 -8 15 5 0 16 -6 23 -12 10
-11 11 -10 6 5 -9 21 -45 23 -45 1 0 -9 13 -21 30 -27 23 -9 28 -16 24 -33 -3
-12 -1 -25 5 -28 7 -5 11 4 11 23 0 16 5 42 10 56 l10 26 26 -30 c26 -31 26
-32 15 -113 -15 -108 -15 -107 14 -68 14 19 25 39 25 44 0 6 -4 5 -9 -2 -16
-26 -18 10 -6 128 7 63 13 112 14 107 0 -4 10 -42 21 -83 12 -42 18 -79 15
-82 -3 -3 -5 0 -5 7 0 7 -5 9 -10 6 -6 -4 -10 -3 -9 2 3 20 -2 34 -11 28 -12
-7 -2 -34 23 -62 19 -22 20 -43 1 -88 -7 -17 -4 -17 21 5 77 68 119 113 108
117 -7 3 -26 -5 -43 -17 -26 -19 -29 -24 -18 -38 7 -10 8 -14 4 -10 -5 4 -16
2 -25 -5 -14 -11 -14 -10 -2 6 11 14 11 17 -1 17 -11 0 -17 16 -22 52 -4 29
-16 77 -27 107 -10 30 -19 75 -19 98 0 42 0 43 35 43 23 0 35 -5 35 -14 0 -7
3 -29 6 -47 4 -26 3 -30 -5 -19 -8 11 -9 3 -5 -31 6 -46 -9 -78 -20 -42 -10
35 -16 99 -8 79 8 -19 9 -19 15 3 6 25 0 51 -14 51 -28 0 -21 -103 12 -159 15
-25 19 -45 15 -75 -5 -36 -5 -38 5 -16 6 14 12 80 13 147 1 119 2 123 22 123
22 0 41 -40 29 -60 -4 -6 4 -10 16 -10 20 0 21 -3 15 -46 -3 -26 -6 -53 -6
-60 0 -8 -4 -14 -10 -14 -5 0 -7 7 -3 15 3 10 1 15 -7 13 -7 -2 -15 4 -17 12
-4 12 -3 12 5 1 7 -9 12 -10 16 -2 4 6 3 11 -2 11 -6 0 -9 8 -8 18 0 9 -6 17
-14 17 -24 0 -14 -47 25 -114 l14 -25 6 26 c5 19 11 24 26 21 14 -4 19 -14 19
-39 0 -18 5 -36 10 -39 6 -4 10 8 10 28 0 26 5 36 25 45 27 12 32 27 14 38 -8
4 -7 9 2 15 11 6 11 11 1 21 -9 9 -15 9 -24 -1 -11 -10 -9 -11 7 -5 16 5 18 4
8 -6 -6 -7 -16 -9 -22 -6 -17 11 -13 36 7 36 28 0 46 16 38 35 -6 16 -8 16
-32 0 -22 -14 -28 -15 -35 -4 -14 23 -11 26 28 27 43 2 63 16 45 34 -10 10
-17 10 -33 0 -20 -13 -39 -9 -39 9 0 5 63 9 150 9 83 0 150 3 150 8 0 9 -930
9 -937 0z m395 -75 c1 -37 -3 -83 -9 -102 l-12 -34 -12 24 c-7 13 -15 40 -18
59 -2 19 -2 26 0 16 4 -16 7 -17 15 -5 7 10 8 7 3 -11 -5 -20 -4 -22 5 -10 9
12 10 7 6 -20 -5 -33 -5 -33 5 -8 8 22 6 35 -14 75 -26 51 -21 83 14 83 12 0
16 -13 17 -67z m192 37 c0 -16 -2 -30 -5 -30 -8 0 -23 44 -18 53 10 17 23 5
23 -23z m46 8 c4 -6 0 -16 -9 -23 -13 -9 -14 -14 -4 -24 9 -9 9 -14 -1 -20
-11 -7 -11 -9 2 -14 10 -4 14 -17 13 -41 -3 -43 -12 -53 -32 -36 -18 15 -20
44 -2 37 8 -3 13 3 13 14 0 11 -3 19 -6 19 -5 0 -6 67 -1 93 2 11 19 8 27 -5z"/>
<path d="M1242 309 c1 -173 4 -248 5 -167 l4 147 72 4 72 3 -73 2 -73 2 2 156
c0 85 -2 158 -5 161 -3 4 -5 -135 -4 -308z"/>
<path d="M2900 609 l-75 -5 88 -2 c48 -1 87 0 87 2 0 9 -30 11 -100 5z"/>
<path d="M1870 455 l0 -154 -82 -4 -83 -3 82 -2 82 -2 4 -148 c1 -81 4 -9 5
161 1 169 0 307 -3 307 -3 0 -5 -70 -5 -155z"/>
<path d="M1928 603 c18 -2 45 -2 60 0 15 2 0 4 -33 4 -33 0 -45 -2 -27 -4z"/>
<path d="M463 530 c0 -36 2 -50 4 -32 2 17 2 47 0 65 -2 17 -4 3 -4 -33z"/>
<path d="M773 530 c0 -36 2 -50 4 -32 2 17 2 47 0 65 -2 17 -4 3 -4 -33z"/>
<path d="M2343 530 c0 -36 2 -50 4 -32 2 17 2 47 0 65 -2 17 -4 3 -4 -33z"/>
<path d="M2340 365 l0 -64 -222 -1 c-122 0 -224 -2 -226 -5 -5 -5 212 -8 370
-5 l77 1 4 -68 c2 -37 4 -6 5 70 1 75 0 137 -3 137 -3 0 -5 -29 -5 -65z"/>
<path d="M1404 195 c0 -110 2 -156 3 -103 2 53 2 143 0 200 -1 57 -3 13 -3
-97z"/>
<path d="M198 293 c17 -2 47 -2 65 0 17 2 3 4 -33 4 -36 0 -50 -2 -32 -4z"/>
<path d="M988 293 c23 -2 59 -2 80 0 20 2 1 4 -43 4 -44 0 -61 -2 -37 -4z"/>
<path d="M1138 293 c18 -2 45 -2 60 0 15 2 0 4 -33 4 -33 0 -45 -2 -27 -4z"/>
<path d="M2388 293 c17 -2 47 -2 65 0 17 2 3 4 -33 4 -36 0 -50 -2 -32 -4z"/>
<path d="M2528 293 c23 -2 59 -2 80 0 20 2 1 4 -43 4 -44 0 -61 -2 -37 -4z"/>
<path d="M2697 293 c18 -2 50 -2 70 0 21 2 7 4 -32 4 -38 0 -55 -2 -38 -4z"/>
<path d="M2868 293 c18 -2 45 -2 60 0 15 2 0 4 -33 4 -33 0 -45 -2 -27 -4z"/>
<path d="M1564 125 c0 -72 1 -99 3 -62 2 37 2 96 0 130 -2 34 -3 4 -3 -68z"/>
<path d="M463 60 c0 -36 2 -50 4 -32 2 17 2 47 0 65 -2 17 -4 3 -4 -33z"/>
<path d="M773 60 c0 -36 2 -50 4 -32 2 17 2 47 0 65 -2 17 -4 3 -4 -33z"/>
<path d="M2343 60 c0 -36 2 -50 4 -32 2 17 2 47 0 65 -2 17 -4 3 -4 -33z"/>
<path d="M2183 55 c0 -33 2 -45 4 -27 2 18 2 45 0 60 -2 15 -4 0 -4 -33z"/>
</g>
</svg>
