<?xml version="1.0" standalone="no"?>
<!DOCTYPE svg PUBLIC "-//W3C//DTD SVG 20010904//EN"
 "http://www.w3.org/TR/2001/REC-SVG-20010904/DTD/svg10.dtd">
<svg version="1.0" xmlns="http://www.w3.org/2000/svg"
 width="300.000000pt" height="300.000000pt" viewBox="0 0 300.000000 300.000000"
 preserveAspectRatio="xMidYMid meet">
<metadata>
Created by potrace 1.10, written by Peter Selinger 2001-2011
</metadata>
<g transform="translate(0.000000,300.000000) scale(0.100000,-0.100000)"
fill="#000000" stroke="none">
<path d="M1162 2578 c-19 -19 -14 -45 10 -62 19 -13 25 -14 43 -2 25 16 31 42
15 61 -15 18 -52 19 -68 3z m56 -25 c5 -17 -26 -29 -40 -15 -6 6 -7 15 -3 22
9 14 37 9 43 -7z"/>
<path d="M1488 2491 c-16 -16 -16 -18 2 -34 26 -22 33 -21 20 2 -7 13 -7 22 0
26 12 7 14 25 3 24 -5 0 -16 -8 -25 -18z"/>
<path d="M833 2459 c-56 -16 -91 -85 -64 -127 16 -26 46 -9 51 28 4 31 9 35
37 38 46 5 55 -30 17 -69 -27 -29 -28 -29 -11 -64 9 -19 20 -35 25 -35 15 0
47 28 40 36 -4 4 2 23 14 42 37 61 17 130 -44 151 -17 6 -31 11 -32 10 -1 0
-15 -5 -33 -10z"/>
<path d="M1244 2286 c-33 -33 -34 -37 -34 -110 l0 -75 -82 -4 -83 -3 88 -2 87
-2 0 76 c0 73 1 77 34 110 l34 34 391 0 c421 0 433 -1 458 -52 9 -16 13 -191
16 -618 3 -327 2 -610 0 -628 -6 -40 -17 -41 -32 -3 -33 78 -146 144 -246 144
-103 0 -188 -49 -243 -142 -33 -56 -43 -176 -19 -233 11 -26 12 -39 4 -47 -8
-8 -6 -11 6 -11 9 0 33 -17 52 -39 76 -84 208 -108 317 -59 44 21 59 24 67 14
7 -9 7 -16 -1 -24 -8 -8 16 -41 93 -128 57 -64 117 -132 132 -150 44 -52 107
-44 107 14 0 30 -247 324 -269 320 -9 -1 -21 1 -28 5 -7 4 -20 3 -30 -2 -68
-35 -113 -46 -188 -46 -68 0 -86 4 -120 25 -103 63 -140 133 -133 252 5 90 34
139 113 192 46 30 66 37 128 42 63 5 82 2 126 -17 59 -25 116 -85 131 -138 25
-84 24 -124 -5 -192 -40 -96 -42 -110 -11 -76 34 37 57 119 57 204 0 37 2 347
5 688 4 577 3 622 -13 655 -10 19 -29 40 -43 47 -19 10 -126 13 -428 13 l-404
0 -34 -34z m899 -1668 c13 -13 67 -75 121 -139 66 -80 94 -122 90 -133 -13
-33 -25 -22 -158 129 -101 115 -129 165 -92 165 8 0 26 -10 39 -22z"/>
<path d="M910 2215 c-17 -20 -5 -45 20 -45 11 0 23 7 26 15 6 15 -11 45 -26
45 -4 0 -13 -7 -20 -15z"/>
<path d="M989 2061 l-29 -29 2 -564 3 -563 5 570 c3 314 6 571 8 573 1 1 17
11 35 22 17 11 26 20 19 20 -8 0 -27 -13 -43 -29z"/>
<path d="M1676 2004 c-7 -80 -6 -89 14 -108 18 -18 35 -21 123 -24 100 -3 102
-3 82 15 -11 10 -63 61 -116 111 l-96 93 -7 -87z m115 -30 c38 -37 66 -71 63
-75 -3 -5 -31 -9 -62 -9 -78 0 -102 18 -102 75 0 49 8 75 22 75 5 0 41 -30 79
-66z"/>
<path d="M1050 2012 c0 -5 9 -17 20 -27 l20 -18 -22 -24 c-28 -30 -15 -44 14
-15 l22 22 23 -22 c30 -28 43 -15 15 15 l-22 23 22 22 c29 29 15 42 -15 14
l-24 -22 -18 20 c-19 21 -35 26 -35 12z"/>
<path d="M873 1984 c-25 -11 -12 -25 20 -22 17 2 32 8 32 13 0 11 -33 17 -52
9z"/>
<path d="M791 1919 c-14 -40 -14 -39 3 -39 15 0 29 51 16 63 -4 5 -13 -6 -19
-24z"/>
<path d="M782 1798 c4 -46 28 -49 28 -4 0 26 -4 36 -16 36 -11 0 -14 -8 -12
-32z"/>
<path d="M2288 1791 c-22 -22 -23 -31 -3 -31 8 0 15 5 15 10 0 6 5 10 11 10 8
0 7 -5 -1 -15 -17 -21 -5 -31 15 -12 19 19 19 25 1 43 -18 17 -17 17 -38 -5z"/>
<path d="M1229 1724 c-9 -11 -10 -20 -2 -32 14 -22 43 -22 57 1 9 15 7 21 -8
33 -25 18 -31 18 -47 -2z"/>
<path d="M1575 1727 c-20 -16 -15 -44 11 -54 23 -9 51 23 38 44 -14 23 -27 26
-49 10z"/>
<path d="M780 1680 c0 -20 5 -30 15 -30 10 0 15 10 15 30 0 20 -5 30 -15 30
-10 0 -15 -10 -15 -30z"/>
<path d="M1347 1620 c-38 -33 -54 -70 -31 -70 8 0 14 7 14 15 0 9 11 27 25 40
35 36 97 35 134 -3 15 -15 30 -34 33 -42 3 -8 8 -12 12 -8 13 11 -23 67 -54
83 -47 24 -94 19 -133 -15z"/>
<path d="M786 1593 c-13 -13 -6 -63 9 -63 10 0 15 10 15 29 0 30 -12 46 -24
34z"/>
<path d="M2395 1580 c-24 -27 -13 -68 22 -76 34 -9 57 6 61 40 6 53 -47 76
-83 36z m60 -30 c0 -18 -6 -26 -21 -28 -26 -4 -40 24 -23 45 18 21 44 11 44
-17z"/>
<path d="M787 1473 c-14 -13 -7 -63 8 -63 10 0 15 11 15 35 0 33 -8 43 -23 28z"/>
<path d="M1090 1350 c0 -20 7 -20 350 -20 343 0 350 0 350 20 0 20 -7 20 -350
20 -343 0 -350 0 -350 -20z"/>
<path d="M782 1328 c4 -46 28 -49 28 -4 0 26 -4 36 -16 36 -11 0 -14 -8 -12
-32z"/>
<path d="M660 1315 c0 -8 -7 -15 -15 -15 -8 0 -15 -4 -15 -10 0 -5 6 -10 14
-10 8 0 16 -6 18 -12 3 -9 10 -7 24 6 13 14 15 21 6 24 -6 2 -12 10 -12 18 0
8 -4 14 -10 14 -5 0 -10 -7 -10 -15z"/>
<path d="M1090 1258 c0 -17 23 -18 350 -18 327 0 350 1 350 18 0 16 -23 17
-350 17 -327 0 -350 -1 -350 -17z"/>
<path d="M780 1210 c0 -20 5 -30 15 -30 10 0 15 10 15 30 0 20 -5 30 -15 30
-10 0 -15 -10 -15 -30z"/>
<path d="M1090 1168 c0 -17 22 -18 316 -18 264 0 318 2 330 15 13 13 -24 15
-316 17 -309 3 -330 2 -330 -14z"/>
<path d="M786 1123 c-13 -13 -6 -63 9 -63 10 0 15 10 15 29 0 30 -12 46 -24
34z"/>
<path d="M1090 1075 c0 -13 37 -15 271 -15 163 0 268 4 264 9 -3 5 3 12 12 14
10 3 -109 5 -264 6 -245 1 -283 -1 -283 -14z"/>
<path d="M538 1069 c-25 -14 -24 -75 1 -89 41 -21 81 1 81 45 0 44 -43 67 -82
44z m46 -15 c20 -8 21 -38 2 -53 -19 -16 -46 -3 -46 23 0 34 12 42 44 30z"/>
<path d="M787 1003 c-14 -13 -7 -63 8 -63 10 0 15 11 15 35 0 33 -8 43 -23 28z"/>
<path d="M1090 985 c0 -13 34 -15 244 -15 208 0 245 2 250 15 5 13 -26 15
-244 15 -216 0 -250 -2 -250 -15z"/>
<path d="M1943 933 c20 -2 54 -2 75 0 20 2 3 4 -38 4 -41 0 -58 -2 -37 -4z"/>
<path d="M2089 870 c-7 -74 -34 -126 -82 -161 -141 -102 -317 -26 -347 150
l-8 46 -1 -38 c-3 -109 108 -218 221 -217 132 2 233 101 226 222 l-3 53 -6
-55z"/>
<path d="M782 858 c4 -46 28 -49 28 -4 0 26 -4 36 -16 36 -11 0 -14 -8 -12
-32z"/>
<path d="M1730 794 c-12 -31 -12 -34 -1 -34 5 0 14 14 20 30 13 37 -5 41 -19
4z"/>
<path d="M806 773 c-8 -9 24 -43 41 -43 7 0 13 3 13 8 -1 11 -47 42 -54 35z"/>
<path d="M910 730 c0 -5 16 -10 35 -10 19 0 35 5 35 10 0 6 -16 10 -35 10 -19
0 -35 -4 -35 -10z"/>
<path d="M1030 730 c0 -5 14 -10 30 -10 17 0 30 5 30 10 0 6 -13 10 -30 10
-16 0 -30 -4 -30 -10z"/>
<path d="M1145 730 c-4 -6 8 -10 29 -10 20 0 36 5 36 10 0 6 -13 10 -29 10
-17 0 -33 -4 -36 -10z"/>
<path d="M1260 730 c0 -5 16 -10 35 -10 19 0 35 5 35 10 0 6 -16 10 -35 10
-19 0 -35 -4 -35 -10z"/>
<path d="M1380 730 c0 -5 16 -10 35 -10 19 0 35 5 35 10 0 6 -16 10 -35 10
-19 0 -35 -4 -35 -10z"/>
<path d="M1500 730 c0 -5 14 -10 30 -10 17 0 30 5 30 10 0 6 -13 10 -30 10
-16 0 -30 -4 -30 -10z"/>
</g>
</svg>
